<svg id="XMLID_1_" xmlns="http://www.w3.org/2000/svg" width="91.433" height="89.224" viewBox="0 0 91.433 89.224">
  <path id="XMLID_164_" d="M40.416,52.66a.836.836,0,1,1-.836.836A.826.826,0,0,1,40.416,52.66Z" transform="translate(12.148 16.163)" fill="#a3a3a3"/>
  <path id="XMLID_163_" d="M35.906,18.96a.834.834,0,0,1,.836.836.836.836,0,0,1-1.673,0A.834.834,0,0,1,35.906,18.96Z" transform="translate(10.764 5.819)" fill="#a3a3a3"/>
  <path id="XMLID_162_" d="M66.426,29.28a.842.842,0,0,1,.836.836.834.834,0,0,1-.836.836.842.842,0,0,1-.836-.836A.834.834,0,0,1,66.426,29.28Z" transform="translate(20.132 8.987)" fill="#a3a3a3"/>
  <path id="XMLID_161_" d="M26.987,64.62a.842.842,0,0,1,.836.836.836.836,0,1,1-.836-.836Z" transform="translate(8.026 19.834)" fill="#a3a3a3"/>
  <path id="XMLID_160_" d="M53.816,45.95a.836.836,0,1,1-.836.836A.834.834,0,0,1,53.816,45.95Z" transform="translate(16.261 14.104)" fill="#a3a3a3"/>
  <path id="XMLID_159_" d="M47.9,18.62a.834.834,0,0,1,.836.836.836.836,0,1,1-.836-.836Z" transform="translate(14.444 5.715)" fill="#a3a3a3"/>
  <path id="XMLID_158_" d="M20.4,6.17a.836.836,0,1,1-.836.836A.842.842,0,0,1,20.4,6.17Z" transform="translate(6.004 1.894)" fill="#a3a3a3"/>
  <path id="XMLID_157_" d="M42.006,3a.836.836,0,1,1-.836.836A.834.834,0,0,1,42.006,3Z" transform="translate(12.636 0.921)" fill="#a3a3a3"/>
  <circle id="XMLID_156_" cx="0.836" cy="0.836" r="0.836" transform="translate(33.667 41.469)" fill="#a3a3a3"/>
  <path id="XMLID_155_" d="M3.106,44.78a.836.836,0,1,1-.836.836A.834.834,0,0,1,3.106,44.78Z" transform="translate(0.697 13.744)" fill="#a3a3a3"/>
  <path id="XMLID_154_" d="M67.206,22.22a.842.842,0,0,1,.836.836.834.834,0,0,1-.836.836.836.836,0,0,1,0-1.673Z" transform="translate(20.371 6.82)" fill="#a3a3a3"/>
  <path id="XMLID_153_" d="M46.636,13.37a.836.836,0,1,1-.836.836A.842.842,0,0,1,46.636,13.37Z" transform="translate(14.058 4.104)" fill="#a3a3a3"/>
  <path id="XMLID_152_" d="M27.426,7.95a.842.842,0,0,1,.836.836.834.834,0,0,1-.836.836.842.842,0,0,1-.836-.836A.826.826,0,0,1,27.426,7.95Z" transform="translate(8.161 2.44)" fill="#a3a3a3"/>
  <path id="XMLID_151_" d="M27.516,20.95a.842.842,0,0,1,.836.836.834.834,0,0,1-.836.836.836.836,0,1,1,0-1.673Z" transform="translate(8.189 6.43)" fill="#a3a3a3"/>
  <path id="XMLID_150_" d="M36.576,54.67a.842.842,0,0,1,.836.836.834.834,0,0,1-.836.836.842.842,0,0,1-.836-.836A.834.834,0,0,1,36.576,54.67Z" transform="translate(10.97 16.78)" fill="#a3a3a3"/>
  <path id="XMLID_149_" d="M69.516,33.62a.836.836,0,1,1-.836.836A.842.842,0,0,1,69.516,33.62Z" transform="translate(21.08 10.319)" fill="#a3a3a3"/>
  <path id="XMLID_148_" d="M22.757,64.94a.836.836,0,1,1,0,1.673.842.842,0,0,1-.836-.836A.826.826,0,0,1,22.757,64.94Z" transform="translate(6.728 19.932)" fill="#a3a3a3"/>
  <path id="XMLID_147_" d="M53.566,29.2a.836.836,0,1,1-.836.836A.834.834,0,0,1,53.566,29.2Z" transform="translate(16.185 8.962)" fill="#a3a3a3"/>
  <path id="XMLID_146_" d="M40.336,58.98a.842.842,0,0,1,.836.836.834.834,0,0,1-.836.836.836.836,0,1,1,0-1.673Z" transform="translate(12.124 18.103)" fill="#a3a3a3"/>
  <path id="XMLID_145_" d="M51.1,52.74a.836.836,0,1,1-.836.836A.834.834,0,0,1,51.1,52.74Z" transform="translate(15.427 16.188)" fill="#a3a3a3"/>
  <path id="XMLID_144_" d="M12.546,55.2a.836.836,0,1,1-.836.836A.842.842,0,0,1,12.546,55.2Z" transform="translate(3.594 16.943)" fill="#a3a3a3"/>
  <path id="XMLID_143_" d="M17.006,62.08a.836.836,0,1,1-.836.836A.834.834,0,0,1,17.006,62.08Z" transform="translate(4.963 19.054)" fill="#a3a3a3"/>
  <path id="XMLID_142_" d="M48.866,3.45a.836.836,0,0,1,0,1.673.836.836,0,0,1,0-1.673Z" transform="translate(14.742 1.059)" fill="#a3a3a3"/>
  <path id="XMLID_141_" d="M27.5,48.33a.836.836,0,1,1-.836.836A.834.834,0,0,1,27.5,48.33Z" transform="translate(8.183 14.834)" fill="#a3a3a3"/>
  <path id="XMLID_140_" d="M40.486,22.87a.836.836,0,1,1-.836.836A.842.842,0,0,1,40.486,22.87Z" transform="translate(12.17 7.02)" fill="#a3a3a3"/>
  <path id="XMLID_139_" d="M24.266,19.67a.836.836,0,1,1-.836.836A.834.834,0,0,1,24.266,19.67Z" transform="translate(7.191 6.037)" fill="#a3a3a3"/>
  <path id="XMLID_138_" d="M40.126,27.15a.836.836,0,1,1-.836.836A.826.826,0,0,1,40.126,27.15Z" transform="translate(12.059 8.333)" fill="#a3a3a3"/>
  <path id="XMLID_137_" d="M48.437,11.87a.836.836,0,1,1,0,1.673.842.842,0,0,1-.836-.836A.818.818,0,0,1,48.437,11.87Z" transform="translate(14.61 3.643)" fill="#a3a3a3"/>
  <path id="XMLID_136_" d="M2.366,38.3a.836.836,0,1,1-.836.836A.834.834,0,0,1,2.366,38.3Z" transform="translate(0.47 11.756)" fill="#a3a3a3"/>
  <path id="XMLID_135_" d="M37.857,32.1a.836.836,0,1,1-.836.836A.826.826,0,0,1,37.857,32.1Z" transform="translate(11.363 9.853)" fill="#a3a3a3"/>
  <path id="XMLID_134_" d="M44.846,59.96a.836.836,0,1,1-.836.836A.834.834,0,0,1,44.846,59.96Z" transform="translate(13.508 18.404)" fill="#a3a3a3"/>
  <path id="XMLID_133_" d="M31.526,50.3a.842.842,0,0,1,.836.836.834.834,0,0,1-.836.836.836.836,0,0,1,0-1.673Z" transform="translate(9.42 15.439)" fill="#a3a3a3"/>
  <path id="XMLID_132_" d="M47.147,47.71a.842.842,0,0,1,.836.836.834.834,0,0,1-.836.836.842.842,0,0,1-.836-.836A.826.826,0,0,1,47.147,47.71Z" transform="translate(14.214 14.644)" fill="#a3a3a3"/>
  <path id="XMLID_131_" d="M30.727,36.24a.836.836,0,1,1-.836.836A.818.818,0,0,1,30.727,36.24Z" transform="translate(9.174 11.123)" fill="#a3a3a3"/>
  <path id="XMLID_130_" d="M10.006,18.57a.842.842,0,0,1,.836.836.834.834,0,0,1-.836.836.836.836,0,1,1,0-1.673Z" transform="translate(2.815 5.7)" fill="#a3a3a3"/>
  <circle id="XMLID_129_" cx="0.836" cy="0.836" r="0.836" transform="translate(35.653 0.013)" fill="#a3a3a3"/>
  <path id="XMLID_128_" d="M15.616,16.46a.836.836,0,1,1-.836.836A.834.834,0,0,1,15.616,16.46Z" transform="translate(4.536 5.052)" fill="#a3a3a3"/>
  <path id="XMLID_127_" d="M13.116,42.54a.836.836,0,1,1-.836.836A.842.842,0,0,1,13.116,42.54Z" transform="translate(3.769 13.057)" fill="#a3a3a3"/>
  <path id="XMLID_126_" d="M52.356,34.81a.836.836,0,1,1-.836.836A.834.834,0,0,1,52.356,34.81Z" transform="translate(15.813 10.684)" fill="#a3a3a3"/>
  <path id="XMLID_125_" d="M24.6,15.24a.836.836,0,0,1,0,1.673.836.836,0,0,1,0-1.673Z" transform="translate(7.293 4.678)" fill="#a3a3a3"/>
  <path id="XMLID_124_" d="M45.8,32.11a.836.836,0,1,1-.836.836A.826.826,0,0,1,45.8,32.11Z" transform="translate(13.8 9.856)" fill="#a3a3a3"/>
  <path id="XMLID_123_" d="M14.616,21.76a.836.836,0,1,1,0,1.673.836.836,0,1,1,0-1.673Z" transform="translate(4.23 6.679)" fill="#a3a3a3"/>
  <path id="XMLID_122_" d="M23.236,32.8a.836.836,0,1,1-.836.836A.834.834,0,0,1,23.236,32.8Z" transform="translate(6.875 10.067)" fill="#a3a3a3"/>
  <path id="XMLID_121_" d="M37.237,14.71a.842.842,0,0,1,.836.836.834.834,0,0,1-.836.836.842.842,0,0,1-.836-.836A.818.818,0,0,1,37.237,14.71Z" transform="translate(11.172 4.515)" fill="#a3a3a3"/>
  <path id="XMLID_120_" d="M62.6,22.35a.836.836,0,0,1,0,1.673.834.834,0,0,1-.836-.836A.842.842,0,0,1,62.6,22.35Z" transform="translate(18.956 6.86)" fill="#a3a3a3"/>
  <path id="XMLID_119_" d="M49.276,8.87a.834.834,0,0,1,.836.836.836.836,0,1,1-.836-.836Z" transform="translate(14.868 2.723)" fill="#a3a3a3"/>
  <path id="XMLID_118_" d="M4.686,27.46a.836.836,0,1,1-.836.836A.842.842,0,0,1,4.686,27.46Z" transform="translate(1.182 8.428)" fill="#a3a3a3"/>
  <path id="XMLID_117_" d="M55.967,20.41a.836.836,0,1,1,0,1.673.834.834,0,0,1-.836-.836A.818.818,0,0,1,55.967,20.41Z" transform="translate(16.921 6.265)" fill="#a3a3a3"/>
  <path id="XMLID_116_" d="M62.836,33.83a.836.836,0,1,1-.836.836A.842.842,0,0,1,62.836,33.83Z" transform="translate(19.03 10.384)" fill="#a3a3a3"/>
  <path id="XMLID_115_" d="M11.066,33a.836.836,0,1,1-.836.836A.834.834,0,0,1,11.066,33Z" transform="translate(3.14 10.129)" fill="#a3a3a3"/>
  <path id="XMLID_114_" d="M43.167,63.65a.836.836,0,1,1-.836.836A.826.826,0,0,1,43.167,63.65Z" transform="translate(12.992 19.536)" fill="#a3a3a3"/>
  <path id="XMLID_113_" d="M51.566,13.72a.836.836,0,1,1-.836.836A.842.842,0,0,1,51.566,13.72Z" transform="translate(15.571 4.211)" fill="#a3a3a3"/>
  <path id="XMLID_112_" d="M33.416,65.01a.836.836,0,1,1-.836.836A.842.842,0,0,1,33.416,65.01Z" transform="translate(10 19.954)" fill="#a3a3a3"/>
  <path id="XMLID_111_" d="M49.647,43.7a.836.836,0,1,1-.836.836A.818.818,0,0,1,49.647,43.7Z" transform="translate(14.981 13.413)" fill="#a3a3a3"/>
  <path id="XMLID_110_" d="M67.576,39.16A.836.836,0,1,1,66.74,40,.834.834,0,0,1,67.576,39.16Z" transform="translate(20.485 12.02)" fill="#a3a3a3"/>
  <path id="XMLID_109_" d="M31.966,15.13a.836.836,0,1,1,0,1.673.842.842,0,0,1-.836-.836A.834.834,0,0,1,31.966,15.13Z" transform="translate(9.555 4.644)" fill="#a3a3a3"/>
  <path id="XMLID_108_" d="M13.736,26.23a.836.836,0,1,1-.836.836A.842.842,0,0,1,13.736,26.23Z" transform="translate(3.959 8.051)" fill="#a3a3a3"/>
  <path id="XMLID_107_" d="M30.606,23.77a.836.836,0,1,1-.836.836A.834.834,0,0,1,30.606,23.77Z" transform="translate(9.137 7.296)" fill="#a3a3a3"/>
  <path id="XMLID_106_" d="M53.806,49.16a.836.836,0,1,1,0,1.673A.834.834,0,0,1,52.97,50,.842.842,0,0,1,53.806,49.16Z" transform="translate(16.258 15.089)" fill="#a3a3a3"/>
  <path id="XMLID_105_" d="M18.376,3.45a.842.842,0,0,1,.836.836.836.836,0,1,1-.836-.836Z" transform="translate(5.384 1.059)" fill="#a3a3a3"/>
  <path id="XMLID_104_" d="M7.576,40.75a.836.836,0,1,1-.836.836A.842.842,0,0,1,7.576,40.75Z" transform="translate(2.069 12.508)" fill="#a3a3a3"/>
  <path id="XMLID_103_" d="M40.276,33.34a.836.836,0,1,1-.836.836A.842.842,0,0,1,40.276,33.34Z" transform="translate(12.105 10.233)" fill="#a3a3a3"/>
  <path id="XMLID_102_" d="M59.226,12.88a.836.836,0,1,1-.836.836A.842.842,0,0,1,59.226,12.88Z" transform="translate(17.922 3.953)" fill="#a3a3a3"/>
  <path id="XMLID_101_" d="M53.7,51.76a.836.836,0,1,1-.836.836A.842.842,0,0,1,53.7,51.76Z" transform="translate(16.225 15.887)" fill="#a3a3a3"/>
  <path id="XMLID_100_" d="M6.2,36.02a.842.842,0,0,1,.836.836.834.834,0,0,1-.836.836.836.836,0,1,1,0-1.673Z" transform="translate(1.645 11.056)" fill="#a3a3a3"/>
  <path id="XMLID_99_" d="M26.726,53.74a.836.836,0,1,1,0,1.673.834.834,0,0,1-.836-.836A.842.842,0,0,1,26.726,53.74Z" transform="translate(7.947 16.495)" fill="#a3a3a3"/>
  <path id="XMLID_98_" d="M55.446,59.61a.836.836,0,1,1-.836.836A.834.834,0,0,1,55.446,59.61Z" transform="translate(16.762 18.296)" fill="#a3a3a3"/>
  <path id="XMLID_97_" d="M31.466,9.55a.836.836,0,1,1-.836.836A.834.834,0,0,1,31.466,9.55Z" transform="translate(9.401 2.931)" fill="#a3a3a3"/>
  <path id="XMLID_96_" d="M39.266,62.37a.842.842,0,0,1,.836.836.834.834,0,0,1-.836.836.842.842,0,0,1-.836-.836A.834.834,0,0,1,39.266,62.37Z" transform="translate(11.795 19.143)" fill="#a3a3a3"/>
  <path id="XMLID_95_" d="M58.556,53.15a.836.836,0,0,1,0,1.673.836.836,0,1,1,0-1.673Z" transform="translate(17.716 16.314)" fill="#a3a3a3"/>
  <path id="XMLID_94_" d="M1.666,32.39a.836.836,0,1,1,0,1.673.842.842,0,0,1-.836-.836A.834.834,0,0,1,1.666,32.39Z" transform="translate(0.255 9.942)" fill="#a3a3a3"/>
  <path id="XMLID_93_" d="M48.286,36.85a.836.836,0,1,1-.836.836A.842.842,0,0,1,48.286,36.85Z" transform="translate(14.564 11.311)" fill="#a3a3a3"/>
  <path id="XMLID_92_" d="M21.8,11.22a.842.842,0,0,1,.836.836.834.834,0,0,1-.836.836.836.836,0,0,1,0-1.673Z" transform="translate(6.433 3.444)" fill="#a3a3a3"/>
  <path id="XMLID_91_" d="M28.577,3.16A.842.842,0,0,1,29.413,4a.834.834,0,0,1-.836.836A.842.842,0,0,1,27.74,4,.826.826,0,0,1,28.577,3.16Z" transform="translate(8.514 0.97)" fill="#a3a3a3"/>
  <path id="XMLID_90_" d="M61.777,27.34a.836.836,0,1,1-.836.836A.826.826,0,0,1,61.777,27.34Z" transform="translate(18.704 8.392)" fill="#a3a3a3"/>
  <path id="XMLID_89_" d="M12.826,49.35a.836.836,0,1,1-.836.836A.834.834,0,0,1,12.826,49.35Z" transform="translate(3.68 15.147)" fill="#a3a3a3"/>
  <path id="XMLID_88_" d="M57.157,36.66a.836.836,0,1,1-.836.836A.826.826,0,0,1,57.157,36.66Z" transform="translate(17.286 11.252)" fill="#a3a3a3"/>
  <path id="XMLID_87_" d="M27.416,40.16A.836.836,0,1,1,26.58,41,.842.842,0,0,1,27.416,40.16Z" transform="translate(8.158 12.326)" fill="#a3a3a3"/>
  <path id="XMLID_86_" d="M60.857,39.05a.836.836,0,1,1,0,1.673.834.834,0,0,1-.836-.836A.818.818,0,0,1,60.857,39.05Z" transform="translate(18.422 11.986)" fill="#a3a3a3"/>
  <path id="XMLID_85_" d="M17.706,52.51a.836.836,0,1,1-.836.836A.834.834,0,0,1,17.706,52.51Z" transform="translate(5.178 16.117)" fill="#a3a3a3"/>
  <path id="XMLID_84_" d="M43.266,12.45a.836.836,0,1,1-.836.836A.842.842,0,0,1,43.266,12.45Z" transform="translate(13.023 3.821)" fill="#a3a3a3"/>
  <path id="XMLID_83_" d="M10.816,45.06a.836.836,0,1,1-.836.836A.834.834,0,0,1,10.816,45.06Z" transform="translate(3.063 13.83)" fill="#a3a3a3"/>
  <path id="XMLID_82_" d="M30.016,62.51a.836.836,0,1,1,0,1.673.836.836,0,1,1,0-1.673Z" transform="translate(8.956 19.186)" fill="#a3a3a3"/>
  <path id="XMLID_81_" d="M38.886,24.7a.836.836,0,1,1-.836.836A.842.842,0,0,1,38.886,24.7Z" transform="translate(11.679 7.581)" fill="#a3a3a3"/>
  <path id="XMLID_80_" d="M57.486,32.3a.836.836,0,0,1,0,1.673.836.836,0,1,1,0-1.673Z" transform="translate(17.388 9.914)" fill="#a3a3a3"/>
  <path id="XMLID_79_" d="M55.987,8.88a.836.836,0,1,1-.836.836A.818.818,0,0,1,55.987,8.88Z" transform="translate(16.927 2.726)" fill="#a3a3a3"/>
  <path id="XMLID_78_" d="M17.317,12.52a.836.836,0,0,1,0,1.673.836.836,0,0,1,0-1.673Z" transform="translate(5.058 3.843)" fill="#a3a3a3"/>
  <path id="XMLID_77_" d="M20.026,18.62a.836.836,0,1,1-.836.836A.842.842,0,0,1,20.026,18.62Z" transform="translate(5.89 5.715)" fill="#a3a3a3"/>
  <path id="XMLID_76_" d="M.836,25.81a.834.834,0,0,1,.836.836.842.842,0,0,1-.836.836A.823.823,0,0,1,0,26.66.845.845,0,0,1,.836,25.81Z" transform="translate(0 7.922)" fill="#a3a3a3"/>
  <path id="XMLID_75_" d="M42.3,27.89a.836.836,0,0,1,0,1.673.836.836,0,1,1,0-1.673Z" transform="translate(12.725 8.56)" fill="#a3a3a3"/>
  <path id="XMLID_74_" d="M41.886,19.29a.834.834,0,0,1,.836.836.836.836,0,1,1-.836-.836Z" transform="translate(12.6 5.921)" fill="#a3a3a3"/>
  <path id="XMLID_73_" d="M23.476,57.96a.836.836,0,0,1,0,1.673.836.836,0,1,1,0-1.673Z" transform="translate(6.949 17.79)" fill="#a3a3a3"/>
  <path id="XMLID_72_" d="M9.9,29.62a.836.836,0,1,1-.836.836A.818.818,0,0,1,9.9,29.62Z" transform="translate(2.781 9.091)" fill="#a3a3a3"/>
  <path id="XMLID_71_" d="M47.956,56.65a.836.836,0,0,1,0,1.673.842.842,0,0,1-.836-.836A.834.834,0,0,1,47.956,56.65Z" transform="translate(14.463 17.388)" fill="#a3a3a3"/>
  <path id="XMLID_70_" d="M35.646,24.6a.842.842,0,0,1,.836.836.834.834,0,0,1-.836.836.836.836,0,1,1,0-1.673Z" transform="translate(10.684 7.551)" fill="#a3a3a3"/>
  <path id="XMLID_69_" d="M45.366.27a.842.842,0,0,1,.836.836.842.842,0,0,1-.836.836.836.836,0,0,1,0-1.673Z" transform="translate(13.668 0.083)" fill="#a3a3a3"/>
  <path id="XMLID_68_" d="M46.737,22.98a.834.834,0,0,1,.836.836.836.836,0,1,1-1.673,0A.826.826,0,0,1,46.737,22.98Z" transform="translate(14.088 7.053)" fill="#a3a3a3"/>
  <path id="XMLID_67_" d="M19.277,58.19a.836.836,0,1,1,0,1.673.842.842,0,0,1-.836-.836A.826.826,0,0,1,19.277,58.19Z" transform="translate(5.66 17.86)" fill="#a3a3a3"/>
  <path id="XMLID_66_" d="M34.646,60.57a.842.842,0,0,1,.836.836.834.834,0,0,1-.836.836.836.836,0,1,1,0-1.673Z" transform="translate(10.377 18.591)" fill="#a3a3a3"/>
  <path id="XMLID_65_" d="M17.926,32.21a.836.836,0,1,1-.836.836A.842.842,0,0,1,17.926,32.21Z" transform="translate(5.245 9.886)" fill="#a3a3a3"/>
  <path id="XMLID_64_" d="M53.266,23.35a.836.836,0,0,1,0,1.673.836.836,0,1,1,0-1.673Z" transform="translate(16.093 7.167)" fill="#a3a3a3"/>
  <path id="XMLID_63_" d="M45.506,66.99a.836.836,0,1,1-.836.836A.834.834,0,0,1,45.506,66.99Z" transform="translate(13.711 20.562)" fill="#a3a3a3"/>
  <path id="XMLID_62_" d="M57.086,26.92a.836.836,0,1,1,0,1.673.836.836,0,1,1,0-1.673Z" transform="translate(17.265 8.263)" fill="#a3a3a3"/>
  <path id="XMLID_61_" d="M44.736,43.13a.836.836,0,1,1,0,1.673.836.836,0,0,1,0-1.673Z" transform="translate(13.474 13.238)" fill="#a3a3a3"/>
  <path id="XMLID_60_" d="M10.967,36.62a.836.836,0,0,1,0,1.673.834.834,0,0,1-.836-.836A.818.818,0,0,1,10.967,36.62Z" transform="translate(3.109 11.24)" fill="#a3a3a3"/>
  <path id="XMLID_59_" d="M16.487,36.36a.836.836,0,1,1,0,1.673.842.842,0,0,1-.836-.836A.818.818,0,0,1,16.487,36.36Z" transform="translate(4.803 11.16)" fill="#a3a3a3"/>
  <path id="XMLID_58_" d="M13.086,11.74a.834.834,0,0,1,.836.836.836.836,0,1,1-1.673,0A.834.834,0,0,1,13.086,11.74Z" transform="translate(3.76 3.603)" fill="#a3a3a3"/>
  <path id="XMLID_57_" d="M23.5,48.4a.834.834,0,0,1,.836.836.836.836,0,1,1-1.673,0A.834.834,0,0,1,23.5,48.4Z" transform="translate(6.955 14.856)" fill="#a3a3a3"/>
  <path id="XMLID_56_" d="M27.956,12.39a.842.842,0,0,1,.836.836.834.834,0,0,1-.836.836.842.842,0,0,1-.836-.836A.826.826,0,0,1,27.956,12.39Z" transform="translate(8.324 3.803)" fill="#a3a3a3"/>
  <path id="XMLID_55_" d="M47.3,52.14a.834.834,0,0,1,.836.836.836.836,0,1,1-.836-.836Z" transform="translate(14.26 16.004)" fill="#a3a3a3"/>
  <path id="XMLID_54_" d="M58.126,42.89a.842.842,0,0,1,.836.836.836.836,0,1,1-.836-.836Z" transform="translate(17.584 13.164)" fill="#a3a3a3"/>
  <path id="XMLID_53_" d="M32.616,57.04a.836.836,0,1,1-.836.836A.842.842,0,0,1,32.616,57.04Z" transform="translate(9.754 17.508)" fill="#a3a3a3"/>
  <path id="XMLID_52_" d="M56.807,55.1a.836.836,0,1,1,0,1.673.836.836,0,0,1,0-1.673Z" transform="translate(17.179 16.912)" fill="#a3a3a3"/>
  <path id="XMLID_51_" d="M34.076,34.86a.836.836,0,1,1-.836.836A.834.834,0,0,1,34.076,34.86Z" transform="translate(10.202 10.7)" fill="#a3a3a3"/>
  <path id="XMLID_50_" d="M41.027,46.53a.836.836,0,1,1-.836.836A.826.826,0,0,1,41.027,46.53Z" transform="translate(12.336 14.282)" fill="#a3a3a3"/>
  <path id="XMLID_49_" d="M31.417,42.71a.834.834,0,0,1,.836.836.836.836,0,1,1-1.673,0A.826.826,0,0,1,31.417,42.71Z" transform="translate(9.386 13.109)" fill="#a3a3a3"/>
  <path id="XMLID_48_" d="M32.076,47.13a.836.836,0,1,1-.836.836A.842.842,0,0,1,32.076,47.13Z" transform="translate(9.589 14.466)" fill="#a3a3a3"/>
  <path id="XMLID_47_" d="M14.226,58.11a.842.842,0,0,1,.836.836.834.834,0,0,1-.836.836.836.836,0,1,1,0-1.673Z" transform="translate(4.11 17.836)" fill="#a3a3a3"/>
  <path id="XMLID_46_" d="M29.076,30.94a.836.836,0,0,1,0,1.673.836.836,0,0,1,0-1.673Z" transform="translate(8.668 9.497)" fill="#a3a3a3"/>
  <path id="XMLID_45_" d="M27.787,66.99a.836.836,0,0,1,0,1.673.836.836,0,1,1,0-1.673Z" transform="translate(8.272 20.562)" fill="#a3a3a3"/>
  <path id="XMLID_44_" d="M34.706,7.71a.836.836,0,1,1-.836.836A.834.834,0,0,1,34.706,7.71Z" transform="translate(10.396 2.366)" fill="#a3a3a3"/>
  <path id="XMLID_43_" d="M33.376,1.18a.834.834,0,0,1,.836.836.836.836,0,1,1-1.673,0A.834.834,0,0,1,33.376,1.18Z" transform="translate(9.988 0.362)" fill="#a3a3a3"/>
  <path id="XMLID_42_" d="M67.646,45.69a.836.836,0,0,1,0,1.673.842.842,0,0,1-.836-.836A.834.834,0,0,1,67.646,45.69Z" transform="translate(20.506 14.024)" fill="#a3a3a3"/>
  <path id="XMLID_41_" d="M6.606,45.78a.836.836,0,1,1-.836.836A.842.842,0,0,1,6.606,45.78Z" transform="translate(1.771 14.051)" fill="#a3a3a3"/>
  <path id="XMLID_40_" d="M21.217,36.83a.836.836,0,1,1-.836.836A.826.826,0,0,1,21.217,36.83Z" transform="translate(6.255 11.304)" fill="#a3a3a3"/>
  <path id="XMLID_39_" d="M5.676,32.02a.842.842,0,0,1,.836.836.834.834,0,0,1-.836.836.842.842,0,0,1-.836-.836A.834.834,0,0,1,5.676,32.02Z" transform="translate(1.486 9.828)" fill="#a3a3a3"/>
  <path id="XMLID_38_" d="M59.046,17.22a.842.842,0,0,1,.836.836.834.834,0,0,1-.836.836.836.836,0,0,1,0-1.673Z" transform="translate(17.867 5.285)" fill="#a3a3a3"/>
  <path id="XMLID_37_" d="M22.576,2.81a.842.842,0,0,1,.836.836.834.834,0,0,1-.836.836.842.842,0,0,1-.836-.836A.834.834,0,0,1,22.576,2.81Z" transform="translate(6.673 0.862)" fill="#a3a3a3"/>
  <path id="XMLID_36_" d="M45.286,6.52a.834.834,0,0,1,.836.836.836.836,0,1,1-.836-.836Z" transform="translate(13.643 2.001)" fill="#a3a3a3"/>
  <path id="XMLID_35_" d="M20.786,52.5a.842.842,0,0,1,.836.836.834.834,0,0,1-.836.836.842.842,0,0,1-.836-.836A.834.834,0,0,1,20.786,52.5Z" transform="translate(6.123 16.114)" fill="#a3a3a3"/>
  <path id="XMLID_34_" d="M41.056,41.77a.836.836,0,1,1,0,1.673.836.836,0,0,1,0-1.673Z" transform="translate(12.345 12.821)" fill="#a3a3a3"/>
  <path id="XMLID_33_" d="M39.366,11.35a.834.834,0,0,1,.836.836.836.836,0,1,1-.836-.836Z" transform="translate(11.826 3.484)" fill="#a3a3a3"/>
  <path id="XMLID_32_" d="M45.7,40.6a.836.836,0,0,1,0,1.673.836.836,0,0,1,0-1.673Z" transform="translate(13.769 12.462)" fill="#a3a3a3"/>
  <path id="XMLID_31_" d="M14.436,7.39a.836.836,0,1,1-.836.836A.842.842,0,0,1,14.436,7.39Z" transform="translate(4.174 2.268)" fill="#a3a3a3"/>
  <path id="XMLID_30_" d="M7.876,23.18a.836.836,0,1,1-.836.836A.842.842,0,0,1,7.876,23.18Z" transform="translate(2.161 7.115)" fill="#a3a3a3"/>
  <path id="XMLID_29_" d="M8.536,14.42a.836.836,0,1,1,0,1.673.834.834,0,0,1-.836-.836A.842.842,0,0,1,8.536,14.42Z" transform="translate(2.363 4.426)" fill="#a3a3a3"/>
  <path id="XMLID_28_" d="M49.1,29.4a.836.836,0,1,1-.836.836A.842.842,0,0,1,49.1,29.4Z" transform="translate(14.813 9.024)" fill="#a3a3a3"/>
  <path id="XMLID_27_" d="M59.386,57.89a.834.834,0,0,1,.836.836.836.836,0,1,1-.836-.836Z" transform="translate(17.971 17.768)" fill="#a3a3a3"/>
  <path id="XMLID_26_" d="M10.926,9.24a.836.836,0,1,1-.836.836A.834.834,0,0,1,10.926,9.24Z" transform="translate(3.097 2.836)" fill="#a3a3a3"/>
  <path id="XMLID_25_" d="M25.4,28.07a.836.836,0,1,1,0,1.673.842.842,0,0,1-.836-.836A.834.834,0,0,1,25.4,28.07Z" transform="translate(7.538 8.616)" fill="#a3a3a3"/>
  <path id="XMLID_24_" d="M50.886,59.9a.836.836,0,1,1,0,1.673.836.836,0,1,1,0-1.673Z" transform="translate(15.362 18.385)" fill="#a3a3a3"/>
  <path id="XMLID_23_" d="M36.716,4.54a.836.836,0,1,1-.836.836A.842.842,0,0,1,36.716,4.54Z" transform="translate(11.013 1.393)" fill="#a3a3a3"/>
  <path id="XMLID_22_" d="M21.556,25.01a.836.836,0,1,1-.836.836A.842.842,0,0,1,21.556,25.01Z" transform="translate(6.36 7.676)" fill="#a3a3a3"/>
  <path id="XMLID_21_" d="M19.557,42.32a.836.836,0,1,1,0,1.673.836.836,0,1,1,0-1.673Z" transform="translate(5.746 12.989)" fill="#a3a3a3"/>
  <path id="XMLID_20_" d="M44.186,55.03a.842.842,0,0,1,.836.836.834.834,0,0,1-.836.836.836.836,0,1,1,0-1.673Z" transform="translate(13.306 16.891)" fill="#a3a3a3"/>
  <path id="XMLID_19_" d="M5.416,17.9a.842.842,0,0,1,.836.836.836.836,0,1,1-.836-.836Z" transform="translate(1.406 5.494)" fill="#a3a3a3"/>
  <path id="XMLID_18_" d="M33.416,28.76a.836.836,0,1,1-.836.836A.834.834,0,0,1,33.416,28.76Z" transform="translate(10 8.827)" fill="#a3a3a3"/>
  <path id="XMLID_17_" d="M20.126,46.37a.842.842,0,0,1,.836.836.834.834,0,0,1-.836.836.836.836,0,1,1,0-1.673Z" transform="translate(5.921 14.233)" fill="#a3a3a3"/>
  <path id="XMLID_16_" d="M54.086,5.67a.836.836,0,1,1-.836.836A.842.842,0,0,1,54.086,5.67Z" transform="translate(16.344 1.74)" fill="#a3a3a3"/>
  <path id="XMLID_15_" d="M3.937,21.74a.836.836,0,1,1-.836.836A.826.826,0,0,1,3.937,21.74Z" transform="translate(0.951 6.673)" fill="#a3a3a3"/>
  <path id="XMLID_14_" d="M24.416,42.39a.834.834,0,0,1,.836.836.836.836,0,1,1-.836-.836Z" transform="translate(7.238 13.011)" fill="#a3a3a3"/>
  <path id="XMLID_13_" d="M36.966,49.5a.842.842,0,0,1,.836.836.834.834,0,0,1-.836.836.836.836,0,0,1,0-1.673Z" transform="translate(11.09 15.193)" fill="#a3a3a3"/>
  <path id="XMLID_12_" d="M63.326,52.72a.836.836,0,1,1-.836.836A.826.826,0,0,1,63.326,52.72Z" transform="translate(19.18 16.182)" fill="#a3a3a3"/>
  <path id="XMLID_11_" d="M37.916,0a.842.842,0,0,1,.836.836.836.836,0,0,1-1.673,0A.842.842,0,0,1,37.916,0Z" transform="translate(11.381)" fill="#a3a3a3"/>
  <path id="XMLID_10_" d="M65.406,18.7a.836.836,0,1,1,0,1.673.834.834,0,0,1-.836-.836A.842.842,0,0,1,65.406,18.7Z" transform="translate(19.819 5.74)" fill="#a3a3a3"/>
  <path id="XMLID_9_" d="M67.576,42.06a.836.836,0,1,1-.836.836A.826.826,0,0,1,67.576,42.06Z" transform="translate(20.485 12.91)" fill="#a3a3a3"/>
  <path id="XMLID_8_" d="M6.887,50.5a.836.836,0,1,1-.836.836A.818.818,0,0,1,6.887,50.5Z" transform="translate(1.857 15.5)" fill="#a3a3a3"/>
  <path id="XMLID_7_" d="M37.4,39.06a.842.842,0,0,1,.836.836.834.834,0,0,1-.836.836.842.842,0,0,1-.836-.836A.834.834,0,0,1,37.4,39.06Z" transform="translate(11.222 11.989)" fill="#a3a3a3"/>
  <path id="XMLID_6_" d="M69.326,27.03a.834.834,0,0,1,.836.836.836.836,0,0,1-1.673,0A.834.834,0,0,1,69.326,27.03Z" transform="translate(21.022 8.296)" fill="#a3a3a3"/>
  <path id="XMLID_5_" d="M63.1,43.22a.836.836,0,1,1-.836.836A.818.818,0,0,1,63.1,43.22Z" transform="translate(19.11 13.266)" fill="#a3a3a3"/>
  <path id="XMLID_4_" d="M62.606,49.4a.836.836,0,1,1-.836.836A.826.826,0,0,1,62.606,49.4Z" transform="translate(18.959 15.163)" fill="#a3a3a3"/>
  <path id="XMLID_3_" d="M56.026,15.67a.836.836,0,1,1-.836.836A.842.842,0,0,1,56.026,15.67Z" transform="translate(16.94 4.81)" fill="#a3a3a3"/>
  <path id="XMLID_2_" d="M36.406,44.23a.836.836,0,1,1-.836.836A.842.842,0,0,1,36.406,44.23Z" transform="translate(10.918 13.576)" fill="#a3a3a3"/>
</svg>
