<svg data-name="Group 212" xmlns="http://www.w3.org/2000/svg" width="235.816" height="106.539"><path data-name="Path 34" d="M123.51 81.018c2.243-.959-1.537-5.335-3.78-4.377s1.538 5.336 3.78 4.377z" fill="#f3f3f3"/><path data-name="Path 35" d="M105.053 46.781c-.226.1-.452.19-.678.289a1.155 1.155 0 00-.678 1.167A3.16 3.16 0 00104.52 50a4.991 4.991 0 001.845 1.329 2.481 2.481 0 001.781.109c.226-.1.452-.19.678-.289a1.1 1.1 0 00.371-.262 1.226 1.226 0 00.307-.9 3.119 3.119 0 00-.832-1.763 5.831 5.831 0 00-1.257-1.049 3.876 3.876 0 00-.588-.28 2.5 2.5 0 00-1.772-.114z" fill="#f3f3f3"/><path data-name="Path 36" d="M102.702 79.951a5.1 5.1 0 00-1.845-1.329 2.391 2.391 0 00-1.781-.109 1.143 1.143 0 00-.678 1.167 3.179 3.179 0 00.832 1.763c.244.28.488.57.733.85a5.129 5.129 0 001.429 1.13 4.344 4.344 0 00.416.2 2.391 2.391 0 001.781.109 1.143 1.143 0 00.678-1.167 3.013 3.013 0 00-.633-1.5 2.508 2.508 0 00-.2-.262c-.235-.296-.488-.571-.732-.852z" fill="#f3f3f3"/><path data-name="Path 37" d="M83.838 51.222c-2.243.959 1.537 5.335 3.78 4.377s-1.537-5.336-3.78-4.377z" fill="#f3f3f3"/><path data-name="Path 38" d="M136.858 59.957c-2.243.959 1.537 5.335 3.78 4.377s-1.537-5.336-3.78-4.377z" fill="#f3f3f3"/><path data-name="Path 39" d="M103.145 63.429c.244.28.488.57.732.85a5.1 5.1 0 001.846 1.334 2.391 2.391 0 001.782.109 1.143 1.143 0 00.678-1.167 3.179 3.179 0 00-.832-1.763c-.244-.28-.488-.57-.732-.85a5.1 5.1 0 00-1.845-1.329 2.391 2.391 0 00-1.781-.109 1.143 1.143 0 00-.678 1.167 3.179 3.179 0 00.83 1.758z" fill="#f3f3f3"/><path data-name="Path 40" d="M58.4 100.344a2.481 2.481 0 00-1.782-.109c-.226.1-.452.19-.678.289a1.155 1.155 0 00-.678 1.167 3.119 3.119 0 00.832 1.763 4.99 4.99 0 001.845 1.329 2.481 2.481 0 001.781.109c.226-.1.452-.19.678-.289a1.155 1.155 0 00.678-1.167 3.119 3.119 0 00-.832-1.763 4.89 4.89 0 00-1.844-1.329z" fill="#f3f3f3"/><path data-name="Path 41" d="M87.305 91.726c-.226.1-.452.19-.678.289a1.1 1.1 0 00-.651.85 1.218 1.218 0 00-.018.317 3.119 3.119 0 00.832 1.763 4.99 4.99 0 001.845 1.329 2.481 2.481 0 001.781.109c.226-.1.452-.19.678-.289a1.155 1.155 0 00.678-1.167 3.119 3.119 0 00-.832-1.763 4.99 4.99 0 00-1.845-1.329c-.09-.036-.181-.063-.271-.09a2.36 2.36 0 00-1.519-.019z" fill="#f3f3f3"/><path data-name="Path 42" d="M59.087 67.671c-2.243.959 1.537 5.335 3.78 4.377s-1.537-5.336-3.78-4.377z" fill="#f3f3f3"/><path data-name="Path 43" d="M141.262 91.897c-2.243.959 1.537 5.335 3.78 4.377s-1.537-5.344-3.78-4.377z" fill="#f3f3f3"/><path data-name="Path 116" d="M152.014 100.168c-2.243.959 1.537 5.335 3.78 4.377s-1.537-5.344-3.78-4.377z" fill="#f3f3f3"/><path data-name="Path 44" d="M125.708 96.898c-2.433-2.812-5.914-1.329-3.482 1.492.136.154.271.307.407.47 2.433 2.812 5.914 1.329 3.482-1.492-.135-.153-.271-.307-.407-.47z" fill="#f3f3f3"/><path data-name="Path 45" d="M187.891 95.378c2.243-.959-1.537-5.335-3.78-4.377s1.535 5.336 3.78 4.377z" fill="#f3f3f3"/><path data-name="Path 46" d="M192.864 71.08c.226-.1.452-.19.678-.289a1.156 1.156 0 00.678-1.167 3.118 3.118 0 00-.832-1.763 4.99 4.99 0 00-1.845-1.329 2.481 2.481 0 00-1.782-.109c-.226.1-.452.19-.678.289a1.155 1.155 0 00-.678 1.167 3.119 3.119 0 00.832 1.763 4.99 4.99 0 001.845 1.329 2.481 2.481 0 001.782.109z" fill="#f3f3f3"/><path data-name="Path 47" d="M158.272 72.933c-2.243.959 1.537 5.335 3.78 4.377s-1.537-5.344-3.78-4.377z" fill="#f3f3f3"/><path data-name="Path 48" d="M166.79 88.605c-.244-.28-.488-.57-.732-.85a5.1 5.1 0 00-1.845-1.329 2.391 2.391 0 00-1.781-.109 1.143 1.143 0 00-.678 1.167 3.179 3.179 0 00.832 1.763c.244.28.488.57.732.85a5.1 5.1 0 001.845 1.329 2.391 2.391 0 001.782.109 1.143 1.143 0 00.678-1.167 3.308 3.308 0 00-.833-1.763z" fill="#f3f3f3"/><path data-name="Path 49" d="M164.087 57.316a2.391 2.391 0 00-1.782-.109 1.143 1.143 0 00-.678 1.167 3.179 3.179 0 00.832 1.763c.244.28.488.57.732.85a5.1 5.1 0 001.845 1.329 2.391 2.391 0 001.781.109 1.143 1.143 0 00.681-1.164 3.18 3.18 0 00-.832-1.763c-.244-.28-.488-.57-.732-.85a5.02 5.02 0 00-1.847-1.332z" fill="#f3f3f3"/><path data-name="Path 50" d="M135.112 37.547c2.243-.959-1.537-5.335-3.78-4.377s1.538 5.335 3.78 4.377z" fill="#f3f3f3"/><path data-name="Path 51" d="M140.053 52.921c2.243-.959-1.537-5.335-3.78-4.377s1.535 5.345 3.78 4.377z" fill="#f3f3f3"/><path data-name="Path 52" d="M158.887 42.512c2.243-.959-1.537-5.335-3.78-4.377s1.529 5.336 3.78 4.377z" fill="#f3f3f3"/><path data-name="Path 53" d="M114.72 31.136c2.243-.959-1.537-5.335-3.78-4.377s1.538 5.336 3.78 4.377z" fill="#f3f3f3"/><path data-name="Path 54" d="M118.328 40.062c-.136-.154-.271-.317-.407-.47-2.433-2.812-5.914-1.329-3.482 1.492.136.154.271.317.407.47 2.431 2.817 5.915 1.329 3.482-1.492z" fill="#f3f3f3"/><path data-name="Path 55" d="M134.054 72.825c-2.243.959 1.537 5.335 3.78 4.377s-1.528-5.344-3.78-4.377z" fill="#f3f3f3"/><path data-name="Path 56" d="M85.266 36.779c2.243-.959-1.537-5.335-3.78-4.377s1.538 5.336 3.78 4.377z" fill="#f3f3f3"/><path data-name="Path 57" d="M98.419 23.467c-.244-.28-.488-.57-.732-.85a5.1 5.1 0 00-1.845-1.329 2.391 2.391 0 00-1.782-.109 1.143 1.143 0 00-.678 1.167 3.179 3.179 0 00.832 1.763c.244.28.488.57.732.85a5.1 5.1 0 001.845 1.329 2.391 2.391 0 001.782.109 1.143 1.143 0 00.678-1.167 3.271 3.271 0 00-.832-1.763z" fill="#f3f3f3"/><path data-name="Path 58" d="M56.889 24.959c.244.28.488.57.732.85a5.1 5.1 0 001.847 1.33 2.391 2.391 0 001.781.109 1.143 1.143 0 00.678-1.167 3.18 3.18 0 00-.832-1.763c-.244-.28-.488-.57-.732-.85a5.1 5.1 0 00-1.845-1.329 2.391 2.391 0 00-1.781-.109 1.143 1.143 0 00-.678 1.167 3.308 3.308 0 00.83 1.762z" fill="#f3f3f3"/><path data-name="Path 59" d="M64.721 42.594c.244.28.488.57.732.85a5.1 5.1 0 001.845 1.329 2.391 2.391 0 001.782.109 1.143 1.143 0 00.678-1.167 3.179 3.179 0 00-.832-1.763c-.244-.28-.488-.57-.732-.85a5.1 5.1 0 00-1.845-1.329 2.391 2.391 0 00-1.781-.109 1.143 1.143 0 00-.678 1.167 3.179 3.179 0 00.831 1.763z" fill="#f3f3f3"/><path data-name="Path 60" d="M41.136 39.392c2.243-.959-1.537-5.335-3.78-4.377s1.529 5.336 3.78 4.377z" fill="#f3f3f3"/><path data-name="Path 61" d="M71.249 61.955c.244.28.488.57.732.85a5.1 5.1 0 001.845 1.329 2.391 2.391 0 001.781.109 1.143 1.143 0 00.678-1.167 3.179 3.179 0 00-.832-1.763c-.244-.28-.488-.57-.732-.85a5.1 5.1 0 00-1.845-1.329 2.391 2.391 0 00-1.782-.109 1.143 1.143 0 00-.678 1.167 3.179 3.179 0 00.833 1.763z" fill="#f3f3f3"/><path data-name="Path 62" d="M70.436 91.987c-2.433-2.812-5.914-1.329-3.482 1.492.136.154.271.317.407.47 2.433 2.812 5.914 1.329 3.482-1.492-.135-.153-.271-.307-.407-.47z" fill="#f3f3f3"/><path data-name="Path 63" d="M42.574 61.648a2.481 2.481 0 00-1.781-.109c-.226.1-.452.19-.678.289a1.155 1.155 0 00-.678 1.167 3.119 3.119 0 00.832 1.763 4.99 4.99 0 001.845 1.329 2.481 2.481 0 001.781.109c.226-.1.452-.19.678-.289a1.155 1.155 0 00.678-1.167 3.119 3.119 0 00-.832-1.763 4.891 4.891 0 00-1.845-1.329z" fill="#f3f3f3"/><path data-name="Path 64" d="M59.34 57.234c2.243-.959-1.537-5.335-3.78-4.377s1.533 5.336 3.78 4.377z" fill="#f3f3f3"/><path data-name="Path 65" d="M23.059 64.639c2.243-.959-1.537-5.335-3.78-4.377s1.537 5.338 3.78 4.377z" fill="#f3f3f3"/><path data-name="Path 66" d="M38.758 81.525a2.481 2.481 0 001.782.109c.226-.1.452-.19.678-.289a1.155 1.155 0 00.678-1.167 3.119 3.119 0 00-.832-1.763 4.99 4.99 0 00-1.845-1.329 2.481 2.481 0 00-1.781-.109c-.226.1-.452.19-.678.289a1.155 1.155 0 00-.678 1.167 3.119 3.119 0 00.832 1.763 5.02 5.02 0 001.844 1.329z" fill="#f3f3f3"/><path data-name="Path 67" d="M23.131 94.773c-2.243.959 1.537 5.335 3.78 4.377s-1.537-5.344-3.78-4.377z" fill="#f3f3f3"/><path data-name="Path 68" d="M37.519 92.096c-2.243.959 1.537 5.335 3.78 4.377s-1.537-5.344-3.78-4.377z" fill="#f3f3f3"/><path data-name="Path 69" d="M.686 75.253c-2.243.959 1.537 5.335 3.78 4.377s-1.537-5.349-3.78-4.377z" fill="#f3f3f3"/><path data-name="Path 70" d="M26.088 83.17c2.243-.959-1.537-5.335-3.78-4.377s1.538 5.336 3.78 4.377z" fill="#f3f3f3"/><path data-name="Path 71" d="M14.043 39.184c-2.243.959 1.537 5.335 3.78 4.377s-1.537-5.344-3.78-4.377z" fill="#f3f3f3"/><path data-name="Path 72" d="M37.175 49.232c-.136-.154-.271-.317-.407-.47-2.433-2.812-5.914-1.329-3.482 1.492.136.154.271.317.407.47 2.433 2.812 5.924 1.32 3.482-1.492z" fill="#f3f3f3"/><path data-name="Path 73" d="M34.779 23.449c2.243-.959-1.537-5.335-3.78-4.377s1.538 5.345 3.78 4.377z" fill="#f3f3f3"/><path data-name="Path 74" d="M61.51 7.159c-2.243.959 1.537 5.335 3.78 4.377s-1.537-5.349-3.78-4.377z" fill="#f3f3f3"/><path data-name="Path 75" d="M112.541 15.735c2.243-.959-1.537-5.335-3.78-4.377s1.537 5.345 3.78 4.377z" fill="#f3f3f3"/><path data-name="Path 76" d="M176.178 56.077c2.243-.959-1.537-5.335-3.78-4.377s1.537 5.345 3.78 4.377z" fill="#f3f3f3"/><path data-name="Path 77" d="M189.498 47.866a1.143 1.143 0 00-.678 1.167 3.179 3.179 0 00.832 1.763c.244.28.488.57.732.85a5.094 5.094 0 001.845 1.329 2.391 2.391 0 001.781.109 1.143 1.143 0 00.678-1.167 3.18 3.18 0 00-.832-1.763c-.244-.28-.488-.57-.733-.85a5.094 5.094 0 00-1.845-1.329 2.483 2.483 0 00-1.78-.109z" fill="#f3f3f3"/><path data-name="Path 78" d="M146.941 25.475c2.243-.959-1.537-5.335-3.78-4.377s1.538 5.336 3.78 4.377z" fill="#f3f3f3"/><path data-name="Path 79" d="M177.19 77.645c-2.243.959 1.537 5.335 3.78 4.377s-1.537-5.344-3.78-4.377z" fill="#f3f3f3"/><path data-name="Path 80" d="M107.865 101.569c-2.243.959 1.537 5.335 3.78 4.377s-1.537-5.349-3.78-4.377z" fill="#f3f3f3"/><path data-name="Path 81" d="M224.757 72.553c2.243-.959-1.537-5.335-3.78-4.377s1.538 5.345 3.78 4.377z" fill="#f3f3f3"/><path data-name="Path 82" d="M192.554 80.377c-2.243.959 1.537 5.335 3.78 4.377s-1.537-5.336-3.78-4.377z" fill="#f3f3f3"/><path data-name="Path 83" d="M177.22 35.811c2.243-.959-1.537-5.335-3.78-4.377s1.535 5.336 3.78 4.377z" fill="#f3f3f3"/><path data-name="Path 84" d="M214.568 51.108c-2.243.959 1.537 5.335 3.78 4.377s-1.54-5.34-3.78-4.377z" fill="#f3f3f3"/><path data-name="Path 85" d="M206.201 69.145a2.481 2.481 0 001.781.109c.226-.1.452-.19.678-.289a1.155 1.155 0 00.678-1.167 3.119 3.119 0 00-.832-1.763 4.99 4.99 0 00-1.845-1.329 2.481 2.481 0 00-1.781-.109c-.226.1-.452.19-.678.289a1.156 1.156 0 00-.678 1.167 3.119 3.119 0 00.832 1.763 4.89 4.89 0 001.845 1.329z" fill="#f3f3f3"/><path data-name="Path 86" d="M200.25 39.917c2.243-.959-1.537-5.335-3.78-4.377s1.538 5.336 3.78 4.377z" fill="#f3f3f3"/><path data-name="Path 87" d="M165.949 18.484c2.243-.959-1.537-5.335-3.78-4.377s1.538 5.336 3.78 4.377z" fill="#f3f3f3"/><path data-name="Path 88" d="M128.547 17.535c-.244-.28-.488-.57-.733-.85a5.094 5.094 0 00-1.845-1.329 2.391 2.391 0 00-1.782-.109 1.143 1.143 0 00-.678 1.167 3.18 3.18 0 00.832 1.763c.244.28.488.57.732.85a5.1 5.1 0 001.845 1.329 2.391 2.391 0 001.781.109 1.143 1.143 0 00.678-1.167 3.271 3.271 0 00-.83-1.763z" fill="#f3f3f3"/><path data-name="Path 89" d="M130.817 7.895c2.243-.959-1.537-5.335-3.78-4.377s1.538 5.345 3.78 4.377z" fill="#f3f3f3"/><path data-name="Path 90" d="M83.286.137c-2.243.959 1.537 5.335 3.78 4.377S85.529-.822 83.286.137z" fill="#f3f3f3"/><path data-name="Path 91" d="M79.624 22.265a2.065 2.065 0 001.438-.018c2.243-.959-1.537-5.335-3.78-4.377-1.42.606-.425 2.586 1.067 3.708a4 4 0 001.275.687z" fill="#f3f3f3"/><path data-name="Path 93" d="M185.057 23.241c.244.28.488.57.732.85a5.094 5.094 0 001.845 1.329 2.391 2.391 0 001.781.109 1.143 1.143 0 00.678-1.167 3.179 3.179 0 00-.832-1.763c-.244-.28-.488-.57-.733-.85a5.094 5.094 0 00-1.845-1.329 2.391 2.391 0 00-1.781-.109 1.143 1.143 0 00-.678 1.167 3.308 3.308 0 00.833 1.763z" fill="#f3f3f3"/><path data-name="Path 96" d="M76.865 102.026c-2.243.959 1.537 5.335 3.78 4.377s-1.537-5.336-3.78-4.377z" fill="#f3f3f3"/><path data-name="Path 97" d="M55.596 89.998c.226-.1.452-.19.678-.289a1.156 1.156 0 00.678-1.167 3.161 3.161 0 00-.823-1.763 4.991 4.991 0 00-1.842-1.329 2.481 2.481 0 00-1.782-.109c-.226.1-.452.19-.678.289a1.155 1.155 0 00-.678 1.167 3.119 3.119 0 00.832 1.763 4.99 4.99 0 001.845 1.329 2.554 2.554 0 001.77.109z" fill="#f3f3f3"/><path data-name="Path 98" d="M217.757 37.177c2.243-.959-1.537-5.335-3.78-4.377s1.538 5.336 3.78 4.377z" fill="#f3f3f3"/><path data-name="Path 99" d="M89.2 67.046c.244.28.488.57.732.85a5.1 5.1 0 001.846 1.334 2.391 2.391 0 001.782.109 1.143 1.143 0 00.678-1.167 3.179 3.179 0 00-.832-1.763c-.244-.28-.488-.57-.732-.85a5.1 5.1 0 00-1.845-1.329 2.391 2.391 0 00-1.782-.109 1.143 1.143 0 00-.678 1.167 3.308 3.308 0 00.831 1.758z" fill="#f3f3f3"/><path data-name="Path 101" d="M204.582 22.726c.244.28.488.57.732.85a5.1 5.1 0 001.845 1.329 2.391 2.391 0 001.781.109 1.143 1.143 0 00.678-1.167 3.18 3.18 0 00-.832-1.763c-.244-.28-.488-.57-.732-.85a5.1 5.1 0 00-1.845-1.329 2.391 2.391 0 00-1.781-.109 1.143 1.143 0 00-.678 1.167 3.243 3.243 0 00.832 1.763z" fill="#f3f3f3"/><path data-name="Path 102" d="M198.27 101.654c-2.433-2.812-5.914-1.329-3.482 1.492.136.154.271.307.407.47 2.433 2.812 5.914 1.329 3.482-1.492-.135-.153-.271-.32-.407-.47z" fill="#f3f3f3"/><path data-name="Path 103" d="M204.563 53.193c-2.243.959 1.537 5.335 3.78 4.377s-1.537-5.336-3.78-4.377z" fill="#f3f3f3"/><path data-name="Path 104" d="M235.129 63.999c2.243-.959-1.537-5.335-3.78-4.377s1.538 5.336 3.78 4.377z" fill="#f3f3f3"/><path data-name="Path 105" d="M215.515 79.922c2.243-.959-1.537-5.335-3.78-4.377s1.533 5.347 3.78 4.377z" fill="#f3f3f3"/><path data-name="Path 106" d="M206.915 90.93c-2.243.959 1.537 5.335 3.78 4.377s-1.537-5.336-3.78-4.377z" fill="#f3f3f3"/><path data-name="Path 109" d="M223.545 86.436c-2.243.959 1.537 5.335 3.78 4.377s-1.537-5.336-3.78-4.377z" fill="#f3f3f3"/><path data-name="Path 110" d="M230.436 32.445c2.243-.959-1.537-5.335-3.78-4.377s1.533 5.338 3.78 4.377z" fill="#f3f3f3"/><path data-name="Path 112" d="M80.709 82.971c2.243-.958-1.537-5.335-3.777-4.372s1.535 5.34 3.777 4.372z" fill="#f3f3f3"/><path data-name="Path 114" d="M174.604 100.434a3.223 3.223 0 00-.823-1.763c-.244-.28-.488-.57-.733-.85a5.094 5.094 0 00-1.845-1.329 2.391 2.391 0 00-1.782-.109 1.143 1.143 0 00-.678 1.167 3.18 3.18 0 00.832 1.763c.244.28.488.57.733.85a5.1 5.1 0 001.845 1.329 2.391 2.391 0 001.781.109 1.149 1.149 0 00.67-1.167z" fill="#f3f3f3"/></svg>