<svg xmlns="http://www.w3.org/2000/svg" width="346.125" height="356.467" viewBox="0 0 346.125 356.467">
  <g id="Group_255" data-name="Group 255" transform="translate(-1209.529 -510.942)" opacity="0.862">
    <path id="Path_263" data-name="Path 263" d="M106.749.747C22.625-6.393-22.132,37.926,10.943,120.874s58.982,166.88,119.825,146.745c60.815-20.135,110.086-57.45,104.095-116.871S176.975,6.739,106.749.747Z" transform="matrix(-0.839, 0.545, -0.545, -0.839, 1554.955, 738.519)" fill="none" stroke="#fff" stroke-miterlimit="10" stroke-width="1" opacity="0.701"/>
    <path id="Path_262" data-name="Path 262" d="M106.749.747C22.625-6.393-22.132,37.926,10.943,120.874s58.982,166.88,119.825,146.745c60.815-20.135,110.086-57.45,104.095-116.871S176.975,6.739,106.749.747Z" transform="matrix(-0.94, 0.342, -0.342, -0.94, 1539.425, 776.034)" fill="none" stroke="#fff" stroke-miterlimit="10" stroke-width="1" opacity="0.701"/>
    <path id="Path_171" data-name="Path 171" d="M106.749.747C22.625-6.393-22.132,37.926,10.943,120.874s58.982,166.88,119.825,146.745c60.815-20.135,110.086-57.45,104.095-116.871S176.975,6.739,106.749.747Z" transform="translate(1548.264 765.893) rotate(158)" fill="none" stroke="#fff" stroke-miterlimit="10" stroke-width="1" opacity="0.701"/>
  </g>
</svg>
