<svg xmlns="http://www.w3.org/2000/svg" width="346.125" height="356.467"><g data-name="Group 262" fill="none" stroke="#a3a3a3" stroke-miterlimit="10"><path data-name="Path 365" d="M255.456 285.13c74.472-39.858 87.87-101.434 14.912-153.001S129.933 24.262 89.86 74.314c-40.05 50.038-61.052 108.198-23.64 154.787s127.052 89.274 189.237 56.028z" opacity=".701" stroke-width="1.00047"/><path data-name="Path 366" d="M229.296 300.899c81.519-22.059 108.433-79.026 48.975-145.685S165.755 18.519 115.448 58.254c-50.28 39.725-83.833 91.652-57.879 145.459s103.666 115.57 171.727 97.186z" opacity=".701" stroke-width="1.00028"/><path data-name="Path 367" d="M239.48 294.248c80.672-24.893 105.568-82.751 43.829-147.27S166.107 14.347 117.237 55.808c-48.844 41.45-80.549 94.505-52.734 147.355S172.123 315 239.479 294.248z" opacity=".701"/></g></svg>