<svg xmlns="http://www.w3.org/2000/svg" width="79.649" height="77.725"><g opacity=".691" fill="#fff"><path d="M45.791 59.954a.729.729 0 11-.729.729.719.719 0 01.729-.729zM40.657 21.586a.726.726 0 01.729.729.729.729 0 11-1.457 0 .726.726 0 01.728-.729zM75.403 33.335a.734.734 0 01.729.729.726.726 0 01-.729.729.734.734 0 01-.729-.729.726.726 0 01.729-.729zM30.501 73.57a.734.734 0 01.729.729.729.729 0 11-.729-.729zM61.047 52.314a.729.729 0 11-.729.729.726.726 0 01.729-.729zM54.307 21.199a.726.726 0 01.729.729.729.729 0 11-.729-.729zM22.998 7.025a.729.729 0 11-.729.729.734.734 0 01.729-.729zM47.602 3.416a.729.729 0 11-.729.729.726.726 0 01.729-.729z"/><circle cx=".729" cy=".729" transform="translate(29.328 36.125)" r=".729"/><path d="M3.314 50.982a.729.729 0 11-.729.729.726.726 0 01.729-.729zM76.292 25.298a.734.734 0 01.729.729.726.726 0 01-.729.729.729.729 0 110-1.457zM52.872 15.222a.729.729 0 11-.729.729.734.734 0 01.729-.729zM31.002 9.051a.734.734 0 01.729.729.726.726 0 01-.729.729.734.734 0 01-.729-.729.719.719 0 01.729-.729zM31.104 23.852a.734.734 0 01.729.729.726.726 0 01-.729.729.729.729 0 110-1.457zM41.419 62.242a.734.734 0 01.729.729.726.726 0 01-.729.729.734.734 0 01-.729-.729.726.726 0 01.729-.729zM78.921 38.276a.729.729 0 11-.729.729.734.734 0 01.729-.729zM25.685 73.934a.729.729 0 010 1.457.734.734 0 01-.729-.729.719.719 0 01.729-.728zM60.762 33.244a.729.729 0 11-.729.729.726.726 0 01.729-.729zM45.7 67.149a.734.734 0 01.729.729.726.726 0 01-.729.729.729.729 0 010-1.457zM57.95 60.045a.729.729 0 11-.729.729.726.726 0 01.729-.729zM14.061 62.845a.729.729 0 11-.729.729.734.734 0 01.729-.729zM19.14 70.678a.729.729 0 11-.729.729.726.726 0 01.729-.729zM55.411 3.928a.729.729 0 110 1.457.729.729 0 010-1.457zM31.081 55.024a.729.729 0 11-.729.729.726.726 0 01.729-.729zM45.87 26.038a.729.729 0 11-.729.729.734.734 0 01.729-.729zM27.404 22.394a.729.729 0 11-.729.729.726.726 0 01.729-.729zM45.461 30.91a.729.729 0 11-.729.729.719.719 0 01.729-.729zM54.921 13.514a.729.729 0 010 1.457.734.734 0 01-.729-.727.712.712 0 01.729-.73zM2.471 43.605a.729.729 0 11-.729.729.726.726 0 01.729-.729zM42.876 36.546a.729.729 0 11-.729.729.719.719 0 01.729-.729zM50.834 68.265a.729.729 0 11-.729.729.726.726 0 01.729-.729zM35.67 57.267a.734.734 0 01.729.729.726.726 0 01-.729.729.729.729 0 010-1.457zM53.453 54.318a.734.734 0 01.729.729.726.726 0 01-.729.729.734.734 0 01-.729-.729.719.719 0 01.729-.729zM34.759 41.259a.729.729 0 11-.729.729.712.712 0 01.729-.729zM11.17 21.142a.734.734 0 01.729.729.726.726 0 01-.729.729.729.729 0 110-1.457z"/><circle cx=".729" cy=".729" transform="translate(31.058 .011)" r=".729"/><path d="M17.556 18.74a.729.729 0 11-.729.729.726.726 0 01.729-.729zM14.71 48.432a.729.729 0 11-.729.729.734.734 0 01.729-.729zM59.384 39.631a.729.729 0 11-.729.729.726.726 0 01.729-.729zM27.78 17.351a.729.729 0 010 1.457.729.729 0 010-1.457zM51.916 36.557a.729.729 0 11-.729.729.719.719 0 01.729-.729zM16.418 24.774a.729.729 0 110 1.457.729.729 0 110-1.457zM26.231 37.343a.729.729 0 11-.729.729.726.726 0 01.729-.729zM42.17 16.747a.734.734 0 01.729.729.726.726 0 01-.729.729.734.734 0 01-.729-.729.712.712 0 01.729-.729zM71.043 25.446a.729.729 0 010 1.457.726.726 0 01-.729-.729.734.734 0 01.729-.728zM55.878 10.099a.726.726 0 01.731.73.729.729 0 11-.729-.729zM5.112 31.263a.729.729 0 11-.729.729.734.734 0 01.729-.729zM63.494 23.237a.729.729 0 010 1.457.726.726 0 01-.729-.729.712.712 0 01.729-.728zM71.316 38.516a.729.729 0 11-.729.729.734.734 0 01.729-.729zM12.376 37.571a.729.729 0 11-.729.729.726.726 0 01.729-.729zM48.922 72.466a.729.729 0 11-.729.729.719.719 0 01.729-.729zM58.485 15.62a.729.729 0 11-.729.729.734.734 0 01.729-.729zM37.821 74.014a.729.729 0 11-.729.729.734.734 0 01.729-.729zM56.299 49.753a.729.729 0 11-.729.729.712.712 0 01.729-.729zM76.712 44.584a.729.729 0 11-.729.729.726.726 0 01.729-.729zM36.17 17.226a.729.729 0 010 1.457.734.734 0 01-.729-.729.726.726 0 01.729-.728zM15.416 29.863a.729.729 0 11-.729.729.734.734 0 01.729-.729zM34.623 27.062a.729.729 0 11-.729.729.726.726 0 01.729-.729zM61.036 55.969a.729.729 0 010 1.457.726.726 0 01-.729-.729.734.734 0 01.729-.728zM20.698 3.928a.734.734 0 01.731.729.729.729 0 11-.729-.729zM8.402 46.394a.729.729 0 11-.729.729.734.734 0 01.729-.729zM45.631 37.958a.729.729 0 11-.729.729.734.734 0 01.729-.729zM67.206 14.664a.729.729 0 11-.729.729.734.734 0 01.729-.729zM60.91 58.929a.729.729 0 11-.729.729.734.734 0 01.729-.729zM6.831 41.009a.734.734 0 01.729.729.726.726 0 01-.729.729.729.729 0 110-1.457zM30.205 61.183a.729.729 0 110 1.457.726.726 0 01-.729-.729.734.734 0 01.729-.728zM62.902 67.866a.729.729 0 11-.729.729.726.726 0 01.729-.729zM35.601 10.873a.729.729 0 11-.729.729.726.726 0 01.729-.729zM44.481 71.008a.734.734 0 01.729.729.726.726 0 01-.729.729.734.734 0 01-.729-.729.726.726 0 01.729-.729zM66.443 60.511a.729.729 0 010 1.457.729.729 0 110-1.457zM1.674 36.876a.729.729 0 010 1.457.734.734 0 01-.729-.729.726.726 0 01.729-.728zM54.751 41.954a.729.729 0 11-.729.729.734.734 0 01.729-.729zM24.592 12.774a.734.734 0 01.729.729.726.726 0 01-.729.729.729.729 0 010-1.457zM32.311 3.598a.734.734 0 01.729.729.726.726 0 01-.729.729.734.734 0 01-.729-.729.719.719 0 01.729-.729zM70.109 31.127a.729.729 0 11-.729.729.719.719 0 01.729-.729zM14.38 56.185a.729.729 0 11-.729.729.726.726 0 01.729-.729zM64.849 41.737a.729.729 0 11-.729.729.719.719 0 01.729-.729zM30.99 45.722a.729.729 0 11-.729.729.734.734 0 01.729-.729zM69.062 44.458a.729.729 0 110 1.457.726.726 0 01-.729-.729.712.712 0 01.729-.728zM19.936 59.783a.729.729 0 11-.729.729.726.726 0 01.729-.729zM49.035 14.174a.729.729 0 11-.729.729.734.734 0 01.729-.729zM12.091 51.301a.729.729 0 11-.729.729.726.726 0 01.729-.729zM33.95 71.168a.729.729 0 010 1.457.729.729 0 010-1.457zM44.049 28.121a.729.729 0 11-.729.729.734.734 0 01.729-.729zM65.225 36.774a.729.729 0 010 1.457.729.729 0 110-1.457zM63.517 10.11a.729.729 0 11-.729.729.712.712 0 01.729-.729zM19.491 14.254a.729.729 0 010 1.457.729.729 0 010-1.457zM22.577 21.199a.729.729 0 11-.729.729.734.734 0 01.729-.729zM.729 29.385a.726.726 0 01.729.729.734.734 0 01-.729.729.717.717 0 01-.729-.718.736.736 0 01.729-.74zM47.931 31.753a.729.729 0 010 1.457.729.729 0 010-1.457zM47.464 21.962a.726.726 0 01.729.729.729.729 0 11-.729-.729zM26.505 65.988a.729.729 0 010 1.457.729.729 0 010-1.457zM11.044 33.722a.729.729 0 11-.729.729.712.712 0 01.729-.729zM54.375 64.496a.729.729 0 010 1.457.734.734 0 01-.729-.729.726.726 0 01.729-.728zM40.36 28.007a.734.734 0 01.729.729.726.726 0 01-.729.729.729.729 0 010-1.457zM51.426.307a.734.734 0 01.728.73.734.734 0 01-.729.729.729.729 0 010-1.457zM52.986 26.163a.726.726 0 01.729.729.729.729 0 11-1.457 0 .719.719 0 01.728-.729zM21.723 66.249a.729.729 0 110 1.457.734.734 0 01-.729-.729.719.719 0 01.729-.728zM39.222 68.959a.734.734 0 01.729.729.726.726 0 01-.729.729.729.729 0 010-1.457zM20.186 36.671a.729.729 0 11-.729.729.734.734 0 01.729-.729zM60.42 26.584a.729.729 0 010 1.457.729.729 0 110-1.457zM51.587 76.268a.729.729 0 11-.729.729.726.726 0 01.729-.729zM64.77 30.648a.729.729 0 010 1.457.729.729 0 110-1.457zM50.709 49.104a.729.729 0 010 1.457.729.729 0 110-1.457zM12.262 41.692a.729.729 0 110 1.457.726.726 0 01-.729-.729.712.712 0 01.729-.728zM18.546 41.396a.729.729 0 010 1.457.734.734 0 01-.729-.729.712.712 0 01.729-.728zM14.676 13.366a.726.726 0 01.729.729.729.729 0 11-1.457 0 .726.726 0 01.728-.729zM26.527 55.103a.726.726 0 01.729.729.729.729 0 11-1.457 0 .726.726 0 01.728-.729zM31.605 14.106a.734.734 0 01.729.729.726.726 0 01-.729.729.734.734 0 01-.729-.729.719.719 0 01.729-.729zM53.624 59.361a.726.726 0 01.729.729.729.729 0 11-.729-.729zM65.954 48.83a.734.734 0 01.729.729.729.729 0 11-.729-.729zM36.91 64.94a.729.729 0 11-.729.729.734.734 0 01.729-.729zM64.452 62.731a.729.729 0 010 1.457.729.729 0 010-1.457zM38.573 39.688a.729.729 0 11-.729.729.726.726 0 01.729-.729zM46.485 52.974a.729.729 0 11-.729.729.719.719 0 01.729-.729zM35.544 48.625a.726.726 0 01.729.729.729.729 0 11-1.457 0 .719.719 0 01.728-.729zM36.296 53.658a.729.729 0 11-.729.729.734.734 0 01.729-.729zM15.973 66.158a.734.734 0 01.729.729.726.726 0 01-.729.729.729.729 0 010-1.457zM32.88 35.225a.729.729 0 010 1.457.729.729 0 010-1.457zM31.411 76.268a.729.729 0 010 1.457.729.729 0 110-1.457zM39.291 8.778a.729.729 0 11-.729.729.726.726 0 01.729-.729zM37.776 1.343a.726.726 0 01.731.729.729.729 0 11-1.457 0 .726.726 0 01.726-.729zM76.792 52.018a.729.729 0 010 1.457.734.734 0 01-.729-.729.726.726 0 01.729-.728zM7.299 52.121a.729.729 0 11-.729.729.734.734 0 01.729-.729zM23.932 41.931a.729.729 0 11-.729.729.719.719 0 01.729-.729zM6.239 36.455a.734.734 0 01.729.729.726.726 0 01-.729.729.734.734 0 01-.729-.729.726.726 0 01.729-.729zM67.001 19.605a.734.734 0 01.729.729.726.726 0 01-.729.729.729.729 0 010-1.457zM25.48 3.199a.734.734 0 01.729.729.726.726 0 01-.729.729.734.734 0 01-.729-.729.726.726 0 01.729-.729zM51.335 7.423a.726.726 0 01.729.729.729.729 0 11-.729-.729zM23.442 59.771a.734.734 0 01.729.729.726.726 0 01-.729.729.734.734 0 01-.729-.729.726.726 0 01.729-.729zM46.519 47.555a.729.729 0 110 1.457.729.729 0 010-1.457zM44.595 12.922a.726.726 0 01.729.729.729.729 0 11-.729-.729zM51.802 46.223a.729.729 0 010 1.457.729.729 0 010-1.457zM16.213 8.414a.729.729 0 11-.729.729.734.734 0 01.729-.729zM8.744 26.39a.729.729 0 11-.729.729.734.734 0 01.729-.729zM9.495 16.417a.729.729 0 010 1.457.726.726 0 01-.729-.729.734.734 0 01.729-.728zM55.673 33.472a.729.729 0 11-.729.729.734.734 0 01.729-.729zM67.388 65.908a.726.726 0 01.729.729.729.729 0 11-.729-.729zM12.216 10.52a.729.729 0 11-.729.729.726.726 0 01.729-.729zM28.691 31.958a.729.729 0 110 1.457.734.734 0 01-.729-.729.726.726 0 01.729-.728zM57.711 68.196a.729.729 0 010 1.457.729.729 0 010-1.457zM41.578 5.169a.729.729 0 11-.729.729.734.734 0 01.729-.729zM24.319 28.474a.729.729 0 11-.729.729.734.734 0 01.729-.729zM22.042 48.181a.729.729 0 010 1.457.729.729 0 010-1.457zM50.083 62.652a.734.734 0 01.729.729.726.726 0 01-.729.729.729.729 0 110-1.457zM5.943 20.379a.734.734 0 01.729.729.729.729 0 11-.729-.729zM37.821 32.743a.729.729 0 11-.729.729.726.726 0 01.729-.729zM22.691 52.792a.734.734 0 01.729.729.726.726 0 01-.729.729.729.729 0 010-1.457zM61.354 6.455a.729.729 0 11-.729.729.734.734 0 01.729-.729zM4.258 24.751a.729.729 0 11-.729.729.719.719 0 01.729-.729zM27.575 48.261a.726.726 0 01.729.729.729.729 0 11-.729-.729zM41.863 56.356a.734.734 0 01.729.729.726.726 0 01-.729.729.729.729 0 010-1.457zM71.874 60.022a.729.729 0 11-.729.729.719.719 0 01.729-.729zM42.945 0a.734.734 0 01.729.729.729.729 0 01-1.457 0A.734.734 0 0142.945 0zM74.243 21.29a.729.729 0 010 1.457.726.726 0 01-.729-.729.734.734 0 01.729-.728zM76.712 47.885a.729.729 0 11-.729.729.719.719 0 01.729-.729zM7.617 57.494a.729.729 0 11-.729.729.712.712 0 01.729-.729zM42.352 44.47a.734.734 0 01.729.729.726.726 0 01-.729.729.734.734 0 01-.729-.729.726.726 0 01.729-.729zM78.705 30.774a.726.726 0 01.729.729.729.729 0 11-1.457 0 .726.726 0 01.728-.729zM71.612 49.206a.729.729 0 11-.729.729.712.712 0 01.729-.729zM71.055 56.242a.729.729 0 11-.729.729.719.719 0 01.729-.729zM63.563 17.84a.729.729 0 11-.729.729.734.734 0 01.729-.729zM41.226 50.356a.729.729 0 11-.729.729.734.734 0 01.729-.729z"/></g></svg>