<svg xmlns="http://www.w3.org/2000/svg" width="79.649" height="77.725" viewBox="0 0 79.649 77.725">
  <g id="XMLID_1_" opacity="0.691">
    <path id="XMLID_164_" d="M40.309,52.66a.729.729,0,1,1-.729.729A.719.719,0,0,1,40.309,52.66Z" transform="translate(5.482 7.294)" fill="#fff"/>
    <path id="XMLID_163_" d="M35.8,18.96a.726.726,0,0,1,.729.729.729.729,0,1,1-1.457,0A.726.726,0,0,1,35.8,18.96Z" transform="translate(4.857 2.626)" fill="#fff"/>
    <path id="XMLID_162_" d="M66.319,29.28a.734.734,0,0,1,.729.729.726.726,0,0,1-.729.729.734.734,0,0,1-.729-.729A.726.726,0,0,1,66.319,29.28Z" transform="translate(9.084 4.055)" fill="#fff"/>
    <path id="XMLID_161_" d="M26.879,64.62a.734.734,0,0,1,.729.729.729.729,0,1,1-.729-.729Z" transform="translate(3.622 8.95)" fill="#fff"/>
    <path id="XMLID_160_" d="M53.709,45.95a.729.729,0,1,1-.729.729A.726.726,0,0,1,53.709,45.95Z" transform="translate(7.338 6.364)" fill="#fff"/>
    <path id="XMLID_159_" d="M47.789,18.62a.726.726,0,0,1,.729.729.729.729,0,1,1-.729-.729Z" transform="translate(6.518 2.579)" fill="#fff"/>
    <path id="XMLID_158_" d="M20.289,6.17a.729.729,0,1,1-.729.729A.734.734,0,0,1,20.289,6.17Z" transform="translate(2.709 0.855)" fill="#fff"/>
    <path id="XMLID_157_" d="M41.9,3a.729.729,0,1,1-.729.729A.726.726,0,0,1,41.9,3Z" transform="translate(5.702 0.416)" fill="#fff"/>
    <ellipse id="XMLID_156_" cx="0.729" cy="0.729" rx="0.729" ry="0.729" transform="translate(29.328 36.125)" fill="#fff"/>
    <path id="XMLID_155_" d="M3,44.78a.729.729,0,1,1-.729.729A.726.726,0,0,1,3,44.78Z" transform="translate(0.314 6.202)" fill="#fff"/>
    <path id="XMLID_154_" d="M67.1,22.22a.734.734,0,0,1,.729.729.726.726,0,0,1-.729.729.729.729,0,1,1,0-1.457Z" transform="translate(9.192 3.078)" fill="#fff"/>
    <path id="XMLID_153_" d="M46.529,13.37a.729.729,0,1,1-.729.729A.734.734,0,0,1,46.529,13.37Z" transform="translate(6.343 1.852)" fill="#fff"/>
    <path id="XMLID_152_" d="M27.319,7.95a.734.734,0,0,1,.729.729.726.726,0,0,1-.729.729.734.734,0,0,1-.729-.729A.719.719,0,0,1,27.319,7.95Z" transform="translate(3.683 1.101)" fill="#fff"/>
    <path id="XMLID_151_" d="M27.409,20.95a.734.734,0,0,1,.729.729.726.726,0,0,1-.729.729.729.729,0,1,1,0-1.457Z" transform="translate(3.695 2.902)" fill="#fff"/>
    <path id="XMLID_150_" d="M36.469,54.67a.734.734,0,0,1,.729.729.726.726,0,0,1-.729.729.734.734,0,0,1-.729-.729A.726.726,0,0,1,36.469,54.67Z" transform="translate(4.95 7.572)" fill="#fff"/>
    <path id="XMLID_149_" d="M69.409,33.62a.729.729,0,1,1-.729.729A.734.734,0,0,1,69.409,33.62Z" transform="translate(9.512 4.656)" fill="#fff"/>
    <path id="XMLID_148_" d="M22.649,64.94a.729.729,0,0,1,0,1.457.734.734,0,0,1-.729-.729A.719.719,0,0,1,22.649,64.94Z" transform="translate(3.036 8.994)" fill="#fff"/>
    <path id="XMLID_147_" d="M53.459,29.2a.729.729,0,1,1-.729.729A.726.726,0,0,1,53.459,29.2Z" transform="translate(7.303 4.044)" fill="#fff"/>
    <path id="XMLID_146_" d="M40.229,58.98a.734.734,0,0,1,.729.729.726.726,0,0,1-.729.729.729.729,0,0,1,0-1.457Z" transform="translate(5.471 8.169)" fill="#fff"/>
    <path id="XMLID_145_" d="M50.989,52.74a.729.729,0,1,1-.729.729A.726.726,0,0,1,50.989,52.74Z" transform="translate(6.961 7.305)" fill="#fff"/>
    <path id="XMLID_144_" d="M12.439,55.2a.729.729,0,1,1-.729.729A.734.734,0,0,1,12.439,55.2Z" transform="translate(1.622 7.645)" fill="#fff"/>
    <path id="XMLID_143_" d="M16.9,62.08a.729.729,0,1,1-.729.729A.726.726,0,0,1,16.9,62.08Z" transform="translate(2.24 8.598)" fill="#fff"/>
    <path id="XMLID_142_" d="M48.759,3.45a.729.729,0,1,1,0,1.457.729.729,0,0,1,0-1.457Z" transform="translate(6.652 0.478)" fill="#fff"/>
    <path id="XMLID_141_" d="M27.389,48.33a.729.729,0,1,1-.729.729A.726.726,0,0,1,27.389,48.33Z" transform="translate(3.692 6.694)" fill="#fff"/>
    <path id="XMLID_140_" d="M40.379,22.87a.729.729,0,1,1-.729.729A.734.734,0,0,1,40.379,22.87Z" transform="translate(5.491 3.168)" fill="#fff"/>
    <path id="XMLID_139_" d="M24.159,19.67a.729.729,0,1,1-.729.729A.726.726,0,0,1,24.159,19.67Z" transform="translate(3.245 2.724)" fill="#fff"/>
    <path id="XMLID_138_" d="M40.019,27.15a.729.729,0,1,1-.729.729A.719.719,0,0,1,40.019,27.15Z" transform="translate(5.442 3.76)" fill="#fff"/>
    <path id="XMLID_137_" d="M48.329,11.87a.729.729,0,0,1,0,1.457A.734.734,0,0,1,47.6,12.6.712.712,0,0,1,48.329,11.87Z" transform="translate(6.592 1.644)" fill="#fff"/>
    <path id="XMLID_136_" d="M2.259,38.3a.729.729,0,1,1-.729.729A.726.726,0,0,1,2.259,38.3Z" transform="translate(0.212 5.305)" fill="#fff"/>
    <path id="XMLID_135_" d="M37.749,32.1a.729.729,0,1,1-.729.729A.719.719,0,0,1,37.749,32.1Z" transform="translate(5.127 4.446)" fill="#fff"/>
    <path id="XMLID_134_" d="M44.739,59.96a.729.729,0,1,1-.729.729A.726.726,0,0,1,44.739,59.96Z" transform="translate(6.095 8.305)" fill="#fff"/>
    <path id="XMLID_133_" d="M31.419,50.3a.734.734,0,0,1,.729.729.726.726,0,0,1-.729.729.729.729,0,0,1,0-1.457Z" transform="translate(4.251 6.967)" fill="#fff"/>
    <path id="XMLID_132_" d="M47.039,47.71a.734.734,0,0,1,.729.729.726.726,0,0,1-.729.729.734.734,0,0,1-.729-.729A.719.719,0,0,1,47.039,47.71Z" transform="translate(6.414 6.608)" fill="#fff"/>
    <path id="XMLID_131_" d="M30.619,36.24a.729.729,0,1,1-.729.729A.712.712,0,0,1,30.619,36.24Z" transform="translate(4.14 5.019)" fill="#fff"/>
    <path id="XMLID_130_" d="M9.9,18.57a.734.734,0,0,1,.729.729.726.726,0,0,1-.729.729.729.729,0,1,1,0-1.457Z" transform="translate(1.27 2.572)" fill="#fff"/>
    <ellipse id="XMLID_129_" cx="0.729" cy="0.729" rx="0.729" ry="0.729" transform="translate(31.058 0.011)" fill="#fff"/>
    <path id="XMLID_128_" d="M15.509,16.46a.729.729,0,1,1-.729.729A.726.726,0,0,1,15.509,16.46Z" transform="translate(2.047 2.28)" fill="#fff"/>
    <path id="XMLID_127_" d="M13.009,42.54a.729.729,0,1,1-.729.729A.734.734,0,0,1,13.009,42.54Z" transform="translate(1.701 5.892)" fill="#fff"/>
    <path id="XMLID_126_" d="M52.249,34.81a.729.729,0,1,1-.729.729A.726.726,0,0,1,52.249,34.81Z" transform="translate(7.135 4.821)" fill="#fff"/>
    <path id="XMLID_125_" d="M24.489,15.24a.729.729,0,0,1,0,1.457.729.729,0,0,1,0-1.457Z" transform="translate(3.291 2.111)" fill="#fff"/>
    <path id="XMLID_124_" d="M45.689,32.11a.729.729,0,1,1-.729.729A.719.719,0,0,1,45.689,32.11Z" transform="translate(6.227 4.447)" fill="#fff"/>
    <path id="XMLID_123_" d="M14.509,21.76a.729.729,0,1,1,0,1.457.729.729,0,1,1,0-1.457Z" transform="translate(1.909 3.014)" fill="#fff"/>
    <path id="XMLID_122_" d="M23.129,32.8a.729.729,0,1,1-.729.729A.726.726,0,0,1,23.129,32.8Z" transform="translate(3.102 4.543)" fill="#fff"/>
    <path id="XMLID_121_" d="M37.129,14.71a.734.734,0,0,1,.729.729.726.726,0,0,1-.729.729.734.734,0,0,1-.729-.729A.712.712,0,0,1,37.129,14.71Z" transform="translate(5.041 2.037)" fill="#fff"/>
    <path id="XMLID_120_" d="M62.489,22.35a.729.729,0,0,1,0,1.457.726.726,0,0,1-.729-.729A.734.734,0,0,1,62.489,22.35Z" transform="translate(8.554 3.096)" fill="#fff"/>
    <path id="XMLID_119_" d="M49.169,8.87A.726.726,0,0,1,49.9,9.6a.729.729,0,1,1-.729-.729Z" transform="translate(6.709 1.229)" fill="#fff"/>
    <path id="XMLID_118_" d="M4.579,27.46a.729.729,0,1,1-.729.729A.734.734,0,0,1,4.579,27.46Z" transform="translate(0.533 3.803)" fill="#fff"/>
    <path id="XMLID_117_" d="M55.859,20.41a.729.729,0,0,1,0,1.457.726.726,0,0,1-.729-.729A.712.712,0,0,1,55.859,20.41Z" transform="translate(7.635 2.827)" fill="#fff"/>
    <path id="XMLID_116_" d="M62.729,33.83a.729.729,0,1,1-.729.729A.734.734,0,0,1,62.729,33.83Z" transform="translate(8.587 4.686)" fill="#fff"/>
    <path id="XMLID_115_" d="M10.959,33a.729.729,0,1,1-.729.729A.726.726,0,0,1,10.959,33Z" transform="translate(1.417 4.571)" fill="#fff"/>
    <path id="XMLID_114_" d="M43.059,63.65a.729.729,0,1,1-.729.729A.719.719,0,0,1,43.059,63.65Z" transform="translate(5.863 8.816)" fill="#fff"/>
    <path id="XMLID_113_" d="M51.459,13.72a.729.729,0,1,1-.729.729A.734.734,0,0,1,51.459,13.72Z" transform="translate(7.026 1.9)" fill="#fff"/>
    <path id="XMLID_112_" d="M33.309,65.01a.729.729,0,1,1-.729.729A.734.734,0,0,1,33.309,65.01Z" transform="translate(4.512 9.004)" fill="#fff"/>
    <path id="XMLID_111_" d="M49.539,43.7a.729.729,0,1,1-.729.729A.712.712,0,0,1,49.539,43.7Z" transform="translate(6.76 6.053)" fill="#fff"/>
    <path id="XMLID_110_" d="M67.469,39.16a.729.729,0,1,1-.729.729A.726.726,0,0,1,67.469,39.16Z" transform="translate(9.243 5.424)" fill="#fff"/>
    <path id="XMLID_109_" d="M31.859,15.13a.729.729,0,0,1,0,1.457.734.734,0,0,1-.729-.729A.726.726,0,0,1,31.859,15.13Z" transform="translate(4.311 2.096)" fill="#fff"/>
    <path id="XMLID_108_" d="M13.629,26.23a.729.729,0,1,1-.729.729A.734.734,0,0,1,13.629,26.23Z" transform="translate(1.787 3.633)" fill="#fff"/>
    <path id="XMLID_107_" d="M30.5,23.77a.729.729,0,1,1-.729.729A.726.726,0,0,1,30.5,23.77Z" transform="translate(4.123 3.292)" fill="#fff"/>
    <path id="XMLID_106_" d="M53.7,49.16a.729.729,0,0,1,0,1.457.726.726,0,0,1-.729-.729A.734.734,0,0,1,53.7,49.16Z" transform="translate(7.336 6.809)" fill="#fff"/>
    <path id="XMLID_105_" d="M18.269,3.45A.734.734,0,0,1,19,4.179a.729.729,0,1,1-.729-.729Z" transform="translate(2.429 0.478)" fill="#fff"/>
    <path id="XMLID_104_" d="M7.469,40.75a.729.729,0,1,1-.729.729A.734.734,0,0,1,7.469,40.75Z" transform="translate(0.933 5.644)" fill="#fff"/>
    <path id="XMLID_103_" d="M40.169,33.34a.729.729,0,1,1-.729.729A.734.734,0,0,1,40.169,33.34Z" transform="translate(5.462 4.618)" fill="#fff"/>
    <path id="XMLID_102_" d="M59.119,12.88a.729.729,0,1,1-.729.729A.734.734,0,0,1,59.119,12.88Z" transform="translate(8.087 1.784)" fill="#fff"/>
    <path id="XMLID_101_" d="M53.589,51.76a.729.729,0,1,1-.729.729A.734.734,0,0,1,53.589,51.76Z" transform="translate(7.321 7.169)" fill="#fff"/>
    <path id="XMLID_100_" d="M6.089,36.02a.734.734,0,0,1,.729.729.726.726,0,0,1-.729.729.729.729,0,1,1,0-1.457Z" transform="translate(0.742 4.989)" fill="#fff"/>
    <path id="XMLID_99_" d="M26.619,53.74a.729.729,0,1,1,0,1.457.726.726,0,0,1-.729-.729A.734.734,0,0,1,26.619,53.74Z" transform="translate(3.586 7.443)" fill="#fff"/>
    <path id="XMLID_98_" d="M55.339,59.61a.729.729,0,1,1-.729.729A.726.726,0,0,1,55.339,59.61Z" transform="translate(7.563 8.256)" fill="#fff"/>
    <path id="XMLID_97_" d="M31.359,9.55a.729.729,0,1,1-.729.729A.726.726,0,0,1,31.359,9.55Z" transform="translate(4.242 1.323)" fill="#fff"/>
    <path id="XMLID_96_" d="M39.159,62.37a.734.734,0,0,1,.729.729.726.726,0,0,1-.729.729.734.734,0,0,1-.729-.729A.726.726,0,0,1,39.159,62.37Z" transform="translate(5.322 8.638)" fill="#fff"/>
    <path id="XMLID_95_" d="M58.449,53.15a.729.729,0,0,1,0,1.457.729.729,0,1,1,0-1.457Z" transform="translate(7.994 7.361)" fill="#fff"/>
    <path id="XMLID_94_" d="M1.559,32.39a.729.729,0,0,1,0,1.457.734.734,0,0,1-.729-.729A.726.726,0,0,1,1.559,32.39Z" transform="translate(0.115 4.486)" fill="#fff"/>
    <path id="XMLID_93_" d="M48.179,36.85a.729.729,0,1,1-.729.729A.734.734,0,0,1,48.179,36.85Z" transform="translate(6.572 5.104)" fill="#fff"/>
    <path id="XMLID_92_" d="M21.689,11.22a.734.734,0,0,1,.729.729.726.726,0,0,1-.729.729.729.729,0,0,1,0-1.457Z" transform="translate(2.903 1.554)" fill="#fff"/>
    <path id="XMLID_91_" d="M28.469,3.16a.734.734,0,0,1,.729.729.726.726,0,0,1-.729.729.734.734,0,0,1-.729-.729A.719.719,0,0,1,28.469,3.16Z" transform="translate(3.842 0.438)" fill="#fff"/>
    <path id="XMLID_90_" d="M61.669,27.34a.729.729,0,1,1-.729.729A.719.719,0,0,1,61.669,27.34Z" transform="translate(8.44 3.787)" fill="#fff"/>
    <path id="XMLID_89_" d="M12.719,49.35a.729.729,0,1,1-.729.729A.726.726,0,0,1,12.719,49.35Z" transform="translate(1.661 6.835)" fill="#fff"/>
    <path id="XMLID_88_" d="M57.049,36.66a.729.729,0,1,1-.729.729A.719.719,0,0,1,57.049,36.66Z" transform="translate(7.8 5.077)" fill="#fff"/>
    <path id="XMLID_87_" d="M27.309,40.16a.729.729,0,1,1-.729.729A.734.734,0,0,1,27.309,40.16Z" transform="translate(3.681 5.562)" fill="#fff"/>
    <path id="XMLID_86_" d="M60.749,39.05a.729.729,0,1,1,0,1.457.726.726,0,0,1-.729-.729A.712.712,0,0,1,60.749,39.05Z" transform="translate(8.313 5.408)" fill="#fff"/>
    <path id="XMLID_85_" d="M17.6,52.51a.729.729,0,1,1-.729.729A.726.726,0,0,1,17.6,52.51Z" transform="translate(2.336 7.273)" fill="#fff"/>
    <path id="XMLID_84_" d="M43.159,12.45a.729.729,0,1,1-.729.729A.734.734,0,0,1,43.159,12.45Z" transform="translate(5.876 1.724)" fill="#fff"/>
    <path id="XMLID_83_" d="M10.709,45.06a.729.729,0,1,1-.729.729A.726.726,0,0,1,10.709,45.06Z" transform="translate(1.382 6.241)" fill="#fff"/>
    <path id="XMLID_82_" d="M29.909,62.51a.729.729,0,0,1,0,1.457.729.729,0,0,1,0-1.457Z" transform="translate(4.041 8.658)" fill="#fff"/>
    <path id="XMLID_81_" d="M38.779,24.7a.729.729,0,1,1-.729.729A.734.734,0,0,1,38.779,24.7Z" transform="translate(5.27 3.421)" fill="#fff"/>
    <path id="XMLID_80_" d="M57.379,32.3a.729.729,0,0,1,0,1.457.729.729,0,1,1,0-1.457Z" transform="translate(7.846 4.474)" fill="#fff"/>
    <path id="XMLID_79_" d="M55.879,8.88a.729.729,0,1,1-.729.729A.712.712,0,0,1,55.879,8.88Z" transform="translate(7.638 1.23)" fill="#fff"/>
    <path id="XMLID_78_" d="M17.209,12.52a.729.729,0,0,1,0,1.457.729.729,0,0,1,0-1.457Z" transform="translate(2.282 1.734)" fill="#fff"/>
    <path id="XMLID_77_" d="M19.919,18.62a.729.729,0,1,1-.729.729A.734.734,0,0,1,19.919,18.62Z" transform="translate(2.658 2.579)" fill="#fff"/>
    <path id="XMLID_76_" d="M.729,25.81a.726.726,0,0,1,.729.729.734.734,0,0,1-.729.729A.717.717,0,0,1,0,26.55.736.736,0,0,1,.729,25.81Z" transform="translate(0 3.575)" fill="#fff"/>
    <path id="XMLID_75_" d="M42.189,27.89a.729.729,0,0,1,0,1.457.729.729,0,0,1,0-1.457Z" transform="translate(5.742 3.863)" fill="#fff"/>
    <path id="XMLID_74_" d="M41.779,19.29a.726.726,0,0,1,.729.729.729.729,0,1,1-.729-.729Z" transform="translate(5.685 2.672)" fill="#fff"/>
    <path id="XMLID_73_" d="M23.369,57.96a.729.729,0,0,1,0,1.457.729.729,0,0,1,0-1.457Z" transform="translate(3.136 8.028)" fill="#fff"/>
    <path id="XMLID_72_" d="M9.789,29.62a.729.729,0,1,1-.729.729A.712.712,0,0,1,9.789,29.62Z" transform="translate(1.255 4.102)" fill="#fff"/>
    <path id="XMLID_71_" d="M47.849,56.65a.729.729,0,0,1,0,1.457.734.734,0,0,1-.729-.729A.726.726,0,0,1,47.849,56.65Z" transform="translate(6.526 7.846)" fill="#fff"/>
    <path id="XMLID_70_" d="M35.539,24.6a.734.734,0,0,1,.729.729.726.726,0,0,1-.729.729.729.729,0,0,1,0-1.457Z" transform="translate(4.821 3.407)" fill="#fff"/>
    <path id="XMLID_69_" d="M45.259.27A.734.734,0,0,1,45.987,1a.734.734,0,0,1-.729.729.729.729,0,0,1,0-1.457Z" transform="translate(6.167 0.037)" fill="#fff"/>
    <path id="XMLID_68_" d="M46.629,22.98a.726.726,0,0,1,.729.729.729.729,0,1,1-1.457,0A.719.719,0,0,1,46.629,22.98Z" transform="translate(6.357 3.183)" fill="#fff"/>
    <path id="XMLID_67_" d="M19.169,58.19a.729.729,0,1,1,0,1.457.734.734,0,0,1-.729-.729A.719.719,0,0,1,19.169,58.19Z" transform="translate(2.554 8.059)" fill="#fff"/>
    <path id="XMLID_66_" d="M34.539,60.57a.734.734,0,0,1,.729.729.726.726,0,0,1-.729.729.729.729,0,0,1,0-1.457Z" transform="translate(4.683 8.389)" fill="#fff"/>
    <path id="XMLID_65_" d="M17.819,32.21a.729.729,0,1,1-.729.729A.734.734,0,0,1,17.819,32.21Z" transform="translate(2.367 4.461)" fill="#fff"/>
    <path id="XMLID_64_" d="M53.159,23.35a.729.729,0,0,1,0,1.457.729.729,0,1,1,0-1.457Z" transform="translate(7.261 3.234)" fill="#fff"/>
    <path id="XMLID_63_" d="M45.4,66.99a.729.729,0,1,1-.729.729A.726.726,0,0,1,45.4,66.99Z" transform="translate(6.187 9.278)" fill="#fff"/>
    <path id="XMLID_62_" d="M56.979,26.92a.729.729,0,0,1,0,1.457.729.729,0,1,1,0-1.457Z" transform="translate(7.791 3.728)" fill="#fff"/>
    <path id="XMLID_61_" d="M44.629,43.13a.729.729,0,0,1,0,1.457.729.729,0,1,1,0-1.457Z" transform="translate(6.08 5.974)" fill="#fff"/>
    <path id="XMLID_60_" d="M10.859,36.62a.729.729,0,1,1,0,1.457.726.726,0,0,1-.729-.729A.712.712,0,0,1,10.859,36.62Z" transform="translate(1.403 5.072)" fill="#fff"/>
    <path id="XMLID_59_" d="M16.379,36.36a.729.729,0,0,1,0,1.457.734.734,0,0,1-.729-.729A.712.712,0,0,1,16.379,36.36Z" transform="translate(2.167 5.036)" fill="#fff"/>
    <path id="XMLID_58_" d="M12.979,11.74a.726.726,0,0,1,.729.729.729.729,0,1,1-1.457,0A.726.726,0,0,1,12.979,11.74Z" transform="translate(1.697 1.626)" fill="#fff"/>
    <path id="XMLID_57_" d="M23.389,48.4a.726.726,0,0,1,.729.729.729.729,0,1,1-1.457,0A.726.726,0,0,1,23.389,48.4Z" transform="translate(3.138 6.703)" fill="#fff"/>
    <path id="XMLID_56_" d="M27.849,12.39a.734.734,0,0,1,.729.729.726.726,0,0,1-.729.729.734.734,0,0,1-.729-.729A.719.719,0,0,1,27.849,12.39Z" transform="translate(3.756 1.716)" fill="#fff"/>
    <path id="XMLID_55_" d="M47.189,52.14a.726.726,0,0,1,.729.729.729.729,0,1,1-.729-.729Z" transform="translate(6.435 7.221)" fill="#fff"/>
    <path id="XMLID_54_" d="M58.019,42.89a.734.734,0,0,1,.729.729.729.729,0,1,1-.729-.729Z" transform="translate(7.935 5.94)" fill="#fff"/>
    <path id="XMLID_53_" d="M32.509,57.04a.729.729,0,1,1-.729.729A.734.734,0,0,1,32.509,57.04Z" transform="translate(4.401 7.9)" fill="#fff"/>
    <path id="XMLID_52_" d="M56.7,55.1a.729.729,0,0,1,0,1.457.729.729,0,0,1,0-1.457Z" transform="translate(7.752 7.631)" fill="#fff"/>
    <path id="XMLID_51_" d="M33.969,34.86a.729.729,0,1,1-.729.729A.726.726,0,0,1,33.969,34.86Z" transform="translate(4.604 4.828)" fill="#fff"/>
    <path id="XMLID_50_" d="M40.919,46.53a.729.729,0,1,1-.729.729A.719.719,0,0,1,40.919,46.53Z" transform="translate(5.566 6.444)" fill="#fff"/>
    <path id="XMLID_49_" d="M31.309,42.71a.726.726,0,0,1,.729.729.729.729,0,1,1-1.457,0A.719.719,0,0,1,31.309,42.71Z" transform="translate(4.235 5.915)" fill="#fff"/>
    <path id="XMLID_48_" d="M31.969,47.13a.729.729,0,1,1-.729.729A.734.734,0,0,1,31.969,47.13Z" transform="translate(4.327 6.528)" fill="#fff"/>
    <path id="XMLID_47_" d="M14.119,58.11a.734.734,0,0,1,.729.729.726.726,0,0,1-.729.729.729.729,0,0,1,0-1.457Z" transform="translate(1.854 8.048)" fill="#fff"/>
    <path id="XMLID_46_" d="M28.969,30.94a.729.729,0,0,1,0,1.457.729.729,0,0,1,0-1.457Z" transform="translate(3.911 4.285)" fill="#fff"/>
    <path id="XMLID_45_" d="M27.679,66.99a.729.729,0,0,1,0,1.457.729.729,0,1,1,0-1.457Z" transform="translate(3.732 9.278)" fill="#fff"/>
    <path id="XMLID_44_" d="M34.6,7.71a.729.729,0,1,1-.729.729A.726.726,0,0,1,34.6,7.71Z" transform="translate(4.691 1.068)" fill="#fff"/>
    <path id="XMLID_43_" d="M33.269,1.18A.726.726,0,0,1,34,1.909a.729.729,0,1,1-1.457,0A.726.726,0,0,1,33.269,1.18Z" transform="translate(4.507 0.163)" fill="#fff"/>
    <path id="XMLID_42_" d="M67.539,45.69a.729.729,0,0,1,0,1.457.734.734,0,0,1-.729-.729A.726.726,0,0,1,67.539,45.69Z" transform="translate(9.253 6.328)" fill="#fff"/>
    <path id="XMLID_41_" d="M6.5,45.78a.729.729,0,1,1-.729.729A.734.734,0,0,1,6.5,45.78Z" transform="translate(0.799 6.341)" fill="#fff"/>
    <path id="XMLID_40_" d="M21.109,36.83a.729.729,0,1,1-.729.729A.719.719,0,0,1,21.109,36.83Z" transform="translate(2.823 5.101)" fill="#fff"/>
    <path id="XMLID_39_" d="M5.569,32.02a.734.734,0,0,1,.729.729.726.726,0,0,1-.729.729.734.734,0,0,1-.729-.729A.726.726,0,0,1,5.569,32.02Z" transform="translate(0.67 4.435)" fill="#fff"/>
    <path id="XMLID_38_" d="M58.939,17.22a.734.734,0,0,1,.729.729.726.726,0,0,1-.729.729.729.729,0,0,1,0-1.457Z" transform="translate(8.062 2.385)" fill="#fff"/>
    <path id="XMLID_37_" d="M22.469,2.81a.734.734,0,0,1,.729.729.726.726,0,0,1-.729.729.734.734,0,0,1-.729-.729A.726.726,0,0,1,22.469,2.81Z" transform="translate(3.011 0.389)" fill="#fff"/>
    <path id="XMLID_36_" d="M45.179,6.52a.726.726,0,0,1,.729.729.729.729,0,1,1-.729-.729Z" transform="translate(6.156 0.903)" fill="#fff"/>
    <path id="XMLID_35_" d="M20.679,52.5a.734.734,0,0,1,.729.729.726.726,0,0,1-.729.729.734.734,0,0,1-.729-.729A.726.726,0,0,1,20.679,52.5Z" transform="translate(2.763 7.271)" fill="#fff"/>
    <path id="XMLID_34_" d="M40.949,41.77a.729.729,0,1,1,0,1.457.729.729,0,0,1,0-1.457Z" transform="translate(5.57 5.785)" fill="#fff"/>
    <path id="XMLID_33_" d="M39.259,11.35a.726.726,0,0,1,.729.729.729.729,0,1,1-.729-.729Z" transform="translate(5.336 1.572)" fill="#fff"/>
    <path id="XMLID_32_" d="M45.589,40.6a.729.729,0,0,1,0,1.457.729.729,0,0,1,0-1.457Z" transform="translate(6.213 5.623)" fill="#fff"/>
    <path id="XMLID_31_" d="M14.329,7.39a.729.729,0,1,1-.729.729A.734.734,0,0,1,14.329,7.39Z" transform="translate(1.884 1.024)" fill="#fff"/>
    <path id="XMLID_30_" d="M7.769,23.18a.729.729,0,1,1-.729.729A.734.734,0,0,1,7.769,23.18Z" transform="translate(0.975 3.21)" fill="#fff"/>
    <path id="XMLID_29_" d="M8.429,14.42a.729.729,0,0,1,0,1.457.726.726,0,0,1-.729-.729A.734.734,0,0,1,8.429,14.42Z" transform="translate(1.066 1.997)" fill="#fff"/>
    <path id="XMLID_28_" d="M48.989,29.4a.729.729,0,1,1-.729.729A.734.734,0,0,1,48.989,29.4Z" transform="translate(6.684 4.072)" fill="#fff"/>
    <path id="XMLID_27_" d="M59.279,57.89a.726.726,0,0,1,.729.729.729.729,0,1,1-.729-.729Z" transform="translate(8.109 8.018)" fill="#fff"/>
    <path id="XMLID_26_" d="M10.819,9.24a.729.729,0,1,1-.729.729A.726.726,0,0,1,10.819,9.24Z" transform="translate(1.397 1.28)" fill="#fff"/>
    <path id="XMLID_25_" d="M25.289,28.07a.729.729,0,1,1,0,1.457.734.734,0,0,1-.729-.729A.726.726,0,0,1,25.289,28.07Z" transform="translate(3.402 3.888)" fill="#fff"/>
    <path id="XMLID_24_" d="M50.779,59.9a.729.729,0,0,1,0,1.457.729.729,0,0,1,0-1.457Z" transform="translate(6.932 8.296)" fill="#fff"/>
    <path id="XMLID_23_" d="M36.609,4.54a.729.729,0,1,1-.729.729A.734.734,0,0,1,36.609,4.54Z" transform="translate(4.969 0.629)" fill="#fff"/>
    <path id="XMLID_22_" d="M21.449,25.01a.729.729,0,1,1-.729.729A.734.734,0,0,1,21.449,25.01Z" transform="translate(2.87 3.464)" fill="#fff"/>
    <path id="XMLID_21_" d="M19.449,42.32a.729.729,0,0,1,0,1.457.729.729,0,0,1,0-1.457Z" transform="translate(2.593 5.861)" fill="#fff"/>
    <path id="XMLID_20_" d="M44.079,55.03a.734.734,0,0,1,.729.729.726.726,0,0,1-.729.729.729.729,0,1,1,0-1.457Z" transform="translate(6.004 7.622)" fill="#fff"/>
    <path id="XMLID_19_" d="M5.309,17.9a.734.734,0,0,1,.729.729.729.729,0,1,1-.729-.729Z" transform="translate(0.634 2.479)" fill="#fff"/>
    <path id="XMLID_18_" d="M33.309,28.76a.729.729,0,1,1-.729.729A.726.726,0,0,1,33.309,28.76Z" transform="translate(4.512 3.983)" fill="#fff"/>
    <path id="XMLID_17_" d="M20.019,46.37a.734.734,0,0,1,.729.729.726.726,0,0,1-.729.729.729.729,0,0,1,0-1.457Z" transform="translate(2.672 6.422)" fill="#fff"/>
    <path id="XMLID_16_" d="M53.979,5.67a.729.729,0,1,1-.729.729A.734.734,0,0,1,53.979,5.67Z" transform="translate(7.375 0.785)" fill="#fff"/>
    <path id="XMLID_15_" d="M3.829,21.74a.729.729,0,1,1-.729.729A.719.719,0,0,1,3.829,21.74Z" transform="translate(0.429 3.011)" fill="#fff"/>
    <path id="XMLID_14_" d="M24.309,42.39a.726.726,0,0,1,.729.729.729.729,0,1,1-.729-.729Z" transform="translate(3.266 5.871)" fill="#fff"/>
    <path id="XMLID_13_" d="M36.859,49.5a.734.734,0,0,1,.729.729.726.726,0,0,1-.729.729.729.729,0,0,1,0-1.457Z" transform="translate(5.004 6.856)" fill="#fff"/>
    <path id="XMLID_12_" d="M63.219,52.72a.729.729,0,1,1-.729.729A.719.719,0,0,1,63.219,52.72Z" transform="translate(8.655 7.302)" fill="#fff"/>
    <path id="XMLID_11_" d="M37.809,0a.734.734,0,0,1,.729.729.729.729,0,0,1-1.457,0A.734.734,0,0,1,37.809,0Z" transform="translate(5.136)" fill="#fff"/>
    <path id="XMLID_10_" d="M65.3,18.7a.729.729,0,0,1,0,1.457.726.726,0,0,1-.729-.729A.734.734,0,0,1,65.3,18.7Z" transform="translate(8.943 2.59)" fill="#fff"/>
    <path id="XMLID_9_" d="M67.469,42.06a.729.729,0,1,1-.729.729A.719.719,0,0,1,67.469,42.06Z" transform="translate(9.243 5.825)" fill="#fff"/>
    <path id="XMLID_8_" d="M6.779,50.5a.729.729,0,1,1-.729.729A.712.712,0,0,1,6.779,50.5Z" transform="translate(0.838 6.994)" fill="#fff"/>
    <path id="XMLID_7_" d="M37.289,39.06a.734.734,0,0,1,.729.729.726.726,0,0,1-.729.729.734.734,0,0,1-.729-.729A.726.726,0,0,1,37.289,39.06Z" transform="translate(5.063 5.41)" fill="#fff"/>
    <path id="XMLID_6_" d="M69.219,27.03a.726.726,0,0,1,.729.729.729.729,0,1,1-1.457,0A.726.726,0,0,1,69.219,27.03Z" transform="translate(9.486 3.744)" fill="#fff"/>
    <path id="XMLID_5_" d="M62.989,43.22a.729.729,0,1,1-.729.729A.712.712,0,0,1,62.989,43.22Z" transform="translate(8.623 5.986)" fill="#fff"/>
    <path id="XMLID_4_" d="M62.5,49.4a.729.729,0,1,1-.729.729A.719.719,0,0,1,62.5,49.4Z" transform="translate(8.555 6.842)" fill="#fff"/>
    <path id="XMLID_3_" d="M55.919,15.67a.729.729,0,1,1-.729.729A.734.734,0,0,1,55.919,15.67Z" transform="translate(7.644 2.17)" fill="#fff"/>
    <path id="XMLID_2_" d="M36.3,44.23a.729.729,0,1,1-.729.729A.734.734,0,0,1,36.3,44.23Z" transform="translate(4.926 6.126)" fill="#fff"/>
  </g>
</svg>
