<svg xmlns="http://www.w3.org/2000/svg" width="91.433" height="89.224"><g opacity=".599" fill="#fff"><path d="M52.564 68.823a.836.836 0 11-.836.836.826.826 0 01.836-.836zM46.67 24.779a.834.834 0 01.836.836.837.837 0 01-1.673 0 .834.834 0 01.837-.836zM86.558 38.267a.842.842 0 01.836.836.834.834 0 01-.836.836.842.842 0 01-.836-.836.834.834 0 01.836-.836zM35.013 84.454a.842.842 0 01.836.836.836.836 0 11-.836-.836zM70.077 60.054a.836.836 0 11-.836.836.834.834 0 01.836-.836zM62.344 24.335a.834.834 0 01.836.836.836.836 0 11-.836-.836zM26.404 8.064a.836.836 0 11-.836.836.842.842 0 01.836-.836zM54.642 3.921a.836.836 0 11-.836.836.834.834 0 01.836-.836z"/><circle cx=".836" cy=".836" r=".836" transform="translate(33.667 41.469)"/><path d="M3.803 58.524a.836.836 0 11-.836.836.834.834 0 01.836-.836zM87.577 29.04a.842.842 0 01.836.836.834.834 0 01-.836.836.837.837 0 010-1.673zM60.694 17.474a.836.836 0 11-.836.836.842.842 0 01.836-.836zM35.587 10.39a.842.842 0 01.836.836.834.834 0 01-.836.836.842.842 0 01-.836-.836.826.826 0 01.836-.836zM35.705 27.38a.842.842 0 01.836.836.834.834 0 01-.836.836.837.837 0 110-1.673zM47.546 71.45a.842.842 0 01.836.836.834.834 0 01-.836.836.842.842 0 01-.836-.836.834.834 0 01.836-.836zM90.596 43.939a.836.836 0 11-.836.836.842.842 0 01.836-.836zM29.485 84.872a.837.837 0 110 1.673.842.842 0 01-.836-.836.826.826 0 01.836-.837zM69.751 38.162a.836.836 0 11-.836.836.834.834 0 01.836-.836zM52.46 77.083a.842.842 0 01.836.836.834.834 0 01-.836.836.837.837 0 110-1.673zM66.527 68.928a.836.836 0 11-.836.836.834.834 0 01.836-.836zM16.14 72.143a.836.836 0 11-.836.836.842.842 0 01.836-.836zM21.969 81.134a.836.836 0 11-.836.836.834.834 0 01.836-.836zM63.608 4.509a.837.837 0 010 1.673.837.837 0 010-1.673zM35.683 63.164a.836.836 0 11-.836.836.834.834 0 01.836-.836zM52.656 29.89a.836.836 0 11-.836.836.842.842 0 01.836-.836zM31.457 25.707a.836.836 0 11-.836.836.834.834 0 01.836-.836zM52.185 35.483a.836.836 0 11-.836.836.826.826 0 01.836-.836zM63.047 15.513a.837.837 0 110 1.673.842.842 0 01-.836-.836.818.818 0 01.836-.837zM2.836 50.056a.836.836 0 11-.836.836.834.834 0 01.836-.836zM49.22 41.953a.836.836 0 11-.836.836.826.826 0 01.836-.836zM58.354 78.364a.836.836 0 11-.836.836.834.834 0 01.836-.836zM40.946 65.739a.842.842 0 01.836.836.834.834 0 01-.836.836.837.837 0 010-1.673zM61.361 62.354a.842.842 0 01.836.836.834.834 0 01-.836.836.842.842 0 01-.836-.836.826.826 0 01.836-.836zM39.901 47.363a.836.836 0 11-.836.836.818.818 0 01.836-.836zM12.821 24.27a.842.842 0 01.836.836.834.834 0 01-.836.836.837.837 0 110-1.673z"/><circle cx=".836" cy=".836" r=".836" transform="translate(35.653 .013)"/><path d="M20.152 21.512a.836.836 0 11-.836.836.834.834 0 01.836-.836zM16.885 55.597a.836.836 0 11-.836.836.842.842 0 01.836-.836zM68.169 45.494a.836.836 0 11-.836.836.834.834 0 01.836-.836zM31.893 19.918a.837.837 0 010 1.673.837.837 0 010-1.673zM59.6 41.966a.836.836 0 11-.836.836.826.826 0 01.836-.836zM18.846 28.439a.837.837 0 110 1.673.837.837 0 110-1.673zM30.111 42.867a.836.836 0 11-.836.836.834.834 0 01.836-.836zM48.409 19.225a.842.842 0 01.836.836.834.834 0 01-.836.836.842.842 0 01-.836-.836.818.818 0 01.836-.836zM81.556 29.21a.837.837 0 010 1.673.834.834 0 01-.836-.836.842.842 0 01.836-.837zM64.144 11.593a.834.834 0 01.836.836.836.836 0 11-.836-.836zM5.868 35.888a.836.836 0 11-.836.836.842.842 0 01.836-.836zM72.888 26.675a.837.837 0 110 1.673.834.834 0 01-.836-.836.818.818 0 01.836-.837zM81.866 44.214a.836.836 0 11-.836.836.842.842 0 01.836-.836zM14.206 43.129a.836.836 0 11-.836.836.834.834 0 01.836-.836zM56.159 83.186a.836.836 0 11-.836.836.826.826 0 01.836-.836zM67.137 17.931a.836.836 0 11-.836.836.842.842 0 01.836-.836zM43.416 84.964a.836.836 0 11-.836.836.842.842 0 01.836-.836zM64.628 57.113a.836.836 0 11-.836.836.818.818 0 01.836-.836zM88.061 51.18a.836.836 0 11-.836.84.834.834 0 01.836-.84zM41.521 19.774a.837.837 0 110 1.673.842.842 0 01-.836-.836.834.834 0 01.836-.837zM17.695 34.281a.836.836 0 11-.836.836.842.842 0 01.836-.836zM39.743 31.066a.836.836 0 11-.836.836.834.834 0 01.836-.836zM70.064 64.249a.837.837 0 110 1.673.834.834 0 01-.836-.833.842.842 0 01.836-.84zM23.76 4.509a.842.842 0 01.836.836.836.836 0 11-.836-.836zM9.645 53.258a.836.836 0 11-.836.836.842.842 0 01.836-.836zM52.381 43.573a.836.836 0 11-.836.836.842.842 0 01.836-.836zM77.148 16.833a.836.836 0 11-.836.836.842.842 0 01.836-.836zM69.925 67.647a.836.836 0 11-.836.836.842.842 0 01.836-.836zM7.845 47.076a.842.842 0 01.836.836.834.834 0 01-.836.836.837.837 0 110-1.673zM34.673 70.235a.837.837 0 110 1.673.834.834 0 01-.836-.836.842.842 0 01.836-.837zM72.208 77.906a.836.836 0 11-.836.836.834.834 0 01.836-.836zM40.867 12.481a.836.836 0 11-.836.836.834.834 0 01.836-.836zM51.061 81.513a.842.842 0 01.836.836.834.834 0 01-.836.836.842.842 0 01-.836-.836.834.834 0 01.836-.836zM76.272 69.464a.837.837 0 010 1.673.837.837 0 110-1.673zM1.921 42.332a.837.837 0 110 1.673.842.842 0 01-.836-.836.834.834 0 01.836-.837zM62.85 48.161a.836.836 0 11-.836.836.842.842 0 01.836-.836zM28.233 14.664a.842.842 0 01.836.836.834.834 0 01-.836.836.837.837 0 010-1.673zM37.091 4.13a.842.842 0 01.836.84.834.834 0 01-.836.836.842.842 0 01-.837-.836.826.826 0 01.837-.84zM80.481 35.732a.836.836 0 11-.836.836.826.826 0 01.836-.836zM16.506 64.497a.836.836 0 11-.836.836.834.834 0 01.836-.836zM74.443 47.912a.836.836 0 11-.836.836.826.826 0 01.836-.836zM35.574 52.486a.836.836 0 11-.836.84.842.842 0 01.836-.84zM79.279 51.036a.837.837 0 110 1.673.834.834 0 01-.836-.836.818.818 0 01.836-.837zM22.884 68.627a.836.836 0 11-.836.836.834.834 0 01.836-.836zM56.289 16.271a.836.836 0 11-.836.836.842.842 0 01.836-.836zM13.879 58.89a.836.836 0 11-.836.836.834.834 0 01.836-.836zM38.972 81.696a.837.837 0 110 1.673.837.837 0 110-1.673zM50.565 32.281a.836.836 0 11-.836.836.842.842 0 01.836-.836zM74.874 42.214a.837.837 0 010 1.673.837.837 0 110-1.673zM72.914 11.606a.836.836 0 11-.836.836.818.818 0 01.836-.836zM22.375 16.363a.837.837 0 010 1.673.837.837 0 010-1.673zM25.916 24.335a.836.836 0 11-.836.836.842.842 0 01.836-.836zM.836 33.732a.834.834 0 01.836.836.842.842 0 01-.836.836.823.823 0 01-.836-.822.845.845 0 01.836-.85zM55.025 36.45a.837.837 0 010 1.673.837.837 0 110-1.673zM54.486 25.211a.834.834 0 01.836.836.836.836 0 11-.836-.836zM30.425 75.75a.837.837 0 010 1.673.837.837 0 110-1.673zM12.681 38.711a.836.836 0 11-.836.836.818.818 0 01.836-.836zM62.419 74.038a.837.837 0 010 1.673.842.842 0 01-.836-.836.834.834 0 01.836-.837zM46.33 32.151a.842.842 0 01.836.836.834.834 0 01-.836.836.837.837 0 110-1.673zM59.034.353a.842.842 0 01.836.836.842.842 0 01-.836.836.837.837 0 010-1.673zM60.825 30.033a.834.834 0 01.836.836.837.837 0 11-1.673 0 .826.826 0 01.837-.836zM24.937 76.05a.837.837 0 110 1.673.842.842 0 01-.836-.836.826.826 0 01.836-.837zM45.023 79.161a.842.842 0 01.836.836.834.834 0 01-.836.836.837.837 0 110-1.673zM23.171 42.096a.836.836 0 11-.836.836.842.842 0 01.836-.836zM69.359 30.517a.837.837 0 010 1.673.837.837 0 110-1.673zM59.217 87.552a.836.836 0 11-.836.836.834.834 0 01.836-.836zM74.351 35.183a.837.837 0 110 1.673.837.837 0 110-1.673zM58.21 56.368a.837.837 0 110 1.673.837.837 0 010-1.673zM14.076 47.86a.837.837 0 010 1.673.834.834 0 01-.836-.836.818.818 0 01.836-.837zM21.29 47.52a.837.837 0 110 1.673.842.842 0 01-.836-.836.818.818 0 01.836-.837zM16.846 15.343a.834.834 0 01.836.836.837.837 0 11-1.673 0 .834.834 0 01.837-.836zM30.455 63.256a.834.834 0 01.836.836.837.837 0 11-1.673 0 .834.834 0 01.837-.836zM36.28 16.193a.842.842 0 01.836.836.834.834 0 01-.836.836.842.842 0 01-.836-.836.826.826 0 01.836-.836zM61.56 68.144a.834.834 0 01.836.836.836.836 0 11-.836-.836zM75.71 56.054a.842.842 0 01.836.836.836.836 0 11-.836-.836zM42.37 74.548a.836.836 0 11-.836.836.842.842 0 01.836-.836zM73.986 72.012a.837.837 0 110 1.673.837.837 0 010-1.673zM44.278 45.56a.836.836 0 11-.836.836.834.834 0 01.836-.836zM53.363 60.812a.836.836 0 11-.836.836.826.826 0 01.836-.836zM40.803 55.819a.834.834 0 01.836.836.837.837 0 11-1.673 0 .826.826 0 01.837-.836zM41.665 61.596a.836.836 0 11-.836.836.842.842 0 01.836-.836zM18.336 75.946a.842.842 0 01.836.836.834.834 0 01-.836.836.837.837 0 110-1.673zM37.744 40.437a.837.837 0 010 1.673.837.837 0 010-1.673zM36.059 87.552a.837.837 0 010 1.673.837.837 0 110-1.673zM45.102 10.076a.836.836 0 11-.836.836.834.834 0 01.836-.836zM43.364 1.542a.834.834 0 01.836.836.837.837 0 11-1.673 0 .834.834 0 01.837-.836zM88.152 59.714a.837.837 0 010 1.673.842.842 0 01-.836-.836.834.834 0 01.836-.837zM8.377 59.831a.836.836 0 11-.836.836.842.842 0 01.836-.836zM27.472 48.134a.836.836 0 11-.836.836.826.826 0 01.836-.836zM7.162 41.848a.842.842 0 01.836.836.834.834 0 01-.836.836.842.842 0 01-.836-.836.834.834 0 01.836-.836zM76.913 22.505a.842.842 0 01.836.836.834.834 0 01-.836.836.837.837 0 010-1.673zM29.249 3.672a.842.842 0 01.836.836.834.834 0 01-.836.836.842.842 0 01-.836-.836.834.834 0 01.836-.836zM58.929 8.521a.834.834 0 01.836.836.836.836 0 11-.836-.836zM26.909 68.614a.842.842 0 01.836.836.834.834 0 01-.836.836.842.842 0 01-.836-.836.834.834 0 01.836-.836zM53.401 54.591a.837.837 0 110 1.673.837.837 0 010-1.673zM51.192 14.834a.834.834 0 01.836.836.836.836 0 11-.836-.836zM59.469 53.062a.837.837 0 010 1.673.837.837 0 010-1.673zM18.61 9.658a.836.836 0 11-.836.836.842.842 0 01.836-.836zM10.037 30.295a.836.836 0 11-.836.836.842.842 0 01.836-.836zM10.899 18.846a.837.837 0 110 1.673.834.834 0 01-.836-.836.842.842 0 01.836-.837zM63.913 38.424a.836.836 0 11-.836.836.842.842 0 01.836-.836zM77.357 75.658a.834.834 0 01.836.836.836.836 0 11-.836-.836zM14.023 12.076a.836.836 0 11-.836.836.834.834 0 01.836-.836zM32.938 36.686a.837.837 0 110 1.673.842.842 0 01-.836-.836.834.834 0 01.836-.837zM66.248 78.285a.837.837 0 110 1.673.837.837 0 110-1.673zM47.729 5.933a.836.836 0 11-.836.836.842.842 0 01.836-.836zM27.916 32.686a.836.836 0 11-.836.836.842.842 0 01.836-.836zM25.303 55.309a.837.837 0 110 1.673.837.837 0 110-1.673zM57.492 71.921a.842.842 0 01.836.836.834.834 0 01-.836.836.837.837 0 110-1.673zM6.822 23.394a.842.842 0 01.836.836.836.836 0 11-.836-.836zM43.416 37.587a.836.836 0 11-.836.836.834.834 0 01.836-.836zM26.047 60.603a.842.842 0 01.836.836.834.834 0 01-.836.836.837.837 0 110-1.673zM70.43 7.41a.836.836 0 11-.836.836.842.842 0 01.836-.836zM4.888 28.413a.836.836 0 11-.836.836.826.826 0 01.836-.836zM31.654 55.401a.834.834 0 01.836.836.836.836 0 11-.836-.836zM48.056 64.693a.842.842 0 01.836.836.834.834 0 01-.836.836.837.837 0 010-1.673zM82.506 68.902a.836.836 0 11-.836.836.826.826 0 01.836-.836zM49.297 0a.842.842 0 01.836.836.837.837 0 01-1.673 0A.842.842 0 0149.297 0zM85.225 24.44a.837.837 0 110 1.673.834.834 0 01-.836-.836.842.842 0 01.836-.837zM88.061 54.97a.836.836 0 11-.836.836.826.826 0 01.836-.836zM8.744 66a.836.836 0 11-.836.836.818.818 0 01.836-.836zM48.622 51.049a.842.842 0 01.836.836.834.834 0 01-.836.836.842.842 0 01-.836-.836.834.834 0 01.836-.836zM90.348 35.326a.834.834 0 01.836.836.837.837 0 01-1.673 0 .834.834 0 01.837-.836zM82.21 56.486a.836.836 0 11-.836.836.818.818 0 01.836-.836zM81.565 64.563a.836.836 0 11-.836.836.826.826 0 01.836-.836zM72.966 20.48a.836.836 0 11-.836.836.842.842 0 01.836-.836zM47.324 57.806a.836.836 0 11-.836.836.842.842 0 01.836-.836z"/></g></svg>