<svg id="Group_212" data-name="Group 212" xmlns="http://www.w3.org/2000/svg" width="235.816" height="106.539" viewBox="0 0 235.816 106.539">
  <path id="Path_34" data-name="Path 34" d="M136.107,89.112c2.243-.959-1.537-5.335-3.78-4.377S133.865,90.071,136.107,89.112Z" transform="translate(-12.597 -8.094)" fill="#f3f3f3"/>
  <path id="Path_35" data-name="Path 35" d="M116.026,51.718c-.226.1-.452.19-.678.289a1.155,1.155,0,0,0-.678,1.167,3.16,3.16,0,0,0,.823,1.763,4.991,4.991,0,0,0,1.845,1.329,2.481,2.481,0,0,0,1.781.109c.226-.1.452-.19.678-.289a1.1,1.1,0,0,0,.371-.262,1.226,1.226,0,0,0,.307-.9,3.119,3.119,0,0,0-.832-1.763,5.831,5.831,0,0,0-1.257-1.049,3.876,3.876,0,0,0-.588-.28A2.5,2.5,0,0,0,116.026,51.718Z" transform="translate(-10.973 -4.937)" fill="#f3f3f3"/>
  <path id="Path_36" data-name="Path 36" d="M113.114,88.244a5.1,5.1,0,0,0-1.845-1.329,2.391,2.391,0,0,0-1.781-.109,1.143,1.143,0,0,0-.678,1.167,3.179,3.179,0,0,0,.832,1.763c.244.28.488.57.733.85a5.129,5.129,0,0,0,1.429,1.13,4.344,4.344,0,0,0,.416.2,2.391,2.391,0,0,0,1.781.109,1.143,1.143,0,0,0,.678-1.167,3.013,3.013,0,0,0-.633-1.5,2.508,2.508,0,0,0-.2-.262C113.611,88.8,113.358,88.525,113.114,88.244Z" transform="translate(-10.412 -8.293)" fill="#f3f3f3"/>
  <path id="Path_37" data-name="Path 37" d="M92.637,56.626c-2.243.959,1.537,5.335,3.78,4.377S94.88,55.667,92.637,56.626Z" transform="translate(-8.799 -5.404)" fill="#f3f3f3"/>
  <path id="Path_38" data-name="Path 38" d="M151.267,66.286c-2.243.959,1.537,5.335,3.78,4.377S153.51,65.327,151.267,66.286Z" transform="translate(-14.409 -6.329)" fill="#f3f3f3"/>
  <path id="Path_39" data-name="Path 39" d="M113.971,69.816c.244.28.488.57.732.85A5.1,5.1,0,0,0,116.549,72a2.391,2.391,0,0,0,1.782.109,1.143,1.143,0,0,0,.678-1.167,3.179,3.179,0,0,0-.832-1.763c-.244-.28-.488-.57-.732-.85a5.1,5.1,0,0,0-1.845-1.329,2.391,2.391,0,0,0-1.781-.109,1.143,1.143,0,0,0-.678,1.167A3.179,3.179,0,0,0,113.971,69.816Z" transform="translate(-10.826 -6.387)" fill="#f3f3f3"/>
  <path id="Path_40" data-name="Path 40" d="M64.248,110.936a2.481,2.481,0,0,0-1.782-.109c-.226.1-.452.19-.678.289a1.155,1.155,0,0,0-.678,1.167,3.119,3.119,0,0,0,.832,1.763,4.99,4.99,0,0,0,1.845,1.329,2.481,2.481,0,0,0,1.781.109c.226-.1.452-.19.678-.289a1.155,1.155,0,0,0,.678-1.167,3.119,3.119,0,0,0-.832-1.763A4.89,4.89,0,0,0,64.248,110.936Z" transform="translate(-5.848 -10.592)" fill="#f3f3f3"/>
  <path id="Path_41" data-name="Path 41" d="M96.4,101.418c-.226.1-.452.19-.678.289a1.1,1.1,0,0,0-.651.85,1.218,1.218,0,0,0-.018.317,3.119,3.119,0,0,0,.832,1.763,4.99,4.99,0,0,0,1.845,1.329,2.481,2.481,0,0,0,1.781.109c.226-.1.452-.19.678-.289a1.155,1.155,0,0,0,.678-1.167,3.119,3.119,0,0,0-.832-1.763,4.99,4.99,0,0,0-1.845-1.329c-.09-.036-.181-.063-.271-.09A2.36,2.36,0,0,0,96.4,101.418Z" transform="translate(-9.095 -9.692)" fill="#f3f3f3"/>
  <path id="Path_42" data-name="Path 42" d="M65.267,74.816c-2.243.959,1.537,5.335,3.78,4.377S67.51,73.857,65.267,74.816Z" transform="translate(-6.18 -7.145)" fill="#f3f3f3"/>
  <path id="Path_43" data-name="Path 43" d="M156.137,101.605c-2.243.959,1.537,5.335,3.78,4.377S158.38,100.638,156.137,101.605Z" transform="translate(-14.875 -9.708)" fill="#f3f3f3"/>
  <path id="Path_116" data-name="Path 116" d="M156.137,101.605c-2.243.959,1.537,5.335,3.78,4.377S158.38,100.638,156.137,101.605Z" transform="translate(-4.123 -1.437)" fill="#f3f3f3"/>
  <path id="Path_44" data-name="Path 44" d="M138.554,106.99c-2.433-2.812-5.914-1.329-3.482,1.492.136.154.271.307.407.47,2.433,2.812,5.914,1.329,3.482-1.492C138.826,107.307,138.69,107.153,138.554,106.99Z" transform="translate(-12.846 -10.092)" fill="#f3f3f3"/>
  <path id="Path_45" data-name="Path 45" d="M207.3,104.992c2.243-.959-1.537-5.335-3.78-4.377S205.055,105.951,207.3,104.992Z" transform="translate(-19.409 -9.614)" fill="#f3f3f3"/>
  <path id="Path_46" data-name="Path 46" d="M212.8,78.094c.226-.1.452-.19.678-.289a1.156,1.156,0,0,0,.678-1.167,3.118,3.118,0,0,0-.832-1.763,4.99,4.99,0,0,0-1.845-1.329,2.481,2.481,0,0,0-1.782-.109c-.226.1-.452.19-.678.289a1.155,1.155,0,0,0-.678,1.167,3.119,3.119,0,0,0,.832,1.763,4.99,4.99,0,0,0,1.845,1.329A2.481,2.481,0,0,0,212.8,78.094Z" transform="translate(-19.936 -7.014)" fill="#f3f3f3"/>
  <path id="Path_47" data-name="Path 47" d="M174.947,80.635c-2.243.959,1.537,5.335,3.78,4.377S177.19,79.668,174.947,80.635Z" transform="translate(-16.675 -7.702)" fill="#f3f3f3"/>
  <path id="Path_48" data-name="Path 48" d="M183.906,97.724c-.244-.28-.488-.57-.732-.85a5.1,5.1,0,0,0-1.845-1.329,2.391,2.391,0,0,0-1.781-.109,1.143,1.143,0,0,0-.678,1.167,3.179,3.179,0,0,0,.832,1.763c.244.28.488.57.732.85a5.1,5.1,0,0,0,1.845,1.329,2.391,2.391,0,0,0,1.782.109,1.143,1.143,0,0,0,.678-1.167A3.308,3.308,0,0,0,183.906,97.724Z" transform="translate(-17.116 -9.119)" fill="#f3f3f3"/>
  <path id="Path_49" data-name="Path 49" d="M181.189,63.355a2.391,2.391,0,0,0-1.782-.109,1.143,1.143,0,0,0-.678,1.167,3.179,3.179,0,0,0,.832,1.763c.244.28.488.57.732.85a5.1,5.1,0,0,0,1.845,1.329,2.391,2.391,0,0,0,1.781.109A1.143,1.143,0,0,0,184.6,67.3a3.18,3.18,0,0,0-.832-1.763c-.244-.28-.488-.57-.732-.85A5.02,5.02,0,0,0,181.189,63.355Z" transform="translate(-17.102 -6.039)" fill="#f3f3f3"/>
  <path id="Path_50" data-name="Path 50" d="M148.937,41.042c2.243-.959-1.537-5.335-3.78-4.377S146.695,42,148.937,41.042Z" transform="translate(-13.825 -3.495)" fill="#f3f3f3"/>
  <path id="Path_51" data-name="Path 51" d="M154.4,58.042c2.243-.959-1.537-5.335-3.78-4.377S152.155,59.01,154.4,58.042Z" transform="translate(-14.347 -5.121)" fill="#f3f3f3"/>
  <path id="Path_52" data-name="Path 52" d="M175.227,46.532c2.243-.959-1.537-5.335-3.78-4.377S172.976,47.491,175.227,46.532Z" transform="translate(-16.34 -4.02)" fill="#f3f3f3"/>
  <path id="Path_53" data-name="Path 53" d="M126.387,33.952c2.243-.959-1.537-5.335-3.78-4.377S124.145,34.911,126.387,33.952Z" transform="translate(-11.667 -2.816)" fill="#f3f3f3"/>
  <path id="Path_54" data-name="Path 54" d="M130.351,44.091c-.136-.154-.271-.317-.407-.47-2.433-2.812-5.914-1.329-3.482,1.492.136.154.271.317.407.47C129.3,48.4,132.784,46.912,130.351,44.091Z" transform="translate(-12.023 -4.029)" fill="#f3f3f3"/>
  <path id="Path_55" data-name="Path 55" d="M148.167,80.515c-2.243.959,1.537,5.335,3.78,4.377S150.419,79.548,148.167,80.515Z" transform="translate(-14.113 -7.69)" fill="#f3f3f3"/>
  <path id="Path_56" data-name="Path 56" d="M93.817,40.192c2.243-.959-1.537-5.335-3.78-4.377S91.575,41.151,93.817,40.192Z" transform="translate(-8.551 -3.413)" fill="#f3f3f3"/>
  <path id="Path_57" data-name="Path 57" d="M108.3,25.694c-.244-.28-.488-.57-.732-.85a5.1,5.1,0,0,0-1.845-1.329,2.391,2.391,0,0,0-1.782-.109,1.143,1.143,0,0,0-.678,1.167,3.179,3.179,0,0,0,.832,1.763c.244.28.488.57.732.85a5.1,5.1,0,0,0,1.845,1.329,2.391,2.391,0,0,0,1.782.109,1.143,1.143,0,0,0,.678-1.167A3.271,3.271,0,0,0,108.3,25.694Z" transform="translate(-9.881 -2.227)" fill="#f3f3f3"/>
  <path id="Path_58" data-name="Path 58" d="M62.821,27.276c.244.28.488.57.732.85A5.1,5.1,0,0,0,65.4,29.456a2.391,2.391,0,0,0,1.781.109,1.143,1.143,0,0,0,.678-1.167,3.18,3.18,0,0,0-.832-1.763c-.244-.28-.488-.57-.732-.85a5.1,5.1,0,0,0-1.845-1.329,2.391,2.391,0,0,0-1.781-.109,1.143,1.143,0,0,0-.678,1.167A3.308,3.308,0,0,0,62.821,27.276Z" transform="translate(-5.932 -2.317)" fill="#f3f3f3"/>
  <path id="Path_59" data-name="Path 59" d="M71.481,46.776c.244.28.488.57.732.85a5.1,5.1,0,0,0,1.845,1.329,2.391,2.391,0,0,0,1.782.109,1.143,1.143,0,0,0,.678-1.167,3.179,3.179,0,0,0-.832-1.763c-.244-.28-.488-.57-.732-.85a5.1,5.1,0,0,0-1.845-1.329,2.391,2.391,0,0,0-1.781-.109,1.143,1.143,0,0,0-.678,1.167A3.179,3.179,0,0,0,71.481,46.776Z" transform="translate(-6.76 -4.182)" fill="#f3f3f3"/>
  <path id="Path_60" data-name="Path 60" d="M45.017,43.082c2.243-.959-1.537-5.335-3.78-4.377S42.766,44.041,45.017,43.082Z" transform="translate(-3.881 -3.69)" fill="#f3f3f3"/>
  <path id="Path_61" data-name="Path 61" d="M78.7,68.186c.244.28.488.57.732.85a5.1,5.1,0,0,0,1.845,1.329,2.391,2.391,0,0,0,1.781.109,1.143,1.143,0,0,0,.678-1.167,3.179,3.179,0,0,0-.832-1.763c-.244-.28-.488-.57-.732-.85a5.1,5.1,0,0,0-1.845-1.329,2.391,2.391,0,0,0-1.782-.109,1.143,1.143,0,0,0-.678,1.167A3.179,3.179,0,0,0,78.7,68.186Z" transform="translate(-7.451 -6.231)" fill="#f3f3f3"/>
  <path id="Path_62" data-name="Path 62" d="M77.434,101.56c-2.433-2.812-5.914-1.329-3.482,1.492.136.154.271.317.407.47,2.433,2.812,5.914,1.329,3.482-1.492C77.706,101.877,77.57,101.723,77.434,101.56Z" transform="translate(-6.998 -9.573)" fill="#f3f3f3"/>
  <path id="Path_63" data-name="Path 63" d="M46.748,68.146a2.481,2.481,0,0,0-1.781-.109c-.226.1-.452.19-.678.289a1.155,1.155,0,0,0-.678,1.167,3.119,3.119,0,0,0,.832,1.763,4.99,4.99,0,0,0,1.845,1.329,2.481,2.481,0,0,0,1.781.109c.226-.1.452-.19.678-.289a1.155,1.155,0,0,0,.678-1.167,3.119,3.119,0,0,0-.832-1.763A4.891,4.891,0,0,0,46.748,68.146Z" transform="translate(-4.174 -6.498)" fill="#f3f3f3"/>
  <path id="Path_64" data-name="Path 64" d="M65.147,62.812c2.243-.959-1.537-5.335-3.78-4.377S62.9,63.771,65.147,62.812Z" transform="translate(-5.807 -5.578)" fill="#f3f3f3"/>
  <path id="Path_65" data-name="Path 65" d="M25.028,71c2.243-.959-1.537-5.335-3.78-4.377S22.785,71.961,25.028,71Z" transform="translate(-1.969 -6.361)" fill="#f3f3f3"/>
  <path id="Path_66" data-name="Path 66" d="M42.577,89.656a2.481,2.481,0,0,0,1.782.109c.226-.1.452-.19.678-.289a1.155,1.155,0,0,0,.678-1.167,3.119,3.119,0,0,0-.832-1.763,4.99,4.99,0,0,0-1.845-1.329,2.481,2.481,0,0,0-1.781-.109c-.226.1-.452.19-.678.289a1.155,1.155,0,0,0-.678,1.167,3.119,3.119,0,0,0,.832,1.763A5.02,5.02,0,0,0,42.577,89.656Z" transform="translate(-3.819 -8.131)" fill="#f3f3f3"/>
  <path id="Path_67" data-name="Path 67" d="M25.507,104.785c-2.243.959,1.537,5.335,3.78,4.377S27.75,103.818,25.507,104.785Z" transform="translate(-2.376 -10.012)" fill="#f3f3f3"/>
  <path id="Path_68" data-name="Path 68" d="M41.417,101.825c-2.243.959,1.537,5.335,3.78,4.377S43.66,100.858,41.417,101.825Z" transform="translate(-3.898 -9.729)" fill="#f3f3f3"/>
  <path id="Path_69" data-name="Path 69" d="M.687,83.2c-2.243.959,1.537,5.335,3.78,4.377S2.93,82.228.687,83.2Z" transform="translate(-0.001 -7.947)" fill="#f3f3f3"/>
  <path id="Path_70" data-name="Path 70" d="M28.377,91.492c2.243-.959-1.537-5.335-3.78-4.377S26.135,92.451,28.377,91.492Z" transform="translate(-2.289 -8.322)" fill="#f3f3f3"/>
  <path id="Path_71" data-name="Path 71" d="M15.457,43.315c-2.243.959,1.537,5.335,3.78,4.377S17.7,42.348,15.457,43.315Z" transform="translate(-1.414 -4.131)" fill="#f3f3f3"/>
  <path id="Path_72" data-name="Path 72" d="M40.611,54.231c-.136-.154-.271-.317-.407-.47-2.433-2.812-5.914-1.329-3.482,1.492.136.154.271.317.407.47C39.562,58.535,43.053,57.043,40.611,54.231Z" transform="translate(-3.436 -4.999)" fill="#f3f3f3"/>
  <path id="Path_73" data-name="Path 73" d="M37.987,25.452c2.243-.959-1.537-5.335-3.78-4.377S35.745,26.42,37.987,25.452Z" transform="translate(-3.208 -2.003)" fill="#f3f3f3"/>
  <path id="Path_74" data-name="Path 74" d="M67.947,7.9c-2.243.959,1.537,5.335,3.78,4.377S70.19,6.928,67.947,7.9Z" transform="translate(-6.437 -0.741)" fill="#f3f3f3"/>
  <path id="Path_75" data-name="Path 75" d="M123.978,16.922c2.243-.959-1.537-5.335-3.78-4.377S121.735,17.89,123.978,16.922Z" transform="translate(-11.437 -1.187)" fill="#f3f3f3"/>
  <path id="Path_76" data-name="Path 76" d="M194.348,61.532c2.243-.959-1.537-5.335-3.78-4.377S192.105,62.5,194.348,61.532Z" transform="translate(-18.17 -5.455)" fill="#f3f3f3"/>
  <path id="Path_77" data-name="Path 77" d="M209.478,52.917a1.143,1.143,0,0,0-.678,1.167,3.179,3.179,0,0,0,.832,1.763c.244.28.488.57.732.85a5.094,5.094,0,0,0,1.845,1.329,2.391,2.391,0,0,0,1.781.109,1.143,1.143,0,0,0,.678-1.167,3.18,3.18,0,0,0-.832-1.763c-.244-.28-.488-.57-.733-.85a5.094,5.094,0,0,0-1.845-1.329A2.483,2.483,0,0,0,209.478,52.917Z" transform="translate(-19.98 -5.051)" fill="#f3f3f3"/>
  <path id="Path_78" data-name="Path 78" d="M162.017,27.692c2.243-.959-1.537-5.335-3.78-4.377S159.775,28.651,162.017,27.692Z" transform="translate(-15.076 -2.217)" fill="#f3f3f3"/>
  <path id="Path_79" data-name="Path 79" d="M195.867,85.845c-2.243.959,1.537,5.335,3.78,4.377S198.11,84.878,195.867,85.845Z" transform="translate(-18.677 -8.2)" fill="#f3f3f3"/>
  <path id="Path_80" data-name="Path 80" d="M119.207,112.3c-2.243.959,1.537,5.335,3.78,4.377S121.45,111.328,119.207,112.3Z" transform="translate(-11.342 -10.731)" fill="#f3f3f3"/>
  <path id="Path_81" data-name="Path 81" d="M248.067,79.752c2.243-.959-1.537-5.335-3.78-4.377S245.825,80.72,248.067,79.752Z" transform="translate(-23.31 -7.199)" fill="#f3f3f3"/>
  <path id="Path_82" data-name="Path 82" d="M212.857,88.866c-2.243.959,1.537,5.335,3.78,4.377S215.1,87.907,212.857,88.866Z" transform="translate(-20.303 -8.489)" fill="#f3f3f3"/>
  <path id="Path_83" data-name="Path 83" d="M195.5,39.122c2.243-.959-1.537-5.335-3.78-4.377S193.255,40.081,195.5,39.122Z" transform="translate(-18.28 -3.311)" fill="#f3f3f3"/>
  <path id="Path_84" data-name="Path 84" d="M237.2,56.5c-2.243.959,1.537,5.335,3.78,4.377S239.44,55.537,237.2,56.5Z" transform="translate(-22.632 -5.392)" fill="#f3f3f3"/>
  <path id="Path_85" data-name="Path 85" d="M227.737,75.966a2.481,2.481,0,0,0,1.781.109c.226-.1.452-.19.678-.289a1.155,1.155,0,0,0,.678-1.167,3.119,3.119,0,0,0-.832-1.763,4.99,4.99,0,0,0-1.845-1.329,2.481,2.481,0,0,0-1.781-.109c-.226.1-.452.19-.678.289a1.156,1.156,0,0,0-.678,1.167,3.119,3.119,0,0,0,.832,1.763A4.89,4.89,0,0,0,227.737,75.966Z" transform="translate(-21.536 -6.821)" fill="#f3f3f3"/>
  <path id="Path_86" data-name="Path 86" d="M220.967,43.662c2.243-.959-1.537-5.335-3.78-4.377S218.725,44.621,220.967,43.662Z" transform="translate(-20.717 -3.745)" fill="#f3f3f3"/>
  <path id="Path_87" data-name="Path 87" d="M183.037,19.962c2.243-.959-1.537-5.335-3.78-4.377S180.795,20.921,183.037,19.962Z" transform="translate(-17.088 -1.478)" fill="#f3f3f3"/>
  <path id="Path_88" data-name="Path 88" d="M141.616,19.134c-.244-.28-.488-.57-.733-.85a5.094,5.094,0,0,0-1.845-1.329,2.391,2.391,0,0,0-1.782-.109,1.143,1.143,0,0,0-.678,1.167,3.18,3.18,0,0,0,.832,1.763c.244.28.488.57.732.85a5.1,5.1,0,0,0,1.845,1.329,2.391,2.391,0,0,0,1.781.109,1.143,1.143,0,0,0,.678-1.167A3.271,3.271,0,0,0,141.616,19.134Z" transform="translate(-13.069 -1.599)" fill="#f3f3f3"/>
  <path id="Path_89" data-name="Path 89" d="M144.187,8.252c2.243-.959-1.537-5.335-3.78-4.377S141.945,9.22,144.187,8.252Z" transform="translate(-13.37 -0.357)" fill="#f3f3f3"/>
  <path id="Path_90" data-name="Path 90" d="M92.027.136c-2.243.959,1.537,5.335,3.78,4.377S94.27-.823,92.027.136Z" transform="translate(-8.741 0.001)" fill="#f3f3f3"/>
  <path id="Path_91" data-name="Path 91" d="M87.73,24.141a2.065,2.065,0,0,0,1.438-.018c2.243-.959-1.537-5.335-3.78-4.377-1.42.606-.425,2.586,1.067,3.708A4,4,0,0,0,87.73,24.141Z" transform="translate(-8.106 -1.876)" fill="#f3f3f3"/>
  <path id="Path_93" data-name="Path 93" d="M204.551,25.376c.244.28.488.57.732.85a5.094,5.094,0,0,0,1.845,1.329,2.391,2.391,0,0,0,1.781.109,1.143,1.143,0,0,0,.678-1.167,3.179,3.179,0,0,0-.832-1.763c-.244-.28-.488-.57-.733-.85a5.094,5.094,0,0,0-1.845-1.329,2.391,2.391,0,0,0-1.781-.109,1.143,1.143,0,0,0-.678,1.167A3.308,3.308,0,0,0,204.551,25.376Z" transform="translate(-19.494 -2.135)" fill="#f3f3f3"/>
  <path id="Path_96" data-name="Path 96" d="M84.927,112.806c-2.243.959,1.537,5.335,3.78,4.377S87.17,111.847,84.927,112.806Z" transform="translate(-8.062 -10.78)" fill="#f3f3f3"/>
  <path id="Path_97" data-name="Path 97" d="M61.009,99.014c.226-.1.452-.19.678-.289a1.156,1.156,0,0,0,.678-1.167,3.161,3.161,0,0,0-.823-1.763A4.991,4.991,0,0,0,59.7,94.466a2.481,2.481,0,0,0-1.782-.109c-.226.1-.452.19-.678.289a1.155,1.155,0,0,0-.678,1.167,3.119,3.119,0,0,0,.832,1.763,4.99,4.99,0,0,0,1.845,1.329A2.554,2.554,0,0,0,61.009,99.014Z" transform="translate(-5.413 -9.016)" fill="#f3f3f3"/>
  <path id="Path_98" data-name="Path 98" d="M240.327,40.632c2.243-.959-1.537-5.335-3.78-4.377S238.085,41.591,240.327,40.632Z" transform="translate(-22.57 -3.455)" fill="#f3f3f3"/>
  <path id="Path_99" data-name="Path 99" d="M98.551,73.816c.244.28.488.57.732.85A5.1,5.1,0,0,0,101.129,76a2.391,2.391,0,0,0,1.782.109,1.143,1.143,0,0,0,.678-1.167,3.179,3.179,0,0,0-.832-1.763c-.244-.28-.488-.57-.732-.85a5.1,5.1,0,0,0-1.845-1.329,2.391,2.391,0,0,0-1.782-.109,1.143,1.143,0,0,0-.678,1.167A3.308,3.308,0,0,0,98.551,73.816Z" transform="translate(-9.351 -6.77)" fill="#f3f3f3"/>
  <path id="Path_101" data-name="Path 101" d="M226.141,24.806c.244.28.488.57.732.85a5.1,5.1,0,0,0,1.845,1.329,2.391,2.391,0,0,0,1.781.109,1.143,1.143,0,0,0,.678-1.167,3.18,3.18,0,0,0-.832-1.763c-.244-.28-.488-.57-.732-.85a5.1,5.1,0,0,0-1.845-1.329,2.391,2.391,0,0,0-1.781-.109,1.143,1.143,0,0,0-.678,1.167A3.243,3.243,0,0,0,226.141,24.806Z" transform="translate(-21.559 -2.08)" fill="#f3f3f3"/>
  <path id="Path_102" data-name="Path 102" d="M218.794,112.25c-2.433-2.812-5.914-1.329-3.482,1.492.136.154.271.307.407.47,2.433,2.812,5.914,1.329,3.482-1.492C219.066,112.567,218.93,112.4,218.794,112.25Z" transform="translate(-20.524 -10.596)" fill="#f3f3f3"/>
  <path id="Path_103" data-name="Path 103" d="M226.137,58.806c-2.243.959,1.537,5.335,3.78,4.377S228.38,57.847,226.137,58.806Z" transform="translate(-21.574 -5.613)" fill="#f3f3f3"/>
  <path id="Path_104" data-name="Path 104" d="M259.537,70.292c2.243-.959-1.537-5.335-3.78-4.377S257.295,71.251,259.537,70.292Z" transform="translate(-24.408 -6.293)" fill="#f3f3f3"/>
  <path id="Path_105" data-name="Path 105" d="M237.847,87.9c2.243-.959-1.537-5.335-3.78-4.377S235.6,88.87,237.847,87.9Z" transform="translate(-22.332 -7.978)" fill="#f3f3f3"/>
  <path id="Path_106" data-name="Path 106" d="M228.737,100.536c-2.243.959,1.537,5.335,3.78,4.377S230.98,99.577,228.737,100.536Z" transform="translate(-21.822 -9.606)" fill="#f3f3f3"/>
  <path id="Path_109" data-name="Path 109" d="M247.127,95.566c-2.243.959,1.537,5.335,3.78,4.377S249.37,94.607,247.127,95.566Z" transform="translate(-23.582 -9.13)" fill="#f3f3f3"/>
  <path id="Path_110" data-name="Path 110" d="M254.347,35.4c2.243-.959-1.537-5.335-3.78-4.377S252.1,36.361,254.347,35.4Z" transform="translate(-23.911 -2.955)" fill="#f3f3f3"/>
  <path id="Path_112" data-name="Path 112" d="M88.777,91.272C91.02,90.314,87.24,85.937,85,86.9S86.535,92.24,88.777,91.272Z" transform="translate(-8.068 -8.301)" fill="#f3f3f3"/>
  <path id="Path_114" data-name="Path 114" d="M192.459,110.618a3.223,3.223,0,0,0-.823-1.763c-.244-.28-.488-.57-.733-.85a5.094,5.094,0,0,0-1.845-1.329,2.391,2.391,0,0,0-1.782-.109,1.143,1.143,0,0,0-.678,1.167,3.18,3.18,0,0,0,.832,1.763c.244.28.488.57.733.85a5.1,5.1,0,0,0,1.845,1.329,2.391,2.391,0,0,0,1.781.109A1.149,1.149,0,0,0,192.459,110.618Z" transform="translate(-17.855 -10.184)" fill="#f3f3f3"/>
</svg>
