<svg xmlns="http://www.w3.org/2000/svg" width="346.125" height="356.467" viewBox="0 0 346.125 356.467">
  <g id="Group_262" data-name="Group 262" transform="translate(-1366.433 -276.591)">
    <path id="Path_365" data-name="Path 365" d="M106.749.747C22.625-6.393-22.132,37.926,10.943,120.874s58.982,166.88,119.825,146.745c60.815-20.135,110.086-57.45,104.095-116.871S176.975,6.739,106.749.747Z" transform="matrix(-0.839, 0.545, -0.545, -0.839, 1711.859, 504.169)" fill="none" stroke="#a3a3a3" stroke-miterlimit="10" stroke-width="1" opacity="0.701"/>
    <path id="Path_366" data-name="Path 366" d="M106.749.747C22.625-6.393-22.132,37.926,10.943,120.874s58.982,166.88,119.825,146.745c60.815-20.135,110.086-57.45,104.095-116.871S176.975,6.739,106.749.747Z" transform="matrix(-0.94, 0.342, -0.342, -0.94, 1696.329, 541.684)" fill="none" stroke="#a3a3a3" stroke-miterlimit="10" stroke-width="1" opacity="0.701"/>
    <path id="Path_367" data-name="Path 367" d="M106.749.747C22.625-6.393-22.132,37.926,10.943,120.874s58.982,166.88,119.825,146.745c60.815-20.135,110.086-57.45,104.095-116.871S176.975,6.739,106.749.747Z" transform="translate(1705.168 531.543) rotate(158)" fill="none" stroke="#a3a3a3" stroke-miterlimit="10" stroke-width="1" opacity="0.701"/>
  </g>
</svg>
