<svg xmlns="http://www.w3.org/2000/svg" width="794.996" height="793.949" viewBox="0 0 794.996 793.949">
  <path id="Path_358" data-name="Path 358" d="M261.608,584.819c116.376-4.956,204.566-32.2,284.644-145.068,28.944-40.812,49.777-92.325,38.161-140.712-12.531-52.3-58.33-86.738-95.576-124.173C444.805,130.613,409.233,76.8,358.856,40.4,282.44-14.8,164.612-16.885,100.726,55.68c-27.871,31.627-42.675,72.881-54.7,113.6A1217.218,1217.218,0,0,0,8.37,341.46C2.657,381.294-7.759,425.294,9.506,460.93c19.475,40.149,84.56,88.221,163.217,115.177C172.724,576.107,204.856,587.249,261.608,584.819Z" transform="matrix(-0.883, 0.469, -0.469, -0.883, 794.317, 517.355)" fill="none" stroke="#fff" stroke-width="1"/>
</svg>
