<svg xmlns="http://www.w3.org/2000/svg" width="346.125" height="356.467"><g data-name="Group 255" opacity=".862" fill="none" stroke="#fff" stroke-miterlimit="10"><path data-name="Path 263" d="M255.456 285.128c74.472-39.857 87.87-101.433 14.912-153S129.933 24.26 89.86 74.313C49.81 124.351 28.807 182.511 66.22 229.1s127.052 89.274 189.237 56.028z" opacity=".701" stroke-width="1.00047"/><path data-name="Path 262" d="M229.296 300.898c81.519-22.059 108.433-79.026 48.975-145.685S165.755 18.518 115.448 58.253c-50.28 39.725-83.833 91.652-57.879 145.459s103.666 115.57 171.727 97.186z" opacity=".701" stroke-width="1.00028"/><path data-name="Path 171" d="M239.48 294.247c80.672-24.893 105.568-82.751 43.829-147.27S166.107 14.346 117.237 55.807C68.393 97.256 36.688 150.31 64.503 203.16S172.123 315 239.479 294.247z" opacity=".701"/></g></svg>