<svg xmlns="http://www.w3.org/2000/svg" width="10.274" height="18.99" viewBox="0 0 10.274 18.99"><g transform="translate(0 0)"><path d="M2.869,10.715H.5c-.353,0-.491-.137-.491-.489q0-1.455,0-2.91c0-.355.145-.5.5-.5h2.36V4.732a5.21,5.21,0,0,1,.647-2.673A3.939,3.939,0,0,1,5.637.3a5.241,5.241,0,0,1,1.817-.3q1.168,0,2.336,0c.336,0,.486.147.486.483q0,1.354,0,2.708c0,.341-.143.48-.483.484-.638.007-1.277,0-1.915.028a.894.894,0,0,0-.845.459,1.327,1.327,0,0,0-.141.535c-.016.7-.007,1.4-.007,2.127H9.65c.369,0,.509.14.509.506q0,1.448,0,2.895c0,.365-.131.5-.5.5H6.88v7.723c0,.419-.128.546-.549.546H3.387c-.384,0-.518-.132-.518-.512q0-3.766,0-7.533Z" transform="translate(-0.004 0.006)" fill="#FFF"/></g></svg>
