<svg xmlns="http://www.w3.org/2000/svg" width="10.147" height="18.755" viewBox="0 0 10.147 18.755">
  <g id="jrVJZN.tif_1_" opacity="0.896">
    <g id="Group_74" data-name="Group 74" transform="translate(0 0)">
      <path id="Path_130" data-name="Path 130" d="M2.834,10.583H.489C.141,10.582,0,10.447,0,10.1Q0,8.662,0,7.225c0-.351.143-.491.5-.491H2.834V4.673a5.146,5.146,0,0,1,.639-2.64A3.89,3.89,0,0,1,5.567.292a5.176,5.176,0,0,1,1.795-.3q1.154,0,2.307,0c.332,0,.48.145.48.477q0,1.337,0,2.675c0,.337-.141.474-.477.478-.63.007-1.261,0-1.891.028a.883.883,0,0,0-.835.453,1.311,1.311,0,0,0-.139.528c-.016.691-.006,1.383-.006,2.1H9.531c.364,0,.5.138.5.5q0,1.43,0,2.859c0,.36-.13.489-.492.489H6.8V18.21c0,.414-.127.539-.542.539H3.345c-.379,0-.512-.13-.512-.505q0-3.72,0-7.439Z" transform="translate(-0.004 0.006)" fill="#fff8f8"/>
    </g>
  </g>
</svg>
