<svg xmlns="http://www.w3.org/2000/svg" width="46.475" height="47.208" viewBox="0 0 46.475 47.208">
  <g id="Group_199" data-name="Group 199" transform="translate(-394.379 -626.059)">
    <g id="Group_175" data-name="Group 175" transform="translate(394.905 670.472) rotate(-87)">
      <path id="Path_317" data-name="Path 317" d="M22.507,0S14.376,0,8.414,4.878-1.885,17.887.825,27.644,12.75,41.2,16,42.279s9.757,2.71,20.055-4.336,9.757-20.6,2.71-29.812C34.193,2.146,29.553,0,22.507,0Z" transform="translate(0 0)" fill="none" stroke="#fff" stroke-width="1"/>
    </g>
    <g id="Group_176" data-name="Group 176" transform="translate(411.813 640.158)">
      <path id="ic_mic_24px" d="M11.766,13.065A2.755,2.755,0,0,0,14.523,10.3l.009-5.532A2.766,2.766,0,0,0,9,4.766V10.3A2.762,2.762,0,0,0,11.766,13.065Z" transform="translate(-6.109 -2)" fill="none" stroke="#fff" stroke-width="1"/>
      <path id="Path_319" data-name="Path 319" d="M11.315,7.5A5.657,5.657,0,0,1,0,7.5" transform="translate(0 0.966)" fill="none" stroke="#fff" stroke-width="1"/>
      <line id="Line_17" data-name="Line 17" y2="4.61" transform="translate(5.657 14.292)" fill="none" stroke="#fff" stroke-width="1"/>
      <line id="Line_18" data-name="Line 18" transform="translate(5.196 18.902)" fill="none" stroke="#fff" stroke-width="1"/>
    </g>
  </g>
</svg>
