<svg xmlns="http://www.w3.org/2000/svg" width="53.163" height="53.744" viewBox="0 0 53.163 53.744">
  <g id="Group_193" data-name="Group 193" transform="translate(0.602 0.604)">
    <g id="ic_camera_alt_24px" transform="translate(16.838 17.435)">
      <path id="Path_89" data-name="Path 89" d="M8.6,2,6.874,3.886H3.886A1.891,1.891,0,0,0,2,5.771V17.085a1.891,1.891,0,0,0,1.886,1.886H18.971a1.891,1.891,0,0,0,1.886-1.886V5.771a1.891,1.891,0,0,0-1.886-1.886H15.982L14.257,2Zm2.828,14.142a4.714,4.714,0,1,1,4.714-4.714A4.716,4.716,0,0,1,11.428,16.142Z" transform="translate(-2 -2)" fill="none" stroke="#fff" stroke-width="1"/>
    </g>
    <path id="Path_317" data-name="Path 317" d="M22.507,0S14.376,0,8.414,4.878-1.885,17.887.825,27.644,12.75,41.2,16,42.279s9.757,2.71,20.055-4.336,9.757-20.6,2.71-29.812C34.193,2.146,29.553,0,22.507,0Z" transform="translate(0 42.817) rotate(-77)" fill="none" stroke="#fff" stroke-width="1"/>
  </g>
</svg>
