<svg xmlns="http://www.w3.org/2000/svg" width="51.318" height="51.947" viewBox="0 0 51.318 51.947">
  <g id="Group_255" data-name="Group 255" transform="translate(0.512 -177.423)">
    <path id="Path_317" data-name="Path 317" d="M22.507,0S14.376,0,8.414,4.878-1.885,17.887.825,27.644,12.75,41.2,16,42.279s9.757,2.71,20.055-4.336,9.757-20.6,2.71-29.812C34.193,2.146,29.553,0,22.507,0Z" transform="matrix(-0.174, 0.985, -0.985, -0.174, 50.225, 185.51)" fill="none" stroke="#fff" stroke-width="1"/>
    <path id="ic_videocam_24px" d="M17.918,10.8V7.066A1.069,1.069,0,0,0,16.853,6H4.066A1.069,1.069,0,0,0,3,7.066V17.722a1.069,1.069,0,0,0,1.066,1.066H16.853a1.069,1.069,0,0,0,1.066-1.066v-3.73l4.262,4.262V6.533Z" transform="translate(13.536 191.449)" fill="none" stroke="#fff" stroke-width="1"/>
  </g>
</svg>
