<svg xmlns="http://www.w3.org/2000/svg" width="18.755" height="18.75">
  <g opacity="0.896" fill="#fff8f8">
    <path d="M0,13.829v-8.9c.006-.057.013-.113.019-.17A5.051,5.051,0,0,1,1.043,2.091,5.008,5.008,0,0,1,5.113.014c2.8-.028,5.6-.007,8.4-.008a4.963,4.963,0,0,1,2.548.652,5.03,5.03,0,0,1,2.68,4.5c.037,2.821.013,5.643,0,8.465a5.17,5.17,0,0,1-.1.952,4.988,4.988,0,0,1-1.226,2.445A5.135,5.135,0,0,1,14.219,18.7c-.131.018-.263.031-.394.046h-8.9a.621.621,0,0,0-.076-.013,4.965,4.965,0,0,1-1.088-.192,5.218,5.218,0,0,1-3.711-4.32C.027,14.092.015,13.961,0,13.829ZM9.373,4.173a5.205,5.205,0,1,0,5.206,5.208A5.2,5.2,0,0,0,9.373,4.173Zm5.205-1.041A1.042,1.042,0,1,0,15.62,2.087,1.047,1.047,0,0,0,14.578,3.132Z" transform="translate(0 0.001)"/>
    <path d="M254.725,252.02a2.975,2.975,0,1,1-2.975,2.974A2.975,2.975,0,0,1,254.725,252.02Z" transform="translate(-245.353 -245.616)"/>
  </g>
</svg>
