<svg xmlns="http://www.w3.org/2000/svg" width="19" height="18.995" viewBox="0 0 19 18.995"><g transform="translate(0 0)"><path d="M0,14.01V4.99c.006-.057.014-.114.019-.172a5.117,5.117,0,0,1,1.037-2.7A5.074,5.074,0,0,1,5.18.014c2.835-.029,5.67-.008,8.5-.009a5.028,5.028,0,0,1,2.581.661A5.1,5.1,0,0,1,18.98,5.223c.038,2.858.013,5.717,0,8.575a5.238,5.238,0,0,1-.1.965,5.053,5.053,0,0,1-1.242,2.476A5.2,5.2,0,0,1,14.4,18.947c-.133.018-.266.031-.4.046H4.985a.628.628,0,0,0-.077-.014,5.03,5.03,0,0,1-1.1-.195,5.286,5.286,0,0,1-3.76-4.377C.028,14.276.015,14.143,0,14.01ZM9.5,4.228A5.273,5.273,0,1,0,14.769,9.5,5.267,5.267,0,0,0,9.5,4.228Zm5.273-1.055a1.056,1.056,0,1,0,1.055-1.058A1.061,1.061,0,0,0,14.769,3.173Z" transform="translate(0 0.001)" fill="#FFF"/><path d="M254.515,252.02a2.765,2.765,0,1,1-2.765,2.764A2.765,2.765,0,0,1,254.515,252.02Z" transform="translate(-245.021 -245.284)" fill="#FFF"/></g></svg>
