<svg id="Logo_tagline_V1" data-name="Logo tagline V1" xmlns="http://www.w3.org/2000/svg" width="177.285" height="49.624" viewBox="0 0 177.285 49.624">
  <g id="Group_105" data-name="Group 105">
    <path id="Path_29" data-name="Path 29" d="M144.7,15.294l.6.769a.78.78,0,0,0,.5.263c.061.006.122.012.183.012a.948.948,0,0,0,.654-.214,1.045,1.045,0,0,0,.281-.836,5,5,0,0,0-.7-2.32c-.153-.281-.312-.562-.471-.843-.22-.385-.434-.775-.636-1.166a3.663,3.663,0,0,1-.483-2.009c.043-.513.232-.708.721-.757a5.994,5.994,0,0,1,1-.006,4.223,4.223,0,0,0,2.445-.568A.765.765,0,0,0,149.149,7a.748.748,0,0,0-.422-.58c-.245-.1-.5-.183-.746-.269l-.281-.092-2-.116-.153.024L145.3,6l-.7.073c-.5.049-1,.1-1.492.171a1.758,1.758,0,0,0-1.571,1.264,5.82,5.82,0,0,0-.226,1.771,6.016,6.016,0,0,0,1.3,3.3C143.292,13.493,144.007,14.409,144.7,15.294Z" transform="translate(-54.917 -2.31)" fill="#932e2e"/>
    <path id="Path_30" data-name="Path 30" d="M149.273,30.726a6.388,6.388,0,0,0-1.009,3.218,3.221,3.221,0,0,0-.024.4,3.6,3.6,0,0,0,.795,2.583A4.66,4.66,0,0,0,151.278,38l.1.012c.128.018.3.037.526.049.978.043,2.873-.14,5.667-2.021a13.138,13.138,0,0,0,3.271-3.37c.128-.177.251-.342.361-.482.269-.354.55-.714.819-1.026.281,1.752.948,3.743,2.494,4.366.691.72,1.577.983,3.314,1.014.147.012,3.583.2,13.016-2.644a.461.461,0,0,0,.312-.4,1.144,1.144,0,0,0-.318-.959,1.038,1.038,0,0,0-.831-.153c-9.244,2.168-11.989,1.954-12.044,1.948-2.189.006-3.142-3.828-3.356-5.831-.031-.653-.159-1.8-.685-2.106l-.079-.049a3.046,3.046,0,0,0-1.785-.5c-.379-.006-1.626.153-1.773,2.43-1.186,2.351-4,6.814-6.413,7.235a1.971,1.971,0,0,1-1.535-.372,2.656,2.656,0,0,1-.141-1.105c.018-1.374,1-3.419,2.617-5.465.306-.342.569-.653.752-.9a6.927,6.927,0,0,1,2.415-2.021c.061.049.165.153.208.2a2.142,2.142,0,0,0,1.528.769,1.544,1.544,0,0,0,1.1-.623,1.986,1.986,0,0,0,.532-1.221,1.7,1.7,0,0,0-.728-1.2,3.686,3.686,0,0,0-2.207-.836c-2.189-.037-4.72,1.587-6.945,4.457A19.228,19.228,0,0,0,149.273,30.726Z" transform="translate(-57.608 -8.852)" fill="#932e2e"/>
    <path id="Path_31" data-name="Path 31" d="M75.123,33.2a4.215,4.215,0,0,0-1.681-.244.538.538,0,0,0-.391.14.61.61,0,0,0-.122.6,2.605,2.605,0,0,1-.477,1.984c-2.476,4.072-3.833,5.019-5.624,6a3.657,3.657,0,0,1-2.348.574,3.414,3.414,0,0,1-.147-1.02c-.061-2.094,1.932-5.361,3.833-7.37a4.341,4.341,0,0,1,1.583-1.252q.064.046.22.183a2.142,2.142,0,0,0,1.516.7h.043a1.6,1.6,0,0,0,1.076-.684,2,2,0,0,0,.477-1.233,1.869,1.869,0,0,0-1-1.313,3.663,3.663,0,0,0-2.024-.592c-2.189.055-4.646,1.789-6.749,4.744-1.8,2.534-2.977,5.458-2.922,7.284a3.6,3.6,0,0,0,.9,2.546,2.9,2.9,0,0,0,2,.788c.055,0,.1.006.165.006h.135c1.675-.043,4.591-.714,5.8-2.369A28.175,28.175,0,0,0,72.836,39.3c.257-.36.514-.727.764-1.05.459,1.722,1.84,4.054,3.473,4.628.838.8,2.286.885,3.491.9A3.766,3.766,0,0,0,82.93,42.8c.85-.7,1.938-2.711,3.1-4.842,1.388-2.558,3.3-6.069,4.255-5.843.562.128.611,2.79.642,4.549.049,2.723.1,5.1,1.119,5.55a1.228,1.228,0,0,0,.679-.024,3.581,3.581,0,0,0,2.562-2.168c.929-3.419,4.084-8.121,5.031-9.305l.483-.629c.813-1.075.5-1.068,1.987-1.349l.135-.024c.177-.031.287-.049.385-.067.257-.043.355-.061,1.259-.287-.092,1.081-.293,2.332-.489,3.56-.391,2.43-.734,4.53-.257,6.051a2.031,2.031,0,0,0,1.333,1.807,3.872,3.872,0,0,0,2.727-.14c3.576-1.16,9.58-7.992,9.837-9.677a.636.636,0,0,0-.159-.653.374.374,0,0,0-.416-.012,10.5,10.5,0,0,0-2.476,2.65c-1.2,1.551-5.936,4.646-7.22,5.117-.33.122-.428.067-.434.067-.116-.061-.251-.446-.165-1.233a25.893,25.893,0,0,1,.978-4.188c.562-1.942,1.045-3.621.783-4.524a2.224,2.224,0,0,0-1.522-1.734,3.49,3.49,0,0,0-2.164.2l-1.333.458a6.181,6.181,0,0,1-3.087.519c-1.094-.177-3.888-.434-4.42.55-.208.379-.055.818.44,1.288a3.39,3.39,0,0,0,1.272.623,76.359,76.359,0,0,0-4.42,9.275c-.043.348-.44.788-.5.366a17.169,17.169,0,0,1,.312-3.517c.11-.861.226-1.758.275-2.6a7.267,7.267,0,0,0-.746-3.718A3.459,3.459,0,0,0,90.2,27.524a1.781,1.781,0,0,0-1.449.415,11.576,11.576,0,0,0-1.663,3.077c-2.017,5.141-4.86,10.386-6.652,10.526a1.038,1.038,0,0,1-.135.006c-2.036,0-3.13-3.731-3.424-5.733-.024-.11-.037-.311-.055-.482a2.564,2.564,0,0,0-.092-.635,1.107,1.107,0,0,0-.251-.379A3.163,3.163,0,0,0,75.123,33.2Zm-1.369,4.421Z" transform="translate(-23.466 -9.869)" fill="#932e2e"/>
    <path id="Path_32" data-name="Path 32" d="M15.728,22.925c.935,8.456,1.687,11.882,5.912,14.312a5.636,5.636,0,0,0,2.623.531A8.651,8.651,0,0,0,30.175,34.9c5.221-5.562,11.084-20.961,13.9-28.361l.043-.11c.385-1.014.721-1.887.984-2.558l.11-.293c.031-.122.116-.348.214-.617.55-1.5.85-2.436.367-2.8-.776-.58-1.852.446-2.238.812l-.116.2C43.368,1.384,34.613,23.511,28.3,32c-1.455,2.345-3.069,2.558-3.583,2.577a2.812,2.812,0,0,1-2.183-.836c-1.938-1.679-4.157-6.338-3.7-19.013v-.012a33.122,33.122,0,0,1,.923-5.7l.018-.073-.018-.073c-.116-.44-.379-1.465-1.241-1.6-1.266-.2-2.776.879-3.3,3.737A37.1,37.1,0,0,1,13.1,18.388c-.067.153-.483.983-1.07,2.137l-.092.183c-1.565,3.12-4.481,8.908-6.132,12.535C5.763,33.323.884,43.58.035,47.152A1.793,1.793,0,0,0,.75,49.118a1.565,1.565,0,0,0,.813.208h.043c.043,0,.092-.006.134-.006A4.734,4.734,0,0,0,4.07,48.184l.134-.11.049-.165C6.961,39.276,14.359,24.4,15.453,22.3A3.233,3.233,0,0,1,15.728,22.925Z" transform="translate(0.005 0.005)" fill="#932e2e"/>
    <path id="Path_33" data-name="Path 33" d="M121.871,54.01l-.752.006c-2.776.012-5.643.024-8.467.085-3.485.073-6.309.165-8.889.293-2.629.128-5.5.317-8.767.586-1.81.147-3.644.336-5.411.525l-1.779.183q-1.871.192-3.729.391c-.88.092-1.755.189-2.635.281l-3.2.33-4.255.44c-1.614.165-3.234.336-4.848.513l-1.547.165c-1.62.171-3.3.348-4.928.586-1.143.165-2.28.342-3.424.519-2.4.372-4.885.757-7.349,1.026-1.553.171-3.106.354-4.659.537-.838.1-1.669.2-2.507.293l-2.555.293c-1.528.177-3.057.348-4.585.531-1.382.165-2.763.342-4.139.519-1.137.147-2.268.287-3.405.427A36.36,36.36,0,0,0,24.09,63.73,48.115,48.115,0,0,0,14.04,68.151a3.969,3.969,0,0,0-1.571,1.417l-.018.037v.531l.037.043a1.519,1.519,0,0,0,1.223.476h.079a5.115,5.115,0,0,0,2.146-.464c.984-.458,1.938-.946,2.855-1.423a34.6,34.6,0,0,1,5.472-2.406,49.335,49.335,0,0,1,8.473-1.655q2.238-.293,4.475-.592,2.137-.284,4.273-.562c2.439-.317,4.976-.635,7.544-.946,1.663-.2,3.332-.391,4.995-.58l1.186-.134c1.039-.116,2.073-.238,3.112-.354l3.21-.366c.465-.055.935-.1,1.4-.159,1.247-.14,2.543-.281,3.809-.458,1.51-.208,3.014-.427,4.518-.641,2.25-.33,4.579-.666,6.878-.952,3.521-.446,7.379-.873,12.148-1.362,2.176-.22,4.4-.409,6.548-.592q1.77-.147,3.546-.305l2.769-.256c1.223-.116,2.445-.232,3.668-.336,2.128-.177,4.414-.366,6.676-.507,2.213-.14,4.457-.25,6.664-.324,1.284-.043,2.592-.061,3.858-.073l1.73-.018C125.723,55.164,133.725,54.4,121.871,54.01Z" transform="translate(-4.835 -21.03)" fill="#932e2e"/>
  </g>
  <g id="Group_107" data-name="Group 107" transform="translate(140.419 8.656)">
    <path id="Path_169" data-name="Path 169" d="M3.252,7.44a3.294,3.294,0,0,1-1.281-.247,2.914,2.914,0,0,1-1.029-.72A3.411,3.411,0,0,1,.252,5.3,4.644,4.644,0,0,1,0,3.715a4.326,4.326,0,0,1,.273-1.59A3.534,3.534,0,0,1,1,.957,3,3,0,0,1,2.048.242,3.286,3.286,0,0,1,3.293,0a4.755,4.755,0,0,1,.731.051,3.969,3.969,0,0,1,1,.283A1.845,1.845,0,0,1,5.29.473l-.226.607a4.086,4.086,0,0,0-.654-.3A2.809,2.809,0,0,0,3.427.628,2.805,2.805,0,0,0,2.259.854a2.306,2.306,0,0,0-.839.638,2.764,2.764,0,0,0-.509.978,4.358,4.358,0,0,0-.17,1.255,4.49,4.49,0,0,0,.17,1.281,2.746,2.746,0,0,0,.5.972,2.2,2.2,0,0,0,.808.617,2.638,2.638,0,0,0,1.1.216,4.274,4.274,0,0,0,1.137-.129,3.269,3.269,0,0,0,.695-.262l.2.6a1.191,1.191,0,0,1-.247.118q-.175.067-.443.139a4.837,4.837,0,0,1-.618.118A6,6,0,0,1,3.252,7.44Zm7.8-2.809a3.439,3.439,0,0,1-.18,1.142,2.547,2.547,0,0,1-.5.875,2.3,2.3,0,0,1-.767.561,2.482,2.482,0,0,1-1.955,0,2.3,2.3,0,0,1-.767-.561,2.547,2.547,0,0,1-.5-.875A3.439,3.439,0,0,1,6.2,4.631a3.439,3.439,0,0,1,.18-1.142,2.6,2.6,0,0,1,.5-.88,2.265,2.265,0,0,1,.767-.566,2.482,2.482,0,0,1,1.955,0,2.265,2.265,0,0,1,.767.566,2.6,2.6,0,0,1,.5.88A3.439,3.439,0,0,1,11.054,4.631Zm-.71,0a2.511,2.511,0,0,0-.463-1.59,1.51,1.51,0,0,0-1.256-.592,1.51,1.51,0,0,0-1.256.592,2.511,2.511,0,0,0-.463,1.59,2.489,2.489,0,0,0,.463,1.585A1.515,1.515,0,0,0,8.625,6.8,1.515,1.515,0,0,0,9.88,6.215,2.489,2.489,0,0,0,10.343,4.631ZM12.5,2.151q.3-.082.8-.185a6.3,6.3,0,0,1,1.235-.1,2.571,2.571,0,0,1,1.014.175,1.557,1.557,0,0,1,.648.5,2.036,2.036,0,0,1,.345.777,4.507,4.507,0,0,1,.1,1V7.286h-.669V4.528a5.038,5.038,0,0,0-.077-.957,1.6,1.6,0,0,0-.257-.638,1,1,0,0,0-.473-.355,2.15,2.15,0,0,0-.736-.108,5.63,5.63,0,0,0-.818.051,2.508,2.508,0,0,0-.448.093V7.286H12.5Zm5.537,2.47a3.377,3.377,0,0,1,.2-1.219,2.686,2.686,0,0,1,.525-.87,2.066,2.066,0,0,1,.741-.52,2.258,2.258,0,0,1,.859-.17,2.007,2.007,0,0,1,1.559.638,2.845,2.845,0,0,1,.581,1.965q0,.082-.005.165t-.015.154H18.752a2.353,2.353,0,0,0,.484,1.5,1.806,1.806,0,0,0,1.441.525,2.912,2.912,0,0,0,.865-.1A3.609,3.609,0,0,0,22,6.514l.124.576a2.781,2.781,0,0,1-.54.2,3.41,3.41,0,0,1-.931.113,3.1,3.1,0,0,1-1.194-.206,2.137,2.137,0,0,1-.813-.576,2.278,2.278,0,0,1-.463-.88A4.092,4.092,0,0,1,18.042,4.62ZM21.819,4.2a2.113,2.113,0,0,0-.391-1.3,1.267,1.267,0,0,0-1.05-.463,1.4,1.4,0,0,0-.643.144,1.634,1.634,0,0,0-.494.386,1.792,1.792,0,0,0-.329.561,2.3,2.3,0,0,0-.139.669ZM26.2,7.4a2.84,2.84,0,0,1-1.091-.2,2.052,2.052,0,0,1-.787-.561,2.508,2.508,0,0,1-.479-.875,3.649,3.649,0,0,1-.165-1.127,3.63,3.63,0,0,1,.17-1.142,2.575,2.575,0,0,1,.489-.885,2.161,2.161,0,0,1,.772-.571,2.489,2.489,0,0,1,1.019-.2,4.29,4.29,0,0,1,.808.072,2.033,2.033,0,0,1,.581.185l-.175.576a2.161,2.161,0,0,0-.463-.165,3.072,3.072,0,0,0-.69-.062,1.619,1.619,0,0,0-1.343.571,2.533,2.533,0,0,0-.458,1.621,3.454,3.454,0,0,0,.1.87,1.752,1.752,0,0,0,.334.679,1.565,1.565,0,0,0,.6.442,2.221,2.221,0,0,0,.89.16,2.32,2.32,0,0,0,.726-.1,2.932,2.932,0,0,0,.427-.17l.144.576a2.511,2.511,0,0,1-.581.2A3.447,3.447,0,0,1,26.2,7.4Zm3.16-5.433h2.12v.566h-2.12v2.83a2.874,2.874,0,0,0,.077.736,1.027,1.027,0,0,0,.221.437.7.7,0,0,0,.35.206,1.866,1.866,0,0,0,.453.051,1.951,1.951,0,0,0,.679-.1,2.957,2.957,0,0,0,.4-.18l.165.556a2.42,2.42,0,0,1-.5.211,2.493,2.493,0,0,1-.782.118,2.322,2.322,0,0,1-.829-.129,1.2,1.2,0,0,1-.535-.391,1.6,1.6,0,0,1-.283-.653,4.549,4.549,0,0,1-.082-.926V.4l.669-.123ZM32.4,4.62A3.377,3.377,0,0,1,32.6,3.4a2.686,2.686,0,0,1,.525-.87,2.066,2.066,0,0,1,.741-.52,2.258,2.258,0,0,1,.859-.17,2.007,2.007,0,0,1,1.559.638,2.845,2.845,0,0,1,.581,1.965q0,.082-.005.165t-.015.154H33.109a2.353,2.353,0,0,0,.484,1.5,1.806,1.806,0,0,0,1.441.525,2.912,2.912,0,0,0,.865-.1,3.609,3.609,0,0,0,.463-.175l.124.576a2.781,2.781,0,0,1-.54.2,3.41,3.41,0,0,1-.931.113,3.1,3.1,0,0,1-1.194-.206,2.137,2.137,0,0,1-.813-.576,2.278,2.278,0,0,1-.463-.88A4.092,4.092,0,0,1,32.4,4.62ZM36.176,4.2a2.113,2.113,0,0,0-.391-1.3,1.267,1.267,0,0,0-1.05-.463,1.4,1.4,0,0,0-.643.144,1.634,1.634,0,0,0-.494.386,1.792,1.792,0,0,0-.329.561,2.3,2.3,0,0,0-.139.669Z" transform="translate(0 10.739)" fill="#932e2e"/>
    <path id="Path_170" data-name="Path 170" d="M3.252,8.14a3.293,3.293,0,0,1-1.281-.247,2.914,2.914,0,0,1-1.029-.72A3.411,3.411,0,0,1,.252,6,4.643,4.643,0,0,1,0,4.415a4.326,4.326,0,0,1,.273-1.59A3.534,3.534,0,0,1,1,1.657,3,3,0,0,1,2.048.942,3.286,3.286,0,0,1,3.293.7a4.755,4.755,0,0,1,.731.051,3.969,3.969,0,0,1,1,.283,1.845,1.845,0,0,1,.268.139l-.226.607a4.086,4.086,0,0,0-.654-.3,2.809,2.809,0,0,0-.983-.149,2.805,2.805,0,0,0-1.168.226,2.306,2.306,0,0,0-.839.638,2.764,2.764,0,0,0-.509.978,4.358,4.358,0,0,0-.17,1.255,4.49,4.49,0,0,0,.17,1.281,2.746,2.746,0,0,0,.5.972,2.2,2.2,0,0,0,.808.617,2.638,2.638,0,0,0,1.1.216,4.275,4.275,0,0,0,1.137-.129,3.269,3.269,0,0,0,.695-.262l.2.6a1.191,1.191,0,0,1-.247.118q-.175.067-.443.139a4.837,4.837,0,0,1-.618.118A6,6,0,0,1,3.252,8.14Zm7.256-.34q-.3.082-.8.185a6.3,6.3,0,0,1-1.235.1,2.5,2.5,0,0,1-1-.175,1.621,1.621,0,0,1-.648-.494,2,2,0,0,1-.355-.772,4.3,4.3,0,0,1-.108-1V2.665h.669V5.433a4.731,4.731,0,0,0,.082.957,1.555,1.555,0,0,0,.268.633,1.044,1.044,0,0,0,.479.35,2.079,2.079,0,0,0,.715.108A5.739,5.739,0,0,0,9.4,7.43a2.215,2.215,0,0,0,.443-.093V2.665h.669Zm3.118.278a2.267,2.267,0,0,1-.592-.087,1.057,1.057,0,0,1-.422-.237,1,1,0,0,1-.257-.412,1.954,1.954,0,0,1-.087-.633V.123L12.937,0V6.689a1.376,1.376,0,0,0,.046.4.536.536,0,0,0,.139.237.563.563,0,0,0,.242.129,3.061,3.061,0,0,0,.355.072Zm1.9-5.413h2.12v.566h-2.12v2.83a2.874,2.874,0,0,0,.077.736,1.027,1.027,0,0,0,.221.437.7.7,0,0,0,.35.206,1.866,1.866,0,0,0,.453.051,1.951,1.951,0,0,0,.679-.1,2.957,2.957,0,0,0,.4-.18l.165.556a2.42,2.42,0,0,1-.5.211,2.493,2.493,0,0,1-.782.118,2.322,2.322,0,0,1-.829-.129,1.2,1.2,0,0,1-.535-.391,1.6,1.6,0,0,1-.283-.653A4.549,4.549,0,0,1,14.862,6V1.1l.669-.123Zm4.024,5.32h-.669V2.665h.669Zm.154-6.925a.5.5,0,0,1-.144.376.51.51,0,0,1-.7,0,.5.5,0,0,1-.144-.376.5.5,0,0,1,.144-.376.51.51,0,0,1,.7,0A.5.5,0,0,1,19.709,1.06Zm3.221,6.205q.216-.442.443-1.014t.437-1.183q.211-.612.391-1.235t.3-1.168h.669q-.185.731-.412,1.441T24.284,5.5q-.252.679-.525,1.307t-.53,1.183h-.638q-.268-.556-.535-1.183T21.536,5.5q-.252-.679-.479-1.389t-.412-1.441h.71q.124.545.3,1.168t.391,1.235q.211.612.437,1.183T22.931,7.265ZM25.946,5.32a3.377,3.377,0,0,1,.2-1.219,2.686,2.686,0,0,1,.525-.87,2.066,2.066,0,0,1,.741-.52,2.258,2.258,0,0,1,.859-.17,2.007,2.007,0,0,1,1.559.638,2.845,2.845,0,0,1,.581,1.965q0,.082-.005.165t-.015.154H26.656a2.353,2.353,0,0,0,.484,1.5,1.806,1.806,0,0,0,1.441.525,2.912,2.912,0,0,0,.865-.1,3.609,3.609,0,0,0,.463-.175l.124.576a2.781,2.781,0,0,1-.54.2,3.41,3.41,0,0,1-.931.113,3.1,3.1,0,0,1-1.194-.206,2.137,2.137,0,0,1-.813-.576,2.278,2.278,0,0,1-.463-.88A4.092,4.092,0,0,1,25.946,5.32ZM29.723,4.9a2.113,2.113,0,0,0-.391-1.3,1.267,1.267,0,0,0-1.05-.463,1.4,1.4,0,0,0-.643.144,1.634,1.634,0,0,0-.494.386,1.792,1.792,0,0,0-.329.561,2.3,2.3,0,0,0-.139.669Z" transform="translate(0 20.872)" fill="#932e2e"/>
    <g id="Path_168" data-name="Path 168" transform="translate(0.288 0)" fill="#932e2e">
      <path d="M 18.42268180847168 7.466536045074463 C 17.93603134155273 7.466536045074463 17.57098197937012 7.425495624542236 17.30667114257812 7.341085910797119 C 17.04991149902344 7.259065628051758 16.88131141662598 7.197305679321289 16.79122161865234 7.152276039123535 L 16.67961120605469 7.096475601196289 L 16.71417236328125 6.976565837860107 L 16.88913154602051 6.369425773620605 L 16.94589233398438 6.172445774078369 L 17.1164722442627 6.286155700683594 C 17.11858177185059 6.2875657081604 17.13971138000488 6.30107593536377 17.22860145568848 6.341065883636475 C 17.29187202453613 6.369525909423828 17.38019180297852 6.402155876159668 17.49112129211426 6.438045978546143 C 17.60031127929688 6.473375797271729 17.73349189758301 6.504525661468506 17.88694190979004 6.530655860900879 C 18.03913116455078 6.55655574798584 18.21938133239746 6.569685935974121 18.42268180847168 6.569685935974121 C 18.78134155273438 6.569685935974121 19.07883262634277 6.511085987091064 19.30688285827637 6.395505905151367 C 19.50710296630859 6.294045925140381 19.60035133361816 6.132195949554443 19.60035133361816 5.886155605316162 C 19.60035133361816 5.763405799865723 19.58200263977051 5.658835887908936 19.54582214355469 5.575345993041992 C 19.51126289367676 5.49561595916748 19.45159149169922 5.421475887298584 19.36848258972168 5.354995727539062 C 19.27592277526855 5.280955791473389 19.15000152587891 5.207955837249756 18.99421119689941 5.138015747070312 C 18.8281421661377 5.063465595245361 18.61990165710449 4.973995685577393 18.37529182434082 4.872096061706543 C 18.17505264282227 4.78924560546875 17.98204231262207 4.70326566696167 17.80193138122559 4.616695880889893 C 17.61345291137695 4.526095867156982 17.44392204284668 4.419136047363281 17.29803276062012 4.29878568649292 C 17.14588165283203 4.173295974731445 17.02244186401367 4.020956039428711 16.93115234375 3.845995903015137 C 16.83791160583496 3.667295932769775 16.7906322479248 3.450065851211548 16.7906322479248 3.200335741043091 C 16.7906322479248 2.723095893859863 16.97355270385742 2.330945730209351 17.33432197570801 2.034765720367432 C 17.68624114990234 1.745865821838379 18.17015266418457 1.599385857582092 18.77261161804199 1.599385857582092 C 19.1473217010498 1.599385857582092 19.46305274963379 1.632175803184509 19.71102142333984 1.696855783462524 C 19.96012115478516 1.761825799942017 20.1329517364502 1.819265842437744 20.2393913269043 1.872475862503052 L 20.34793281555176 1.926735877990723 L 20.31754302978516 2.044205904006958 L 20.16316223144531 2.641055822372437 L 20.11672210693359 2.820605754852295 L 19.95085144042969 2.737655878067017 C 19.87457275390625 2.699515819549561 19.74020195007324 2.64659571647644 19.55146217346191 2.58038592338562 C 19.37283134460449 2.517715930938721 19.10040283203125 2.485935926437378 18.74173164367676 2.485935926437378 C 18.60283279418945 2.485935926437378 18.47048187255859 2.500225782394409 18.34834289550781 2.528405904769897 C 18.23170280456543 2.555315732955933 18.12789154052734 2.597255945205688 18.03980255126953 2.653035879135132 C 17.95545196533203 2.706445932388306 17.89009284973145 2.771655797958374 17.8399715423584 2.85239577293396 C 17.79348182678223 2.92728590965271 17.76991271972656 3.023575782775879 17.76991271972656 3.138595819473267 C 17.76991271972656 3.257105827331543 17.79167175292969 3.357995748519897 17.83459281921387 3.43846583366394 C 17.87868118286133 3.521125793457031 17.94560241699219 3.59609580039978 18.03347206115723 3.661285877227783 C 18.13049125671387 3.733255863189697 18.25250244140625 3.802105903625488 18.3961124420166 3.865915775299072 C 18.54881286621094 3.933775901794434 18.72594261169434 4.009425640106201 18.92258262634277 4.090775966644287 C 19.12811279296875 4.172976016998291 19.3293628692627 4.258715629577637 19.51910209655762 4.344945907592773 C 19.71910285949707 4.435845851898193 19.89846229553223 4.546885967254639 20.05221176147461 4.674975872039795 C 20.21065139770508 4.806995868682861 20.34065246582031 4.96751594543457 20.43862152099609 5.152095794677734 C 20.53901290893555 5.341265678405762 20.58991241455078 5.577856063842773 20.58991241455078 5.85528564453125 C 20.58991241455078 6.385705947875977 20.38619232177734 6.794325828552246 19.98440170288086 7.069795608520508 C 19.60042190551758 7.333055973052979 19.07498168945312 7.466536045074463 18.42268180847168 7.466536045074463 Z M 24.03182220458984 7.456245899200439 C 23.54754257202148 7.456245899200439 23.12646293640137 7.383115768432617 22.78027153015137 7.238905906677246 C 22.43069267272949 7.093266010284424 22.1383113861084 6.885725975036621 21.91122245788574 6.622056007385254 C 21.68515205383301 6.359555721282959 21.51901245117188 6.044335842132568 21.41740226745605 5.685155868530273 C 21.31803131103516 5.33387565612793 21.26765251159668 4.944495677947998 21.26765251159668 4.527815818786621 C 21.26765251159668 4.044935703277588 21.33856201171875 3.616485834121704 21.47842216491699 3.254345893859863 C 21.61846160888672 2.891735792160034 21.80512237548828 2.583055734634399 22.03321266174316 2.336895942687988 C 22.26335144042969 2.088525772094727 22.53065299987793 1.901245832443237 22.82767295837402 1.780255794525146 C 23.1223030090332 1.66023588180542 23.43048286437988 1.599385857582092 23.74365234375 1.599385857582092 C 24.43638229370117 1.599385857582092 24.99828147888184 1.83051586151123 25.41375160217285 2.28635573387146 C 25.8255729675293 2.738195896148682 26.03438186645508 3.433475732803345 26.03438186645508 4.352875709533691 C 26.03438186645508 4.410655975341797 26.03255271911621 4.46919584274292 26.02895164489746 4.526885986328125 C 26.02529144287109 4.585415840148926 26.01969146728516 4.641335964202881 26.01229286193848 4.693085670471191 L 25.99389266967773 4.821876049041748 L 25.86380195617676 4.821876049041748 L 22.28560447692871 4.821876049041748 C 22.32384872436523 5.360790252685547 22.47140693664551 5.78229284286499 22.7250919342041 6.076295852661133 C 22.99580192565918 6.390025615692139 23.4423713684082 6.549105644226074 24.05241203308105 6.549105644226074 C 24.398681640625 6.549105644226074 24.67406272888184 6.516915798187256 24.87090301513672 6.453435897827148 C 25.07543182373047 6.387475967407227 25.22417259216309 6.33150577545166 25.31300163269043 6.28709602355957 L 25.48618125915527 6.20050573348999 L 25.52675247192383 6.389825820922852 L 25.6502513885498 6.966095924377441 L 25.67324256896973 7.073355674743652 L 25.5779914855957 7.127765655517578 C 25.47040176391602 7.189235687255859 25.28280258178711 7.257765769958496 25.00445175170898 7.337275981903076 C 24.72810173034668 7.416215896606445 24.4008617401123 7.456245899200439 24.03182220458984 7.456245899200439 Z M 22.31312942504883 3.955905914306641 L 25.0377082824707 3.955905914306641 C 25.00667190551758 3.509442090988159 24.88882446289062 3.155754566192627 24.68660163879395 2.903015851974487 C 24.46759223937988 2.62928581237793 24.16252136230469 2.496225833892822 23.75394248962402 2.496225833892822 C 23.5388011932373 2.496225833892822 23.34528160095215 2.53920578956604 23.17873191833496 2.62397575378418 C 23.00812149047852 2.710815906524658 22.85704231262207 2.828845739364624 22.72969245910645 2.97480583190918 C 22.60167121887207 3.121535778045654 22.50015258789062 3.294605731964111 22.4279613494873 3.489185810089111 C 22.37261962890625 3.638359785079956 22.33416938781738 3.794763803482056 22.31312942504883 3.955905914306641 Z M 8.130681991577148 7.456245899200439 C 7.646401882171631 7.456245899200439 7.225322246551514 7.383115768432617 6.879132270812988 7.238905906677246 C 6.529561996459961 7.093266010284424 6.23717212677002 6.885735988616943 6.010082244873047 6.622056007385254 C 5.784011840820312 6.359555721282959 5.61787223815918 6.044335842132568 5.516262054443359 5.685155868530273 C 5.416892051696777 5.33387565612793 5.366512298583984 4.944495677947998 5.366512298583984 4.527815818786621 C 5.366512298583984 4.04494571685791 5.437422275543213 3.616495847702026 5.577271938323975 3.254345893859863 C 5.717331886291504 2.891705751419067 5.903992176055908 2.583035945892334 6.132081985473633 2.336895942687988 C 6.362212181091309 2.088525772094727 6.629512310028076 1.901245832443237 6.92653226852417 1.780255794525146 C 7.221161842346191 1.66023588180542 7.529342174530029 1.599385857582092 7.842502117156982 1.599385857582092 C 8.535242080688477 1.599385857582092 9.097151756286621 1.83051586151123 9.512601852416992 2.28635573387146 C 9.924431800842285 2.738195896148682 10.13324165344238 3.433475732803345 10.13324165344238 4.352875709533691 C 10.13324165344238 4.410545825958252 10.13141250610352 4.469095706939697 10.1278018951416 4.526885986328125 C 10.12413215637207 4.585495948791504 10.11853218078613 4.641415596008301 10.11115169525146 4.693085670471191 L 10.09275245666504 4.821876049041748 L 9.962661743164062 4.821876049041748 L 6.384465217590332 4.821876049041748 C 6.422708988189697 5.360804080963135 6.570267200469971 5.782301902770996 6.823952198028564 6.076295852661133 C 7.094662189483643 6.390025615692139 7.541232109069824 6.549105644226074 8.151262283325195 6.549105644226074 C 8.497542381286621 6.549105644226074 8.772922515869141 6.516915798187256 8.969752311706543 6.453435897827148 C 9.174282073974609 6.387475967407227 9.32302188873291 6.33150577545166 9.41185188293457 6.28709602355957 L 9.58502197265625 6.20050573348999 L 9.625601768493652 6.389815807342529 L 9.749112129211426 6.966085910797119 L 9.772102355957031 7.073355674743652 L 9.676852226257324 7.127765655517578 C 9.569262504577637 7.189235687255859 9.381662368774414 7.257765769958496 9.103312492370605 7.337275981903076 C 8.82695198059082 7.416215896606445 8.499711990356445 7.456245899200439 8.130681991577148 7.456245899200439 Z M 6.411979675292969 3.955905914306641 L 9.136565208435059 3.955905914306641 C 9.105521202087402 3.509427785873413 8.987676620483398 3.155745506286621 8.785462379455566 2.903015851974487 C 8.566442489624023 2.62928581237793 8.261371612548828 2.496225833892822 7.852802276611328 2.496225833892822 C 7.637661933898926 2.496225833892822 7.444131851196289 2.53920578956604 7.277592182159424 2.62397575378418 C 7.106982231140137 2.710815906524658 6.955902099609375 2.828845739364624 6.82855224609375 2.97480583190918 C 6.700531959533691 3.121535778045654 6.599011898040771 3.294605731964111 6.526822090148926 3.489185810089111 C 6.471479892730713 3.638352155685425 6.433022975921631 3.79475998878479 6.411979675292969 3.955905914306641 Z M 15.77326202392578 7.343045711517334 L 15.62326240539551 7.343045711517334 L 14.9542818069458 7.343045711517334 L 14.80428218841553 7.343045711517334 L 14.80428218841553 7.193045616149902 L 14.80428218841553 4.435195922851562 C 14.80428218841553 4.069375991821289 14.77926254272461 3.757165908813477 14.72993183135986 3.507235765457153 C 14.6829719543457 3.269345760345459 14.60514163970947 3.074655771255493 14.49860191345215 2.928565740585327 C 14.39539241790771 2.787055730819702 14.26322174072266 2.688055753707886 14.09451198577881 2.625905752182007 C 13.91655254364014 2.560345888137817 13.68640232086182 2.527105808258057 13.41047191619873 2.527105808258057 C 13.10372161865234 2.527105808258057 12.83588218688965 2.543865919113159 12.61440181732178 2.576915740966797 C 12.4578275680542 2.600280523300171 12.35805320739746 2.619279146194458 12.29456233978271 2.633801937103271 L 12.29456233978271 7.193045616149902 L 12.29456233978271 7.343045711517334 L 12.14456176757812 7.343045711517334 L 11.47558212280273 7.343045711517334 L 11.32558250427246 7.343045711517334 L 11.32558250427246 7.193045616149902 L 11.32558250427246 2.058095932006836 L 11.32558250427246 1.943865776062012 L 11.43570232391357 1.913495779037476 C 11.6371021270752 1.857945799827576 11.9105224609375 1.794825792312622 12.24836254119873 1.725895881652832 C 12.59285163879395 1.655605792999268 13.01847171783447 1.619965791702271 13.51340198516846 1.619965791702271 C 13.93683242797852 1.619965791702271 14.29786205291748 1.682935833930969 14.58645248413086 1.807125806808472 C 14.88069248199463 1.933735847473145 15.11934185028076 2.117825746536255 15.29577255249023 2.354285717010498 C 15.46886253356934 2.586245775222778 15.59363174438477 2.866635799407959 15.66661167144775 3.187665939331055 C 15.73738193511963 3.499025821685791 15.77326202392578 3.846045732498169 15.77326202392578 4.219095706939697 L 15.77326202392578 7.193045616149902 L 15.77326202392578 7.343045711517334 Z M 0.8498520851135254 7.343045711517334 L 0.6998520493507385 7.343045711517334 L 2.077636736430577e-06 7.343045711517334 L -0.1499979197978973 7.343045711517334 L -0.1499979197978973 7.193045616149902 L -0.1499979197978973 0.1955158263444901 L -0.1499979197978973 0.08149582892656326 L -0.04013792052865028 0.05098582804203033 C 0.2143120765686035 -0.01968417130410671 0.5157520771026611 -0.07150416821241379 0.8558120727539062 -0.1030541732907295 C 1.191662073135376 -0.134204164147377 1.509702086448669 -0.1500041782855988 1.801102042198181 -0.1500041782855988 C 2.839152097702026 -0.1500041782855988 3.628472089767456 0.05450582876801491 4.14713191986084 0.4578558206558228 C 4.677271842956543 0.8701358437538147 4.946072101593018 1.460465788841248 4.946072101593018 2.212455749511719 C 4.946072101593018 2.63908576965332 4.867912292480469 3.009825944900513 4.71378231048584 3.314385890960693 C 4.558321952819824 3.621525764465332 4.333152294158936 3.872945785522461 4.044502258300781 4.06165599822998 C 3.762212038040161 4.246205806732178 3.413962125778198 4.381525993347168 3.009442090988159 4.463845729827881 C 2.613752126693726 4.544365882873535 2.162192106246948 4.585196018218994 1.667302131652832 4.585196018218994 L 0.8498520851135254 4.585196018218994 L 0.8498520851135254 7.193045616149902 L 0.8498520851135254 7.343045711517334 Z M 0.8498520851135254 3.678055763244629 L 1.584972023963928 3.678055763244629 C 1.953392028808594 3.678055763244629 2.290642023086548 3.656075716018677 2.587342023849487 3.612745761871338 C 2.873232126235962 3.570985794067383 3.119182109832764 3.493715763092041 3.318372011184692 3.383065938949585 C 3.51104211807251 3.276045799255371 3.655132055282593 3.132095813751221 3.758872032165527 2.942975759506226 C 3.86269211769104 2.753665924072266 3.915342092514038 2.504425764083862 3.915342092514038 2.202165842056274 C 3.915342092514038 1.916295886039734 3.858792066574097 1.679655790328979 3.74727201461792 1.498825788497925 C 3.634191989898682 1.315495848655701 3.482362031936646 1.168315887451172 3.295992136001587 1.061395883560181 C 3.102652072906494 0.9504858255386353 2.878192186355591 0.8715658187866211 2.628842115402222 0.8268158435821533 C 2.371232032775879 0.7805758118629456 2.103132009506226 0.757135808467865 1.831972122192383 0.757135808467865 C 1.577182054519653 0.757135808467865 1.358582019805908 0.765565812587738 1.182232022285461 0.7822058200836182 C 1.059714198112488 0.7937611937522888 0.9489260315895081 0.8045341372489929 0.8498520851135254 0.8145290017127991 L 0.8498520851135254 3.678055763244629 Z" stroke="none"/>
      <path d="M 1.801101684570312 -4.291534423828125e-06 C 1.512922286987305 -4.291534423828125e-06 1.202451705932617 0.01543569564819336 0.8696727752685547 0.04630565643310547 C 0.5369014739990234 0.07717561721801758 0.2470016479492188 0.1269159317016602 1.9073486328125e-06 0.1955156326293945 L 1.9073486328125e-06 7.193045616149902 L 0.6998519897460938 7.193045616149902 L 0.6998519897460938 4.435195922851562 L 1.667301177978516 4.435195922851562 C 2.154462814331055 4.435195922851562 2.59187126159668 4.395745754241943 2.979532241821289 4.316855907440186 C 3.367202758789062 4.23796558380127 3.694831848144531 4.111045837402344 3.962421417236328 3.936105728149414 C 4.230012893676758 3.761165857315063 4.43585205078125 3.531345844268799 4.57994270324707 3.246645927429199 C 4.724031448364258 2.9619460105896 4.796072006225586 2.617215633392334 4.796072006225586 2.212455749511719 C 4.796072006225586 1.505836009979248 4.549062728881836 0.9604458808898926 4.055051803588867 0.576265811920166 C 3.561031341552734 0.1920857429504395 2.809711456298828 -4.291534423828125e-06 1.801101684570312 -4.291534423828125e-06 M 1.584972381591797 3.828055858612061 L 0.6998519897460938 3.828055858612061 L 0.6998519897460938 0.679175853729248 C 0.8302211761474609 0.6654558181762695 0.9863128662109375 0.6500158309936523 1.168142318725586 0.6328659057617188 C 1.349971771240234 0.6157159805297852 1.57124137878418 0.6071357727050781 1.831972122192383 0.6071357727050781 C 2.113292694091797 0.6071357727050781 2.38774299621582 0.6311459541320801 2.655332565307617 0.679175853729248 C 2.922931671142578 0.7271957397460938 3.161361694335938 0.8112359046936035 3.370632171630859 0.9312858581542969 C 3.579902648925781 1.051345825195312 3.748003005981445 1.21427583694458 3.874942779541016 1.420085906982422 C 4.001873016357422 1.625895977020264 4.065341949462891 1.886585712432861 4.065341949462891 2.202165603637695 C 4.065341949462891 2.531455993652344 4.007022857666016 2.802445888519287 3.890371322631836 3.015115737915039 C 3.773731231689453 3.227776050567627 3.607341766357422 3.394145727157593 3.391212463378906 3.514195919036865 C 3.175081253051758 3.634255886077881 2.914352416992188 3.716575860977173 2.60902214050293 3.761165857315063 C 2.303691864013672 3.805765867233276 1.96234130859375 3.828055858612061 1.584972381591797 3.828055858612061 M 7.842502593994141 1.749385833740234 C 7.54747200012207 1.749385833740234 7.261001586914062 1.805975914001465 6.983121871948242 1.919175624847412 C 6.705242156982422 2.032365798950195 6.458232879638672 2.205595970153809 6.242101669311523 2.438845634460449 C 6.025962829589844 2.672095775604248 5.851001739501953 2.9619460105896 5.717201232910156 3.308385848999023 C 5.583412170410156 3.654835939407349 5.516511917114258 4.061305999755859 5.516511917114258 4.527815818786621 C 5.516511917114258 4.932565689086914 5.564542770385742 5.304745674133301 5.660602569580078 5.644325733184814 C 5.756662368774414 5.98391580581665 5.911041259765625 6.277195930480957 6.123741149902344 6.524165630340576 C 6.336442947387695 6.771135807037354 6.607461929321289 6.963225841522217 6.936811447143555 7.100435733795166 C 7.266151428222656 7.237635612487793 7.664112091064453 7.306245803833008 8.130681991577148 7.306245803833008 C 8.487472534179688 7.306245803833008 8.797941207885742 7.268506050109863 9.062101364135742 7.193045616149902 C 9.326272964477539 7.1175856590271 9.506381988525391 7.052405834197998 9.602441787719727 6.997525691986084 L 9.478931427001953 6.421256065368652 C 9.382871627807617 6.46928596496582 9.228492736816406 6.527595996856689 9.015792846679688 6.596195697784424 C 8.803092956542969 6.664795875549316 8.514911651611328 6.699105739593506 8.151262283325195 6.699105739593506 C 7.492572784423828 6.699105739593506 7.01228141784668 6.524165630340576 6.710382461547852 6.174285888671875 C 6.408481597900391 5.824415683746338 6.247241973876953 5.323605537414551 6.226661682128906 4.671875953674316 L 9.962661743164062 4.671875953674316 C 9.969522476196289 4.623855590820312 9.974661827087402 4.572405815124512 9.978092193603516 4.517525672912598 C 9.981521606445312 4.46263599395752 9.983242034912109 4.407755851745605 9.983242034912109 4.352875709533691 C 9.983242034912109 3.467895746231079 9.789411544799805 2.812736034393311 9.401742935180664 2.387395858764648 C 9.014081954956055 1.962055683135986 8.494331359863281 1.749385833740234 7.842502593994141 1.749385833740234 M 9.293682098388672 4.105905532836914 L 6.247241973876953 4.105905532836914 C 6.260961532592773 3.872655868530273 6.307281494140625 3.649685859680176 6.38618278503418 3.437015771865845 C 6.465091705322266 3.224345684051514 6.574872970581055 3.037405967712402 6.715532302856445 2.876185894012451 C 6.856191635131836 2.714975833892822 7.020862579345703 2.5863356590271 7.209541320800781 2.490295886993408 C 7.398231506347656 2.394255638122559 7.612651824951172 2.346225738525391 7.852802276611328 2.346225738525391 C 8.305641174316406 2.346225738525391 8.655572891235352 2.500586032867432 8.902582168579102 2.809305667877197 C 9.149591445922852 3.118015766143799 9.279953002929688 3.550215721130371 9.293682098388672 4.105905532836914 M 18.77261161804199 1.749385833740234 C 18.20312118530273 1.749385833740234 17.75541305541992 1.883155822753906 17.42950248718262 2.150705814361572 C 17.10359191894531 2.418265819549561 16.94063186645508 2.768136024475098 16.94063186645508 3.20033597946167 C 16.94063186645508 3.4267258644104 16.98180198669434 3.618815898895264 17.06413269042969 3.776605844497681 C 17.1464729309082 3.934395790100098 17.25625228881836 4.069885730743408 17.39348220825195 4.183075904846191 C 17.53071212768555 4.296276092529297 17.68852233886719 4.395745754241943 17.86691284179688 4.481505870819092 C 18.04531097412109 4.567255973815918 18.2339916229248 4.65129566192627 18.4329719543457 4.733625888824463 C 18.67998123168945 4.836525917053223 18.88753128051758 4.925705909729004 19.05564117431641 5.001175880432129 C 19.22374153137207 5.076635837554932 19.3592529296875 5.155526161193848 19.46217155456543 5.237855911254883 C 19.56509208679199 5.320176124572754 19.63885116577148 5.412796020507812 19.68345260620117 5.515695571899414 C 19.72805213928223 5.618605613708496 19.75035095214844 5.742085933685303 19.75035095214844 5.88615608215332 C 19.75035095214844 6.188005924224854 19.62513160705566 6.402395725250244 19.37469100952148 6.529305934906006 C 19.12425231933594 6.656225681304932 18.80691146850586 6.719686031341553 18.42268180847168 6.719686031341553 C 18.20998191833496 6.719686031341553 18.02301216125488 6.705965995788574 17.86177253723145 6.678525924682617 C 17.70052337646484 6.651075839996338 17.56158065795898 6.618495941162109 17.44494247436523 6.580765724182129 C 17.32830238342285 6.543025970458984 17.23567199707031 6.508725643157959 17.16706085205078 6.477855682373047 C 17.09844207763672 6.446985721588135 17.05384254455566 6.424685955047607 17.03326225280762 6.410965919494629 L 16.85830307006836 7.018105983734131 C 16.94063186645508 7.059265613555908 17.10530090332031 7.119296073913574 17.3523120880127 7.198185920715332 C 17.59932327270508 7.277085781097412 17.95611190795898 7.316535949707031 18.42268180847168 7.316535949707031 C 19.04706192016602 7.316535949707031 19.53936195373535 7.193045616149902 19.89958190917969 6.946075916290283 C 20.25980186462402 6.699105739593506 20.43991088867188 6.335505962371826 20.43991088867188 5.85528564453125 C 20.43991088867188 5.601455688476562 20.39531326293945 5.390495777130127 20.30612182617188 5.222415924072266 C 20.21692276000977 5.054335594177246 20.10028266906738 4.910275936126709 19.95619201660156 4.790215492248535 C 19.81210136413574 4.670166015625 19.64571189880371 4.567255973815918 19.45703125 4.481505870819092 C 19.26834106445312 4.395745754241943 19.07108306884766 4.311716079711914 18.86524200439453 4.229385852813721 C 18.66626167297363 4.147066116333008 18.48958206176758 4.071596145629883 18.33520126342773 4.002995491027832 C 18.18082237243652 3.934395790100098 18.05045318603516 3.860645771026611 17.9441032409668 3.781755924224854 C 17.83775329589844 3.702855825424194 17.75713348388672 3.611955881118774 17.70224189758301 3.509055852890015 C 17.64735221862793 3.406145811080933 17.61991119384766 3.282665729522705 17.61991119384766 3.138596057891846 C 17.61991119384766 2.994525909423828 17.65078163146973 2.872756004333496 17.71253204345703 2.773285865783691 C 17.77428245544434 2.673805713653564 17.85662078857422 2.591485977172852 17.95954132080078 2.526315689086914 C 18.06246185302734 2.461135864257812 18.18082237243652 2.413115978240967 18.31461143493652 2.382246017456055 C 18.44841194152832 2.351376056671143 18.59078216552734 2.335935592651367 18.74173164367676 2.335935592651367 C 19.11911201477051 2.335935592651367 19.40557098388672 2.370235919952393 19.60111236572266 2.438845634460449 C 19.79666137695312 2.507445812225342 19.93561172485352 2.562325954437256 20.01794242858887 2.603495597839355 L 20.17232131958008 2.006645679473877 C 20.07626152038574 1.958625793457031 19.90988159179688 1.903735637664795 19.67316246032715 1.841995716094971 C 19.43644142150879 1.780255794525146 19.13626098632812 1.749385833740234 18.77261161804199 1.749385833740234 M 23.74364280700684 1.749385833740234 C 23.44861221313477 1.749385833740234 23.16215133666992 1.805975914001465 22.88426208496094 1.919175624847412 C 22.60638236999512 2.032365798950195 22.35937118530273 2.205595970153809 22.14324188232422 2.438845634460449 C 21.9271125793457 2.672095775604248 21.75214195251465 2.9619460105896 21.61835098266602 3.308385848999023 C 21.48455238342285 3.654835939407349 21.41765213012695 4.061305999755859 21.41765213012695 4.527815818786621 C 21.41765213012695 4.932565689086914 21.46568298339844 5.304745674133301 21.56174278259277 5.644325733184814 C 21.65780258178711 5.98391580581665 21.81218147277832 6.277195930480957 22.02488136291504 6.524165630340576 C 22.23758125305176 6.771135807037354 22.50861167907715 6.963225841522217 22.83795166015625 7.100435733795166 C 23.16729164123535 7.237635612487793 23.56525230407715 7.306245803833008 24.03182220458984 7.306245803833008 C 24.38861274719238 7.306245803833008 24.69909286499023 7.268506050109863 24.96325302124023 7.193045616149902 C 25.2274112701416 7.1175856590271 25.40752220153809 7.052405834197998 25.50358200073242 6.997525691986084 L 25.38008117675781 6.421256065368652 C 25.28401184082031 6.46928596496582 25.1296329498291 6.527595996856689 24.91693115234375 6.596195697784424 C 24.70423126220703 6.664795875549316 24.41606140136719 6.699105739593506 24.05241203308105 6.699105739593506 C 23.39372253417969 6.699105739593506 22.91342163085938 6.524165630340576 22.61152267456055 6.174285888671875 C 22.30963134765625 5.824415683746338 22.14838218688965 5.323605537414551 22.1278018951416 4.671875953674316 L 25.86380195617676 4.671875953674316 C 25.87066268920898 4.623855590820312 25.87580299377441 4.572405815124512 25.87924194335938 4.517525672912598 C 25.88267135620117 4.46263599395752 25.8843822479248 4.407755851745605 25.8843822479248 4.352875709533691 C 25.8843822479248 3.467895746231079 25.6905517578125 2.812736034393311 25.30288124084473 2.387395858764648 C 24.91522216796875 1.962055683135986 24.39547157287598 1.749385833740234 23.74364280700684 1.749385833740234 M 25.19482231140137 4.105905532836914 L 22.14839172363281 4.105905532836914 C 22.16211128234863 3.872655868530273 22.20842170715332 3.649685859680176 22.28733253479004 3.437015771865845 C 22.36623191833496 3.224345684051514 22.47601127624512 3.037405967712402 22.61667251586914 2.876185894012451 C 22.75733184814453 2.714975833892822 22.9220027923584 2.5863356590271 23.11069107055664 2.490295886993408 C 23.29938125610352 2.394255638122559 23.51379203796387 2.346225738525391 23.75394248962402 2.346225738525391 C 24.2067928314209 2.346225738525391 24.55671119689941 2.500586032867432 24.8037223815918 2.809305667877197 C 25.05073165893555 3.118015766143799 25.18110275268555 3.550215721130371 25.19482231140137 4.105905532836914 M 13.51340198516846 1.769965648651123 C 13.02624225616455 1.769965648651123 12.61456203460693 1.804265975952148 12.27835178375244 1.872865676879883 C 11.94215202331543 1.941465854644775 11.67456245422363 2.003215789794922 11.47558212280273 2.058095932006836 L 11.47558212280273 7.193045616149902 L 12.14456176757812 7.193045616149902 L 12.14456176757812 2.52116584777832 C 12.21317195892334 2.493725776672363 12.36241245269775 2.462855815887451 12.59226226806641 2.428555965423584 C 12.82212162017822 2.394255638122559 13.09485244750977 2.377105712890625 13.41047191619873 2.377105712890625 C 13.70551204681396 2.377105712890625 13.95081233978271 2.413115978240967 14.1463623046875 2.485146045684814 C 14.3419017791748 2.557185649871826 14.49971199035645 2.675525665283203 14.61979198455811 2.840175628662109 C 14.7398624420166 3.004816055297852 14.82563209533691 3.217485904693604 14.8770923614502 3.478185892105103 C 14.92855167388916 3.738875865936279 14.9542818069458 4.057875633239746 14.9542818069458 4.435195922851562 L 14.9542818069458 7.193045616149902 L 15.62326240539551 7.193045616149902 L 15.62326240539551 4.219096183776855 C 15.62326240539551 3.855495929718018 15.58895206451416 3.522775888442993 15.52034187316895 3.220915794372559 C 15.45172214508057 2.919065952301025 15.33680248260498 2.660085678100586 15.17555236816406 2.443985939025879 C 15.01431179046631 2.227885723114014 14.79818248748779 2.061525821685791 14.52716255187988 1.944905757904053 C 14.25613212585449 1.828275680541992 13.91821193695068 1.769965648651123 13.51340198516846 1.769965648651123 M 1.801101684570312 -0.3000040054321289 C 2.873292922973633 -0.3000040054321289 3.693592071533203 -0.08486413955688477 4.239212036132812 0.3394455909729004 C 4.807781219482422 0.7816057205200195 5.096071243286133 1.411776065826416 5.096071243286133 2.212455749511719 C 5.096071243286133 2.662835597991943 5.012481689453125 3.056365966796875 4.847612380981445 3.382115840911865 C 4.680122375488281 3.713045835494995 4.437532424926758 3.98391580581665 4.126581192016602 4.187205791473389 C 3.828342437744141 4.382185935974121 3.462541580200195 4.524715900421143 3.039352416992188 4.610825538635254 C 2.633842468261719 4.693355560302734 2.172222137451172 4.735196113586426 1.667301177978516 4.735196113586426 L 0.9998512268066406 4.735196113586426 L 0.9998512268066406 7.193045616149902 L 0.9998512268066406 7.493045806884766 L 0.6998519897460938 7.493045806884766 L 1.9073486328125e-06 7.493045806884766 L -0.2999973297119141 7.493045806884766 L -0.2999973297119141 7.193045616149902 L -0.2999973297119141 0.1955156326293945 L -0.2999973297119141 -0.03252410888671875 L -0.08027839660644531 -0.09354400634765625 C 0.1827316284179688 -0.1665940284729004 0.4930229187011719 -0.2200441360473633 0.8419628143310547 -0.2524142265319824 C 1.182392120361328 -0.283994197845459 1.505102157592773 -0.3000040054321289 1.801101684570312 -0.3000040054321289 Z M 1.584972381591797 3.528055906295776 C 1.946161270141602 3.528055906295776 2.276111602783203 3.506605863571167 2.565662384033203 3.464315891265869 C 2.833532333374023 3.425195932388306 3.062273025512695 3.353745937347412 3.245532989501953 3.251945972442627 C 3.412742614746094 3.159065723419189 3.537631988525391 3.034405708312988 3.627342224121094 2.870845794677734 C 3.718912124633789 2.703896045684814 3.765342712402344 2.478915691375732 3.765342712402344 2.202165603637695 C 3.765342712402344 1.944515705108643 3.716302871704102 1.734375953674316 3.619602203369141 1.577565670013428 C 3.518383026123047 1.413465976715088 3.388113021850586 1.28717565536499 3.221342086791992 1.191505908966064 C 3.04298210144043 1.08918571472168 2.834712982177734 1.01615571975708 2.60234260559082 0.9744558334350586 C 2.353452682495117 0.9297857284545898 2.094272613525391 0.9071359634399414 1.831972122192383 0.9071359634399414 C 1.581872940063477 0.9071359634399414 1.368001937866211 0.9153456687927246 1.196311950683594 0.9315357208251953 C 1.12706184387207 0.9380702972412109 1.061582565307617 0.9443526268005371 0.9998512268066406 0.9503841400146484 L 0.9998512268066406 3.528055906295776 L 1.584972381591797 3.528055906295776 Z M 7.842502593994141 1.449385643005371 C 8.579202651977539 1.449385643005371 9.178401947021484 1.696985721588135 9.623472213745117 2.185315608978271 C 10.0612621307373 2.665645599365234 10.28324222564697 3.394915819168091 10.28324222564697 4.352875709533691 C 10.28324222564697 4.413655757904053 10.28131198883057 4.475345611572266 10.277512550354 4.536235809326172 C 10.27360248565674 4.598805904388428 10.26759243011475 4.658715724945068 10.25964164733887 4.714305877685547 L 10.22285175323486 4.97187614440918 L 9.962661743164062 4.97187614440918 L 6.549245834350586 4.97187614440918 C 6.600421905517578 5.400759220123291 6.73052978515625 5.738427639007568 6.937511444091797 5.978295803070068 C 7.178451538085938 6.25752592086792 7.586812973022461 6.399106025695801 8.151262283325195 6.399106025695801 C 8.481891632080078 6.399106025695801 8.741771697998047 6.36935567855835 8.923702239990234 6.310675621032715 C 9.169502258300781 6.231405735015869 9.288352966308594 6.181135654449463 9.344772338867188 6.152925968170166 L 9.691122055053711 5.979755878448486 L 9.772272109985352 6.358386039733887 L 9.895782470703125 6.934655666351318 L 9.94176197052002 7.149175643920898 L 9.751262664794922 7.258015632629395 C 9.63142204284668 7.326475620269775 9.438621520996094 7.397495746612549 9.144502639770508 7.481505870819092 C 8.854751586914062 7.564275741577148 8.513652801513672 7.606245994567871 8.130681991577148 7.606245994567871 C 7.626502990722656 7.606245994567871 7.186012268066406 7.52923583984375 6.821441650390625 7.377366065979004 C 6.450122833251953 7.222665786743164 6.13890266418457 7.001475811004639 5.896421432495117 6.719935894012451 C 5.65599250793457 6.440765857696533 5.479522705078125 6.106345653533936 5.371932983398438 5.725986003875732 C 5.268802642822266 5.361415863037109 5.216512680053711 4.958295822143555 5.216512680053711 4.527815818786621 C 5.216512680053711 4.026395797729492 5.290811538696289 3.579765796661377 5.437341690063477 3.200315952301025 C 5.584281921386719 2.819865703582764 5.781002044677734 2.495075702667236 6.022052764892578 2.234935760498047 C 6.267192840576172 1.970376014709473 6.552471160888672 1.770665645599365 6.869951248168945 1.641345977783203 C 7.182611465454102 1.513965606689453 7.509832382202148 1.449385643005371 7.842502593994141 1.449385643005371 Z M 8.971376419067383 3.805905818939209 C 8.928464889526367 3.466359376907349 8.826974868774414 3.194997310638428 8.668331146240234 2.9967360496521 C 8.479621887207031 2.760875701904297 8.212862014770508 2.646225929260254 7.852802276611328 2.646225929260254 C 7.658842086791992 2.646225929260254 7.492942810058594 2.682675838470459 7.345623016357422 2.757655620574951 C 7.192201614379883 2.835755825042725 7.056262969970703 2.941985607147217 6.941581726074219 3.073415756225586 C 6.825542449951172 3.20641565322876 6.733312606811523 3.363865852355957 6.667442321777344 3.541375875473022 C 6.635635375976562 3.627110481262207 6.609827041625977 3.715477705001831 6.590131759643555 3.805905818939209 L 8.971376419067383 3.805905818939209 Z M 18.77261161804199 1.449385643005371 C 19.16555213928223 1.449385643005371 19.48489189147949 1.482855796813965 19.74887275695801 1.551705837249756 C 20.00819206237793 1.619345664978027 20.19058227539062 1.680376052856445 20.30646133422852 1.738306045532227 L 20.52353286743164 1.846816062927246 L 20.46276092529297 2.081765651702881 L 20.30838203430176 2.678616046905518 L 20.21550178527832 3.037705898284912 L 19.88376235961914 2.87181568145752 C 19.83519172668457 2.847525596618652 19.72950172424316 2.801805973052979 19.50180244445801 2.721935749053955 C 19.38998222351074 2.682695865631104 19.16737174987793 2.63593578338623 18.74173164367676 2.63593578338623 C 18.61417198181152 2.63593578338623 18.49316215515137 2.648935794830322 18.38205146789551 2.67456579208374 C 18.28195190429688 2.697665691375732 18.19380187988281 2.733055591583252 18.12005233764648 2.779765605926514 C 18.05525207519531 2.820796012878418 18.00533294677734 2.870425701141357 17.96742248535156 2.931505680084229 C 17.93589210510254 2.982285976409912 17.91991233825684 3.051955699920654 17.91991233825684 3.138596057891846 C 17.91991233825684 3.232225894927979 17.93573188781738 3.309365749359131 17.96694183349609 3.367865800857544 C 18.00097274780273 3.431655883789062 18.05197143554688 3.488235712051392 18.12285232543945 3.540825843811035 C 18.21103286743164 3.60623574256897 18.32346153259277 3.669495820999146 18.45702171325684 3.728845834732056 C 18.60854148864746 3.796175718307495 18.78447151184082 3.871315717697144 18.97993278503418 3.952175855636597 C 19.18595123291016 4.034555912017822 19.38933181762695 4.121205806732178 19.58116149902344 4.208395957946777 C 19.79338264465332 4.304835796356201 19.98417282104492 4.423046112060547 20.14822196960449 4.559725761413574 C 20.32171249389648 4.704285621643066 20.46399307250977 4.879925727844238 20.57112121582031 5.081786155700684 C 20.6831226348877 5.292855739593506 20.73991203308105 5.553095817565918 20.73991203308105 5.85528564453125 C 20.73991203308105 6.438145637512207 20.51426315307617 6.888385772705078 20.06922149658203 7.193505764007568 C 19.6598014831543 7.47420597076416 19.10582160949707 7.616535663604736 18.42268180847168 7.616535663604736 C 17.92029190063477 7.616535663604736 17.54031181335449 7.573165893554688 17.26103210449219 7.483965873718262 C 16.90913200378418 7.371575832366943 16.78609085083008 7.317405700683594 16.72415161132812 7.286435604095459 L 16.50093078613281 7.174845695495605 L 16.57003211975098 6.935035705566406 L 16.74499130249023 6.327895641326904 L 16.85852241516113 5.933916091918945 L 17.19967269897461 6.161345958709717 C 17.19959259033203 6.161290168762207 17.19955825805664 6.161262512207031 17.1995735168457 6.161262512207031 C 17.19989967346191 6.161261558532715 17.22163009643555 6.173444271087646 17.29014205932617 6.204265594482422 C 17.34843254089355 6.230495929718018 17.43158340454102 6.261125564575195 17.53729248046875 6.29533576965332 C 17.63964080810547 6.328445911407471 17.76576232910156 6.357865810394287 17.91212272644043 6.382775783538818 C 18.05601119995117 6.407265663146973 18.22779273986816 6.419685840606689 18.42268180847168 6.419685840606689 C 18.7575626373291 6.419685840606689 19.0322322845459 6.366535663604736 19.23907089233398 6.261705875396729 C 19.38717269897461 6.186665534973145 19.45035171508789 6.074345588684082 19.45035171508789 5.88615608215332 C 19.45035171508789 5.784045696258545 19.43616104125977 5.699545860290527 19.4081916809082 5.63498592376709 C 19.38312149047852 5.577156066894531 19.33948135375977 5.523885726928711 19.27478218078613 5.472135543823242 C 19.19209289550781 5.405985832214355 19.0770320892334 5.339615821838379 18.93278121948242 5.274866104125977 C 18.76794242858887 5.200865745544434 18.56097221374512 5.111935615539551 18.31761169433594 5.010555744171143 C 18.11514282226562 4.926785945892334 17.91955184936523 4.83966588973999 17.73695182800293 4.751895904541016 C 17.53757095336914 4.656045913696289 17.35779190063477 4.542535781860352 17.20258331298828 4.414495944976807 C 17.03487205505371 4.276165962219238 16.89880180358887 4.108235836029053 16.79816246032715 3.915395736694336 C 16.69363212585449 3.715045928955078 16.64063262939453 3.474475860595703 16.64063262939453 3.20033597946167 C 16.64063262939453 2.67603588104248 16.84200286865234 2.244875907897949 17.23914337158203 1.918835639953613 C 17.61860275268555 1.607326030731201 18.1345329284668 1.449385643005371 18.77261161804199 1.449385643005371 Z M 23.74364280700684 1.449385643005371 C 24.48034286499023 1.449385643005371 25.07954216003418 1.696985721588135 25.52461242675781 2.185315608978271 C 25.96240234375 2.665645599365234 26.18438148498535 3.394915819168091 26.18438148498535 4.352875709533691 C 26.18438148498535 4.413765907287598 26.18245124816895 4.475455760955811 26.17866134643555 4.536235809326172 C 26.17473220825195 4.598885536193848 26.16872215270996 4.658775806427002 26.16078186035156 4.714305877685547 L 26.12399291992188 4.97187614440918 L 25.86380195617676 4.97187614440918 L 22.45038604736328 4.97187614440918 C 22.50156211853027 5.400753974914551 22.63166999816895 5.738419532775879 22.83865165710449 5.978295803070068 C 23.07959175109863 6.25752592086792 23.48796272277832 6.399106025695801 24.05241203308105 6.399106025695801 C 24.38303184509277 6.399106025695801 24.64291191101074 6.36935567855835 24.82484245300293 6.310675621032715 C 25.07063293457031 6.231405735015869 25.18949127197266 6.181135654449463 25.24593162536621 6.152925968170166 L 25.59228134155273 5.979765892028809 L 25.67342185974121 6.358386039733887 L 25.79692268371582 6.934655666351318 L 25.84289169311523 7.149175643920898 L 25.65240287780762 7.258015632629395 C 25.53257179260254 7.326475620269775 25.33977127075195 7.397485733032227 25.04565238952637 7.481505870819092 C 24.75590133666992 7.564275741577148 24.41480255126953 7.606245994567871 24.03182220458984 7.606245994567871 C 23.52764129638672 7.606245994567871 23.0871524810791 7.52923583984375 22.72258186340332 7.377366065979004 C 22.35125160217285 7.222655773162842 22.04003143310547 7.001475811004639 21.79756164550781 6.719935894012451 C 21.55713272094727 6.440765857696533 21.38066101074219 6.106345653533936 21.2730712890625 5.725986003875732 C 21.16994094848633 5.361415863037109 21.11765289306641 4.958295822143555 21.11765289306641 4.527815818786621 C 21.11765289306641 4.02638578414917 21.19195175170898 3.579745769500732 21.3385009765625 3.200305938720703 C 21.48540115356445 2.81989574432373 21.68212127685547 2.495105743408203 21.92319107055664 2.234945774078369 C 22.16833114624023 1.970376014709473 22.45361137390137 1.770665645599365 22.77109146118164 1.641345977783203 C 23.08377265930176 1.513965606689453 23.41098213195801 1.449385643005371 23.74364280700684 1.449385643005371 Z M 24.87252044677734 3.805905818939209 C 24.82961463928223 3.466368436813354 24.72812271118164 3.195005416870117 24.56947135925293 2.9967360496521 C 24.38076210021973 2.760875701904297 24.1140022277832 2.646225929260254 23.75394248962402 2.646225929260254 C 23.55998229980469 2.646225929260254 23.39409255981445 2.682675838470459 23.24677276611328 2.757655620574951 C 23.09334182739258 2.835745811462402 22.95740127563477 2.941985607147217 22.84272193908691 3.073415756225586 C 22.72668266296387 3.206425666809082 22.63445281982422 3.363865852355957 22.56860160827637 3.5413658618927 C 22.53678703308105 3.627106904983521 22.51097679138184 3.715466022491455 22.49127960205078 3.805905818939209 L 24.87252044677734 3.805905818939209 Z M 13.51340198516846 1.469965934753418 C 13.95734214782715 1.469965934753418 14.33831214904785 1.537045955657959 14.64574241638184 1.669335842132568 C 14.9644718170166 1.806485652923584 15.22362232208252 2.006755828857422 15.41600227355957 2.264585971832275 C 15.60169219970703 2.513445854187012 15.73522186279297 2.812825679779053 15.81288242340088 3.154415607452393 C 15.88612174987793 3.476675748825073 15.92326164245605 3.834875822067261 15.92326164245605 4.219096183776855 L 15.92326164245605 7.193045616149902 L 15.92326164245605 7.493045806884766 L 15.62326240539551 7.493045806884766 L 14.9542818069458 7.493045806884766 L 14.65428161621094 7.493045806884766 L 14.65428161621094 7.193045616149902 L 14.65428161621094 4.435195922851562 C 14.65428161621094 4.079105854034424 14.63022232055664 3.776665925979614 14.58277225494385 3.536285877227783 C 14.54007244110107 3.319985866546631 14.47098255157471 3.145256042480469 14.37740230560303 3.016945838928223 C 14.29220199584961 2.900115966796875 14.18270206451416 2.818245887756348 14.04265213012695 2.766645908355713 C 13.88135242462158 2.707235813140869 13.66865253448486 2.677105903625488 13.41047191619873 2.677105903625488 C 13.11110210418701 2.677105903625488 12.85071182250977 2.693305969238281 12.63654232025146 2.725265979766846 C 12.55789947509766 2.737001895904541 12.49488735198975 2.74748420715332 12.44456195831299 2.75662088394165 L 12.44456195831299 7.193045616149902 L 12.44456195831299 7.493045806884766 L 12.14456176757812 7.493045806884766 L 11.47558212280273 7.493045806884766 L 11.17558193206787 7.493045806884766 L 11.17558193206787 7.193045616149902 L 11.17558193206787 2.058095932006836 L 11.17558193206787 1.829635620117188 L 11.39582252502441 1.768895626068115 C 11.60047245025635 1.712445735931396 11.87722206115723 1.64853572845459 12.2183723449707 1.578925609588623 C 12.57271194458008 1.506625652313232 13.00842189788818 1.469965934753418 13.51340198516846 1.469965934753418 Z" stroke="none" fill="#73b98f"/>
    </g>
  </g>
</svg>
