<svg xmlns="http://www.w3.org/2000/svg" width="97.562" height="39.624" viewBox="0 0 97.562 39.624"><defs><style>.a{fill:#000d10;}</style></defs><path class="a" d="M143.986,13.409l.473.614a.613.613,0,0,0,.4.21,1.444,1.444,0,0,0,.145.01.743.743,0,0,0,.517-.171.84.84,0,0,0,.222-.668,4.024,4.024,0,0,0-.55-1.853c-.121-.224-.246-.449-.372-.673-.174-.307-.343-.619-.5-.931a2.951,2.951,0,0,1-.381-1.6c.034-.41.183-.566.57-.6a4.68,4.68,0,0,1,.787,0,3.3,3.3,0,0,0,1.931-.453.613.613,0,0,0,.28-.5.6.6,0,0,0-.333-.463c-.193-.083-.391-.146-.589-.215l-.222-.073-1.579-.093-.121.02-.193.029-.55.059c-.4.039-.787.078-1.178.137a1.392,1.392,0,0,0-1.241,1.009,4.7,4.7,0,0,0-.179,1.414,4.835,4.835,0,0,0,1.028,2.633C142.876,11.971,143.44,12.7,143.986,13.409Z" transform="translate(-73.096 -3.042)"/><path class="a" d="M149.055,29.116a5.138,5.138,0,0,0-.8,2.569,2.6,2.6,0,0,0-.019.322,2.9,2.9,0,0,0,.628,2.062,3.662,3.662,0,0,0,1.772.853l.082.01c.1.015.237.029.415.039a7.4,7.4,0,0,0,4.475-1.614,10.441,10.441,0,0,0,2.583-2.691c.1-.141.2-.273.285-.385.212-.283.434-.57.647-.819.222,1.4.748,2.989,1.97,3.486a3.3,3.3,0,0,0,2.616.809c.116.01,2.829.156,10.277-2.111a.367.367,0,0,0,.246-.317.92.92,0,0,0-.251-.765.812.812,0,0,0-.657-.122c-7.3,1.731-9.466,1.56-9.51,1.555-1.728,0-2.481-3.057-2.65-4.656-.024-.522-.125-1.438-.541-1.682l-.063-.039a2.386,2.386,0,0,0-1.41-.4c-.3,0-1.284.122-1.4,1.94-.936,1.877-3.162,5.441-5.064,5.777a1.543,1.543,0,0,1-1.212-.3,2.143,2.143,0,0,1-.111-.882,8.508,8.508,0,0,1,2.066-4.363c.241-.273.449-.522.594-.717a5.479,5.479,0,0,1,1.907-1.614c.048.039.13.122.164.156a1.685,1.685,0,0,0,1.207.614,1.216,1.216,0,0,0,.869-.5,1.6,1.6,0,0,0,.42-.975,1.359,1.359,0,0,0-.574-.956,2.891,2.891,0,0,0-1.743-.668c-1.728-.029-3.727,1.268-5.484,3.559A15.382,15.382,0,0,0,149.055,29.116Z" transform="translate(-76.679 -11.651)"/><path class="a" d="M72.022,31.615a3.294,3.294,0,0,0-1.327-.2.422.422,0,0,0-.309.112.491.491,0,0,0-.1.478,2.1,2.1,0,0,1-.377,1.584c-1.955,3.252-3.027,4.007-4.441,4.792a2.861,2.861,0,0,1-1.854.458,2.754,2.754,0,0,1-.116-.814c-.048-1.672,1.525-4.281,3.027-5.884a3.431,3.431,0,0,1,1.25-1q.051.037.174.146a1.684,1.684,0,0,0,1.2.561h.034a1.262,1.262,0,0,0,.85-.546,1.61,1.61,0,0,0,.377-.985,1.492,1.492,0,0,0-.787-1.048,2.869,2.869,0,0,0-1.6-.473c-1.728.044-3.669,1.428-5.329,3.788-1.424,2.023-2.351,4.359-2.307,5.816a2.9,2.9,0,0,0,.714,2.033,2.278,2.278,0,0,0,1.578.629c.043,0,.082,0,.13,0h.106c1.323-.034,3.625-.57,4.576-1.892a22.365,22.365,0,0,0,2.723-2.7c.2-.288.405-.58.6-.839.362,1.375,1.453,3.237,2.742,3.7a4.12,4.12,0,0,0,2.756.722,2.956,2.956,0,0,0,1.868-.78,16.761,16.761,0,0,0,2.447-3.866c1.1-2.043,2.6-4.846,3.36-4.666.444.1.483,2.228.507,3.632.039,2.174.077,4.076.883,4.432a.959.959,0,0,0,.536-.019,2.835,2.835,0,0,0,2.023-1.731,27.331,27.331,0,0,1,3.973-7.43l.381-.5c.642-.858.4-.853,1.569-1.077l.106-.02c.14-.024.227-.039.3-.054.2-.034.28-.049.994-.229-.072.863-.232,1.862-.386,2.842-.309,1.94-.579,3.617-.2,4.831a1.62,1.62,0,0,0,1.052,1.443,3.026,3.026,0,0,0,2.153-.112c2.824-.926,7.564-6.382,7.767-7.727a.512.512,0,0,0-.126-.522.293.293,0,0,0-.328-.01,8.348,8.348,0,0,0-1.955,2.116,22.224,22.224,0,0,1-5.7,4.085c-.261.1-.338.054-.343.054-.092-.049-.2-.356-.13-.985a20.873,20.873,0,0,1,.772-3.344c.444-1.55.825-2.891.618-3.613a1.768,1.768,0,0,0-1.2-1.385,2.727,2.727,0,0,0-1.709.161l-1.052.366a4.831,4.831,0,0,1-2.438.414c-.864-.141-3.07-.346-3.49.439-.164.3-.043.653.348,1.029a2.665,2.665,0,0,0,1,.5,61.283,61.283,0,0,0-3.49,7.406c-.034.278-.348.629-.391.293a13.859,13.859,0,0,1,.246-2.808c.087-.687.179-1.4.217-2.077a5.858,5.858,0,0,0-.589-2.969,2.723,2.723,0,0,0-1.989-1.092,1.4,1.4,0,0,0-1.144.332,9.279,9.279,0,0,0-1.313,2.457c-1.593,4.1-3.838,8.293-5.252,8.4a.811.811,0,0,1-.106,0c-1.607,0-2.472-2.979-2.7-4.578-.019-.088-.029-.249-.043-.385a2.069,2.069,0,0,0-.072-.507.885.885,0,0,0-.2-.3A2.507,2.507,0,0,0,72.022,31.615Zm-1.081,3.53Z" transform="translate(-31.235 -12.989)"/><path class="a" d="M12.418,18.3c.739,6.752,1.332,9.487,4.668,11.428a4.41,4.41,0,0,0,2.071.424,6.8,6.8,0,0,0,4.668-2.287C27.947,23.428,32.576,11.133,34.8,5.224l.034-.088c.3-.809.57-1.506.777-2.043l.087-.234c.024-.1.092-.278.169-.492.434-1.2.671-1.945.29-2.233C35.545-.329,34.7.49,34.391.782L34.3.938c-.058.166-6.97,17.834-11.952,24.61-1.149,1.872-2.423,2.043-2.829,2.057a2.2,2.2,0,0,1-1.723-.668c-1.53-1.341-3.282-5.061-2.92-15.182v-.01A26.726,26.726,0,0,1,15.6,7.2l.014-.059L15.6,7.081c-.092-.351-.3-1.17-.98-1.277-1-.161-2.192.7-2.6,2.984a29.884,29.884,0,0,1-1.68,5.894c-.053.122-.381.785-.845,1.706l-.072.146c-1.236,2.491-3.538,7.113-4.842,10.009C4.549,26.607.7,34.8.026,37.649a1.439,1.439,0,0,0,.565,1.57,1.225,1.225,0,0,0,.642.166h.034c.034,0,.072,0,.106,0a3.72,3.72,0,0,0,1.839-.907l.106-.088.039-.132C5.5,31.36,11.336,19.479,12.2,17.807A2.6,2.6,0,0,1,12.418,18.3Z" transform="translate(0.005 0.005)"/><path class="a" d="M98.847,54.01l-.594,0c-2.192.01-4.455.02-6.686.068-2.751.059-4.982.132-7.019.234-2.076.1-4.34.254-6.922.468-1.429.117-2.877.268-4.272.419l-1.4.146q-1.477.154-2.945.312c-.7.073-1.385.151-2.081.224L64.4,56.15l-3.36.351c-1.274.132-2.554.268-3.828.41l-1.221.132c-1.279.137-2.6.278-3.891.468-.9.132-1.8.273-2.7.414-1.9.3-3.857.6-5.8.819-1.226.137-2.452.283-3.678.429-.661.078-1.318.161-1.979.234l-2.018.234c-1.207.141-2.414.278-3.62.424-1.091.132-2.182.273-3.268.414-.9.117-1.791.229-2.689.341a28.427,28.427,0,0,0-4.7.951,37.775,37.775,0,0,0-7.936,3.53,3.148,3.148,0,0,0-1.241,1.131l-.014.029v.424l.029.034a1.192,1.192,0,0,0,.965.38h.063A4,4,0,0,0,15.2,66.93c.777-.366,1.53-.756,2.254-1.136a27.167,27.167,0,0,1,4.32-1.921,38.57,38.57,0,0,1,6.69-1.321q1.767-.234,3.533-.473,1.687-.227,3.374-.449c1.926-.254,3.929-.507,5.957-.756,1.313-.161,2.631-.312,3.944-.463l.936-.107c.821-.093,1.636-.19,2.457-.283l2.534-.293c.367-.044.739-.083,1.105-.127.985-.112,2.008-.224,3.007-.366,1.192-.166,2.38-.341,3.567-.512,1.776-.263,3.616-.531,5.431-.761,2.78-.356,5.826-.7,9.592-1.087,1.718-.176,3.476-.327,5.17-.473q1.4-.117,2.8-.244l2.187-.2c.965-.093,1.931-.185,2.9-.268,1.68-.141,3.485-.293,5.271-.4,1.747-.112,3.519-.2,5.262-.258,1.014-.034,2.047-.049,3.046-.058l1.366-.015C101.888,54.931,108.207,54.322,98.847,54.01Z" transform="translate(-6.438 -27.676)"/></svg>