<svg xmlns="http://www.w3.org/2000/svg" width="17.819" height="22.19" viewBox="0 0 17.819 22.19"><path d="M1235.957-450.594c0,.349.437,1.092.349,1.485a4.07,4.07,0,0,0,.611,2.052,46.114,46.114,0,0,0,2.4,4.148c1,1.528,4.541,4.192,4.628,4.759a3.292,3.292,0,0,0,.7,1.266l.265.044a11.984,11.984,0,0,1,1.7,1.354c.218.175,0,0,.262.306s1.834,0,1.834,0l.48-.437c.48-.437,2.795-.873,2.795-1.179a5.6,5.6,0,0,1,.611-1.616,5.411,5.411,0,0,0,.175-1.528c.01-.436,0-1.048-.349-1s-.218-.611-.218-.873.917-.131,1.06-.306a7.722,7.722,0,0,0-.055-2.489c-.131-.48.175-1.353,0-1.528s-.262-.7-.437-.917a12.53,12.53,0,0,1-.961-2.4,1.968,1.968,0,0,0-.25-.7,10.2,10.2,0,0,0-1.365-1.441c-.219-.044-.568-.568-.568-.568a4.981,4.981,0,0,0-.961-.7.746.746,0,0,1-.48-.48c0-.131-.306-.393-.611-.437a9.12,9.12,0,0,1-1.7-1.1,7.9,7.9,0,0,0-2.14-1.084c-.524-.044-.567-.131-.873-.524s-.961-.087-1.354,0a4.057,4.057,0,0,1-1.834-.306,3.677,3.677,0,0,0-1.4-.436,8.585,8.585,0,0,0-1.7.524c-.48.262-.437,1.31-.611,1.827a8.45,8.45,0,0,0-.437,1.23c0,.218.742,1.266.742,1.7S1235.957-450.944,1235.957-450.594Zm2.838-4.279c.349.087,2.1.175,3.449.349s2.751,1.179,5.065,2.62,2.707,3.362,3.668,5.676a9.961,9.961,0,0,1,.437,5.021s-.873.48-.917.262-1.354-1.266-1.528-1.834a8.879,8.879,0,0,0-.786-1.485,10.622,10.622,0,0,0-1.135-1.266,5.321,5.321,0,0,1-1.092-1.878,4.791,4.791,0,0,0-.873-1.616,2.5,2.5,0,0,1-.1-1.168c.033-.448.1-.841.1-.841.093-.779-1.615.262-1.79.917a5.209,5.209,0,0,0-.044,1.834,3.316,3.316,0,0,0,1.223,1.79,7.66,7.66,0,0,1,1.441,2.14,10.423,10.423,0,0,0,2.1,2.052c.7.611.7,1.485.961,2.139s-.262,3.362-.568,3.275a1.3,1.3,0,0,0-1.266.218c-.48.393-.568-.611-.873-.917s-3.973-4.585-4.017-5.065-1.747-1.965-2.009-2.227a4.791,4.791,0,0,1-.568-1.965,12.191,12.191,0,0,0-1.135-2.271c-.131-.393-.218-3.668-.262-4.41S1238.446-454.961,1238.795-454.873Z" transform="translate(-1235.52 457.235)" fill="#fff"/></svg>