<svg xmlns="http://www.w3.org/2000/svg" width="37.734" height="37.004" viewBox="0 0 37.734 37.004">
  <g id="Component_13_31" data-name="Component 13 – 31" transform="translate(0.592 0.5)">
    <path id="Path_310" data-name="Path 310" d="M18.763,0S11.984,0,7.012,4.067-1.574,14.914.685,23.048s9.942,11.3,12.654,12.2,8.135,2.26,16.721-3.615S38.2,14.462,32.321,6.779C28.506,1.79,24.638,0,18.763,0Z" transform="translate(0.003)" fill="none" stroke="#fff" stroke-width="1"/>
    <g id="Group_157" data-name="Group 157" transform="translate(12.315 9.412)">
      <g id="Group_154" data-name="Group 154" transform="translate(0 0)">
        <g id="_x37_tz7TN.tif_3_">
          <path id="Path_135" data-name="Path 135" d="M11.687,4.9h-.015c.006-1.352.015-2.693-.015-4.031A.883.883,0,0,0,10.234.183C9.4.8,8.623,1.5,7.854,2.136L5.075,4.443a1.343,1.343,0,0,1-.764.267c-1.082.03-2.165,0-3.247.018-.692.01-1.053.349-1.058,1Q0,7.131,0,8.538t.009,2.813c0,.646.366.984,1.058,1,1.082.017,2.165-.011,3.247.018a1.337,1.337,0,0,1,.764.267l2.779,2.307c.768.636,1.546,1.331,2.38,1.953a.883.883,0,0,0,1.423-.686c.03-1.338.019-2.679.015-4.031h.015V4.9Z" fill="none" stroke="#fff" stroke-width="1"/>
        </g>
      </g>
    </g>
  </g>
</svg>
